<svg width="213" height="230" viewBox="0 0 213 230" fill="none" xmlns="http://www.w3.org/2000/svg">
<g clip-path="url(#clip0_3_1700)">
<path fill-rule="evenodd" clip-rule="evenodd" d="M35.1578 226.54C35.4559 220.999 35.8222 215.463 36.2606 209.932C37.1344 198.914 38.2783 187.887 40.182 176.996C42.0601 166.25 44.6885 155.801 48.4753 145.561C50.232 140.811 52.1346 136.758 54.8946 132.487C57.5043 128.449 60.8345 125.713 64.9835 123.276C68.7217 121.08 73.0644 117.269 76.6498 114.81C78.1466 113.783 81.2261 113.852 82.2525 112.333C83.5967 110.344 82.7252 107.3 84.0801 105.318C85.6289 103.052 87.7987 101.291 90.2455 100.012C92.916 98.2032 96.0613 97.3843 99.2151 97.4971C103.866 97.2149 108.55 98.6961 111.535 102.483C113.025 104.373 113.895 106.553 114.016 108.967C114.047 109.595 113.845 110.09 113.513 110.448C113.71 110.711 113.906 110.975 114.101 111.239C114.711 110.335 116.139 109.854 117.09 110.537C120.202 112.771 123.566 114.548 127.116 115.851C127.946 115.458 128.952 115.64 129.663 116.282C129.952 116.542 130.258 116.765 130.578 116.954C131.895 117.311 133.231 117.609 134.588 117.839C135.012 117.911 135.372 118.152 135.645 118.478C136.049 118.1 136.605 117.918 137.225 118.155C144.39 120.887 151.156 125.131 156.298 130.881C161.996 137.252 164.988 145.176 167.266 153.295C169.733 162.083 171.309 171.091 172.632 180.113C173.974 189.255 175.295 198.433 176.218 207.628C176.737 212.802 176.935 218.024 176.7 223.221C176.583 225.818 176.346 228.407 175.968 230.98C175.88 231.582 175.788 232.275 175.64 232.967C176.09 232.879 176.628 233.261 176.536 233.871C175.9 238.123 170.761 239.361 167.217 239.851C161.421 240.651 155.594 241.095 149.741 241.13C143.99 241.163 138.24 240.794 132.501 240.463C126.617 240.124 120.733 239.784 114.849 239.438C91.2747 238.056 67.6992 236.688 44.1248 235.305C41.9711 235.179 39.5118 235.008 37.667 233.758C35.1382 232.045 35.0081 229.322 35.1578 226.54V226.54Z" fill="white"/>
<path fill-rule="evenodd" clip-rule="evenodd" d="M150.081 178.984C150.163 178.831 149.973 178.693 149.847 178.804C146.986 181.316 145.487 185.351 145.173 189.08C144.84 193.035 145.312 197.13 145.492 201.083C145.693 205.487 145.874 209.892 146.119 214.293C146.367 218.758 146.635 223.222 146.865 227.689L147.382 237.736V237.736C147.437 238.806 147.318 240.123 147.728 241.123C148.365 242.672 150.256 242.432 150.653 241.137L150.666 241.095L150.702 241.123C151.052 239.956 150.79 238.57 150.731 237.363L150.189 226.386V226.386C149.807 218.627 149.466 210.868 149.055 203.111L148.915 200.525C148.723 197.044 148.576 193.572 148.457 190.092L148.419 188.932C148.307 185.438 148.396 182.139 150.081 178.984ZM80.7057 114.573C79.1113 114.421 77.9074 114.95 76.4599 115.507C75.8293 115.75 75.2322 116.03 74.6272 116.32C73.8699 116.683 73.3828 117.326 72.9164 118.005L72.6671 118.371C70.7251 121.217 69.4188 124.501 67.9448 127.6C66.2205 131.225 64.4791 134.842 62.7916 138.484L61.9589 140.279C61.5426 141.176 61.1275 142.074 60.7186 142.975L60.0121 144.542C59.3024 146.132 58.6661 147.814 59.6777 149.453C60.6183 150.979 62.2859 152.159 63.6063 153.338C64.7078 154.322 65.8096 155.305 66.9116 156.289C64.6336 158.571 63.1043 161.444 62.2054 164.526C60.9282 163.993 59.3693 163.891 58.0487 163.661C56.2002 163.339 55.9737 166.138 57.7183 166.104C59.0067 166.079 60.5183 166.21 61.84 165.939C61.6103 166.952 61.4436 167.98 61.3376 169.01C60.7823 174.413 61.9959 179.846 63.2617 185.073L63.3658 185.503C64.7404 191.16 66.0437 196.832 67.2097 202.537C68.3784 208.253 69.4296 213.994 70.3628 219.754C71.3125 225.617 71.9846 231.511 72.7069 237.405C72.8163 238.297 73.3773 239.062 74.3626 239.062C75.1834 239.062 76.1216 238.295 76.0184 237.405C75.2731 230.987 74.2161 224.603 73.1659 218.228C71.3572 207.251 69.0807 196.37 66.4616 185.559L66.0041 183.677C64.8258 178.794 63.7569 173.763 64.3479 168.727C64.8293 164.626 66.5433 160.254 69.9309 157.707L70.034 157.63C70.8253 157.049 71.1298 155.939 70.3504 155.175C69.8545 154.688 69.358 154.202 68.8611 153.717L65.8791 150.804L65.2779 150.216C64.7766 149.726 64.2729 149.24 63.7541 148.768C63.4402 148.483 62.5889 147.939 62.5266 147.469C62.4862 147.163 62.8487 146.625 62.9956 146.343L63.6687 144.984V144.984C64.0509 144.209 64.4213 143.428 64.7946 142.649C65.5679 141.034 66.3525 139.424 67.109 137.802L71.6544 128.059V128.059C72.9366 125.31 74.0789 122.408 75.7553 119.867L76.0858 119.372C76.3618 118.954 76.6055 118.553 76.7798 118.043C76.9475 117.552 77.1579 117.013 77.4678 116.594C78.1939 115.612 79.5817 115.054 80.7429 114.848C80.9107 114.818 80.8498 114.586 80.7057 114.573ZM115.664 112.014C115.563 112.014 115.548 112.158 115.641 112.186C117.042 112.607 118.381 113.287 119.473 114.269C119.995 114.738 120.521 115.271 120.844 115.904C120.967 116.146 121.036 116.401 121.086 116.666L121.102 116.755C121.185 117.234 121.304 117.5 121.547 117.884L121.589 117.949C122.977 120.093 123.95 122.475 124.839 124.859L126.776 130.059V130.059L128.712 135.259C129.336 136.935 129.96 138.611 130.583 140.286C130.928 141.211 131.282 142.132 131.637 143.054C131.79 143.453 131.955 143.849 132.095 144.253C132.114 144.308 132.175 144.641 132.221 144.722L132.206 144.749V144.749C131.815 145.406 130.774 145.955 130.184 146.432L128.152 148.076V148.076C126.703 149.248 125.217 150.387 123.811 151.612C122.928 152.381 123.477 153.757 124.462 154.078C126.112 154.616 127.728 155.26 129.354 155.868C130.01 156.114 130.694 156.328 131.342 156.598L131.737 156.769C131.892 156.839 131.817 156.838 131.811 157.123C131.805 157.421 131.72 157.733 131.672 158.026C131.124 161.337 130.544 164.643 129.932 167.943C127.765 179.611 125.177 191.195 122.225 202.689C120.734 208.494 119.135 214.27 117.611 220.066C116.091 225.846 114.091 231.544 112.182 237.205C111.643 238.802 114.174 239.489 114.699 237.9C116.9 231.241 118.913 224.524 120.993 217.828C124.687 205.93 127.598 193.773 130.172 181.587C131.448 175.547 132.616 169.484 133.673 163.402C133.873 162.251 134.069 161.099 134.261 159.946L134.541 158.251C134.733 157.042 134.843 155.783 133.904 154.827C132.987 153.893 131.413 153.562 130.206 153.124L130.118 153.092C129.351 152.805 128.577 152.529 127.807 152.245C128.942 151.351 130.063 150.437 131.195 149.544C132.108 148.824 133.035 148.118 133.935 147.381C134.677 146.773 135.283 145.992 135.36 145.004C135.439 143.993 135.006 143.055 134.657 142.129L134.623 142.039C134.281 141.114 133.937 140.189 133.585 139.267L131.404 133.561V133.561C130.018 129.936 128.69 126.28 127.232 122.683C126.656 121.259 126.027 119.858 125.284 118.512C124.926 117.863 124.542 117.228 124.125 116.615C123.657 115.929 123.233 115.594 122.508 115.215C121.35 114.609 120.441 113.593 119.277 112.968C118.135 112.355 116.96 112.028 115.664 112.014ZM111.903 105.545C111.859 105.469 111.741 105.503 111.74 105.589C111.71 107.391 112.138 109.233 112.401 111.014C112.665 112.803 112.75 114.69 113.133 116.459C113.141 116.541 113.157 116.623 113.179 116.702L113.198 116.763V116.763C113.359 117.259 113.779 117.679 114.294 117.81C114.132 118.708 113.98 119.608 113.851 120.512C113.631 122.067 113.429 123.624 113.231 125.182L112.994 127.051C112.771 128.812 112.553 130.575 112.338 132.337C111.791 132.566 111.233 132.755 110.661 132.919C109.344 133.295 107.996 133.449 106.637 133.582C103.87 133.854 101.082 133.979 98.3052 134.134L97.7103 134.167C94.5885 134.346 91.4497 134.378 88.3357 134.057C86.7916 133.898 85.2597 133.632 83.7539 133.254C82.9888 133.062 82.2451 132.775 81.4815 132.587C81.2282 132.525 81.0019 132.382 80.7481 132.228C80.6354 132.086 80.4773 131.978 80.2714 131.936L80.2156 131.926V131.926L80.1604 131.918L80.1413 131.91L80.1428 131.916C79.9865 131.895 79.8382 131.895 79.6982 131.914C79.6425 130.54 79.5821 129.166 79.5064 127.792C79.3033 124.102 78.7424 120.253 79.4911 116.595C79.5161 116.472 79.3489 116.428 79.3053 116.544C77.8362 120.416 78.0012 124.65 77.9272 128.725C77.8549 132.711 77.8986 136.699 77.9184 140.686C77.633 140.807 77.3785 140.972 77.1768 141.203C76.7741 141.665 76.6582 142.468 77.1768 142.913C77.4067 143.111 77.6611 143.248 77.9309 143.343C77.9453 146.807 77.9698 150.27 78.0046 153.733C77.3462 154.242 77.2847 155.45 78.0294 155.952C78.1533 167.168 78.357 178.384 78.526 189.597L78.88 213.125V213.125C78.9271 216.259 79.0052 219.394 79.0332 222.528L79.011 222.537V222.537L78.9326 222.573C78.8007 222.635 78.6044 222.735 78.5637 222.838C78.5531 222.865 78.5503 222.883 78.5516 222.897C78.3356 222.927 78.1216 223.029 77.9364 223.205C77.4792 223.639 77.5721 224.294 77.9364 224.737L78.0337 224.855V224.855C78.2608 225.131 78.692 225.237 79.0441 225.181C79.0405 227.137 79.028 229.094 79.0341 231.05C79.0362 231.648 79.0452 232.245 79.0555 232.843L79.0801 234.275C79.0965 235.093 79.1689 236.132 80.006 236.499C80.9503 236.914 81.7971 236.574 82.1795 235.615C82.2831 235.355 82.2608 235.113 82.2231 234.856C82.2348 234.47 82.2952 234.022 82.2877 233.664L82.2565 232.17V232.17C82.2517 231.94 82.2423 231.71 82.2358 231.48L82.2631 231.482V231.482C85.6186 231.645 88.9976 231.566 92.3586 231.564L93.8534 231.566C95.1006 231.567 96.3505 231.56 97.596 231.513L98.0628 231.493C98.9952 231.449 99.9758 231.435 100.942 231.352C100.819 232.344 100.704 233.338 100.602 234.332C100.504 235.275 101.477 236.076 102.345 236.076C103.375 236.076 103.965 235.266 104.088 234.332C104.67 229.928 104.909 225.483 105.465 221.076C105.964 217.128 106.396 213.172 106.835 209.218L106.982 207.899C108.589 193.508 110.149 179.11 111.642 164.706L112.337 157.973C113.039 151.186 113.745 144.399 114.34 137.602C114.681 133.716 114.995 129.83 115.29 125.94C115.507 123.083 115.643 120.241 115.731 117.389C116.081 117.029 116.256 116.504 116.101 115.962C116.01 115.646 115.905 115.331 115.794 115.017C115.801 114.708 115.808 114.4 115.814 114.091C115.82 113.798 115.523 113.648 115.286 113.696C114.854 112.651 114.379 111.614 113.982 110.578C113.34 108.902 112.81 107.096 111.903 105.545ZM147.767 123.662C141.054 119.453 133.063 116.425 125.06 116.751C124.878 116.758 124.827 117.036 125.015 117.078C129.284 118.032 133.6 119.193 137.642 120.883C141.695 122.579 145.549 124.861 148.982 127.605C155.315 132.666 160.238 139.25 163.479 146.671C165.378 151.018 166.709 155.608 167.871 160.199C169.101 165.058 170.114 169.969 170.957 174.91C172.621 184.67 173.59 194.537 174.106 204.421C174.63 214.476 174.414 224.538 174.788 234.594C174.853 236.336 177.342 236.302 177.469 234.594C178.317 223.161 177.847 211.545 177.063 200.12C176.358 189.85 175.127 179.6 173.145 169.495L172.972 168.619C171.119 159.27 168.884 149.694 164.403 141.227C160.579 133.998 154.674 127.992 147.767 123.662ZM54.5476 168.346C54.5127 168.246 54.3804 168.247 54.345 168.346C53.5797 170.489 53.5522 172.907 53.3488 175.166L53.3328 175.339C53.1378 177.4 52.9909 179.463 52.8544 181.527L52.8036 182.302C52.2554 190.724 51.5703 199.138 50.5377 207.516C49.5089 215.863 48.1178 224.152 46.6136 232.424C46.4459 233.345 46.8537 234.283 47.8192 234.548C48.6703 234.782 49.7629 234.258 49.9428 233.342C50.8767 228.594 51.6319 223.84 52.3057 219.05C53.4917 210.617 54.3768 202.145 54.9459 193.647C55.2315 189.379 55.4073 185.113 55.4772 180.836C55.5095 178.852 55.458 176.863 55.3523 174.88L55.327 174.423C55.2103 172.397 55.2223 170.278 54.5476 168.346ZM127.085 221.994C126.995 221.945 126.884 222.045 126.941 222.138C128.241 224.251 129.999 226.073 131.699 227.869C133.476 229.746 135.209 231.68 137.021 233.521C138.331 234.85 140.438 232.705 139.056 231.486C137.112 229.771 135.081 228.141 133.103 226.464L132.238 225.731C130.616 224.36 128.946 223.002 127.085 221.994ZM65.3472 220.935C65.4442 220.75 65.2226 220.6 65.0719 220.723C64.0235 221.576 63.0838 222.593 62.0714 223.493C61.0687 224.385 60.0287 225.216 58.9602 226.028C57.8873 226.842 56.791 227.624 55.6652 228.364C54.7313 228.977 53.7688 229.469 52.7908 229.978C52.3379 230.037 51.9186 230.259 51.5829 230.68C51.0521 231.347 50.9957 232.604 51.7319 233.183L51.864 233.287V233.287C52.7231 233.962 53.743 234.045 54.5887 233.287C55.533 232.441 56.4255 231.51 57.3324 230.616L57.6049 230.349C58.5793 229.402 59.5301 228.423 60.4264 227.401L61.2378 226.478C62.7431 224.761 64.31 222.91 65.3472 220.935ZM70.1769 121.932C70.3512 121.816 70.2438 121.505 70.0285 121.579L69.6336 121.716C67.9838 122.289 66.2856 122.925 64.7877 123.808C63.178 124.757 61.6917 125.888 60.2717 127.1C57.3324 129.61 54.8318 132.697 52.7067 135.914C48.4426 142.37 45.8056 149.763 43.6765 157.16C41.4064 165.048 39.6586 173.105 38.2315 181.186C36.7814 189.397 35.6627 197.683 34.9274 205.99C34.5652 210.081 34.3221 214.176 34.1999 218.282C34.1369 220.394 34.1389 222.505 34.1565 224.618C34.161 225.161 34.1574 225.705 34.1512 226.248L34.1305 227.877C34.1195 228.908 33.9962 229.99 34.241 230.997C34.6349 232.618 37.3131 232.315 37.2251 230.659C37.3058 230.108 37.309 229.539 37.288 228.968C37.3008 228.894 37.3146 228.82 37.3299 228.743C37.3738 228.524 37.3365 228.321 37.2505 228.147C37.2367 227.873 37.2241 227.601 37.2196 227.334C37.2021 226.246 37.2032 225.163 37.2333 224.075C37.2966 221.782 37.3878 219.488 37.48 217.196C37.6641 212.616 37.9201 208.033 38.2913 203.464C39.5827 187.558 42.3096 171.563 46.8901 156.261C49.0175 149.155 51.9504 142.18 56.1563 136.04C58.0234 133.314 60.1298 130.796 62.465 128.459C64.815 126.108 67.4045 123.768 70.1769 121.932ZM101.871 224.463L101.554 226.759C101.395 227.908 101.238 229.057 101.089 230.207C100.076 230.068 99.0393 230.01 98.063 229.923C96.3539 229.772 94.633 229.698 92.9188 229.628C89.3741 229.481 85.8115 229.228 82.2632 229.245C82.2268 229.246 82.1924 229.248 82.158 229.251L81.982 224.719V224.719L84.4751 224.715V224.715C86.5873 224.712 88.6992 224.694 90.8114 224.676C92.7138 224.659 94.6168 224.657 96.5188 224.617L97.3339 224.598C98.7763 224.559 100.369 224.639 101.871 224.463ZM81.7728 217.885C81.8745 217.896 81.978 217.907 82.0881 217.911C82.5819 217.932 83.0796 217.918 83.5737 217.922C84.6259 217.931 85.6779 217.938 86.7303 217.938C88.8347 217.938 90.9389 217.95 93.0429 217.976C95.209 218.002 97.3736 218.04 99.5398 218.044C100.589 218.046 101.636 218.018 102.685 217.988C102.515 219.48 102.338 220.971 102.142 222.457C100.513 222.237 98.7602 222.348 97.1678 222.333L96.9611 222.33C94.7877 222.293 92.6125 222.321 90.4386 222.323C88.2023 222.326 85.9661 222.333 83.7296 222.351L81.8923 222.367V222.367L81.8887 222.274V222.274C81.8349 220.812 81.8001 219.349 81.7728 217.885ZM103.493 210.749C103.289 212.509 103.098 214.273 102.903 216.036C102.774 216.016 102.642 215.999 102.509 215.985C101.458 215.875 100.409 215.781 99.3541 215.715C97.2514 215.585 95.1489 215.516 93.0428 215.46C90.8771 215.402 88.711 215.357 86.5446 215.326C85.492 215.312 84.4404 215.313 83.3878 215.321C82.8941 215.324 82.3953 215.308 81.9024 215.341C81.8437 215.345 81.7875 215.352 81.7318 215.358L81.6948 212.711C81.6884 212.27 81.6818 211.829 81.6746 211.388C83.3014 211.488 84.9552 211.45 86.5808 211.45L86.9554 211.451C88.9979 211.46 91.0412 211.432 93.0833 211.39C95.1902 211.346 97.2927 211.277 99.3957 211.142C100.248 211.088 101.094 211.015 101.941 210.922L102.365 210.873C102.734 210.83 103.113 210.794 103.493 210.749ZM81.5067 203.279C85.4244 203.59 89.3213 203.72 93.2495 203.758L93.839 203.764C97.3103 203.79 100.81 203.933 104.29 203.841C104.082 205.646 103.874 207.45 103.665 209.254C103.167 209.231 102.666 209.231 102.179 209.213C101.188 209.177 100.201 209.168 99.2099 209.166C97.1677 209.161 95.1256 209.179 93.0832 209.175C90.9785 209.171 88.8741 209.135 86.7697 209.095C85.0636 209.063 83.3393 208.935 81.6285 208.94L81.5067 203.279V203.279ZM81.3409 195.581C81.7949 195.732 82.3308 195.741 82.9185 195.768L84.4351 195.844C85.1381 195.878 85.8411 195.911 86.5445 195.936C88.8883 196.022 91.2321 196.102 93.5763 196.177C95.9784 196.253 98.3921 196.298 100.795 196.222C101.971 196.185 103.138 196.123 104.312 196.025C104.602 196.001 104.897 195.985 105.194 195.964C104.921 198.354 104.646 200.745 104.371 203.135C100.908 202.71 97.4187 202.445 93.9601 202.005L90.8328 201.606C87.707 201.207 84.5837 200.815 81.4465 200.485L81.3409 195.581V195.581ZM81.174 187.798C81.8402 187.962 82.5993 187.954 83.239 187.994L83.3575 188.003C84.5695 188.095 85.7846 188.141 86.9994 188.171C89.3804 188.229 91.7629 188.259 94.1446 188.273L95.5768 188.282C97.4861 188.293 99.3943 188.298 101.304 188.254C102.529 188.225 103.752 188.165 104.976 188.104C105.342 188.085 105.717 188.073 106.093 188.054C105.837 190.318 105.579 192.58 105.321 194.843C104.919 194.78 104.515 194.731 104.13 194.666C103.143 194.499 102.158 194.366 101.165 194.247C99.0124 193.989 96.8489 193.803 94.6866 193.647C92.4667 193.486 90.245 193.349 88.0247 193.194L86.4523 193.083C85.9281 193.046 85.4039 193.011 84.8795 192.979C83.9839 192.924 82.943 192.986 82.0547 192.791C81.8141 192.691 81.5471 192.668 81.2796 192.725L81.174 187.798V187.798ZM80.9725 178.688C81.203 178.98 81.5472 179.134 81.9576 179.187C84.0955 179.464 86.2884 179.509 88.4443 179.64L88.8244 179.664C91.0504 179.81 93.2778 179.926 95.5055 180.044C97.794 180.165 100.082 180.265 102.372 180.344C103.345 180.378 104.322 180.382 105.296 180.37L105.713 180.363C106.113 180.357 106.532 180.358 106.951 180.344C106.719 182.46 106.485 184.577 106.247 186.692C105.819 186.646 105.391 186.61 104.976 186.566C103.752 186.437 102.531 186.309 101.304 186.212C98.9809 186.029 96.6558 185.919 94.3281 185.804C91.9466 185.686 89.5637 185.607 87.1818 185.496C86.027 185.442 84.8726 185.375 83.7211 185.269C82.9141 185.195 81.9556 184.92 81.1136 185.021C81.0677 182.91 81.0198 180.799 80.9725 178.688ZM80.7846 170.527C80.821 170.583 80.8636 170.638 80.9154 170.689C81.8566 171.619 83.0166 171.547 84.2639 171.645L84.3403 171.651C85.5628 171.754 86.7858 171.851 88.0096 171.94C90.4558 172.116 92.9068 172.24 95.3566 172.35C97.8637 172.463 100.387 172.54 102.897 172.489C104.504 172.456 106.187 172.462 107.826 172.305C107.574 174.636 107.321 176.967 107.066 179.297C106.605 179.211 106.141 179.144 105.702 179.075C104.594 178.901 103.486 178.725 102.372 178.597C100.147 178.341 97.9207 178.101 95.6909 177.885C93.784 177.7 91.8778 177.512 89.9695 177.343L88.8242 177.244C86.5473 177.052 84.2417 176.736 81.9575 176.69C81.5811 176.682 81.1553 176.887 80.9397 177.21C80.8892 174.982 80.8369 172.754 80.7846 170.527ZM80.6265 163.92C81.2079 163.99 81.8343 163.95 82.3709 163.968C83.7275 164.012 85.0844 164.053 86.4412 164.093L94.5823 164.334V164.334C97.3541 164.415 100.136 164.477 102.908 164.438C104.128 164.42 105.353 164.418 106.573 164.352L106.979 164.327C107.481 164.294 108.097 164.289 108.698 164.228L107.988 170.807V170.807C106.357 170.571 104.676 170.483 103.058 170.345L102.713 170.314C100.327 170.097 97.9303 169.953 95.5405 169.791C93.0891 169.625 90.6412 169.423 88.1931 169.217C86.9695 169.114 85.7461 169.012 84.5235 168.899L84.3725 168.884C83.2175 168.764 82.1315 168.507 81.1086 169.188C80.9589 169.288 80.8418 169.421 80.7616 169.57C80.7169 167.687 80.6732 165.803 80.6265 163.92ZM80.4368 156.242C85.3948 156.442 90.3536 156.593 95.3153 156.66C98.1082 156.697 100.898 156.671 103.69 156.613C104.901 156.587 106.122 156.529 107.332 156.436L107.785 156.4C108.36 156.352 108.965 156.316 109.566 156.258C109.318 158.52 109.071 160.783 108.826 163.045C108.234 162.935 107.616 162.884 107.097 162.818L106.979 162.802C105.69 162.625 104.389 162.522 103.094 162.408C100.571 162.185 98.0365 162.042 95.5075 161.92C92.9177 161.796 90.3267 161.69 87.7365 161.575L85.1462 161.459C84.7145 161.44 84.2828 161.421 83.8511 161.403C83.2342 161.377 82.6174 161.352 82.0007 161.326C81.6964 161.314 81.3802 161.272 81.0756 161.288L80.9889 161.276C80.9489 161.271 80.9136 161.267 80.8812 161.264C80.7984 161.201 80.7091 161.148 80.6146 161.109L80.5573 161.086L80.4368 156.242ZM110.379 148.966C110.149 151.003 109.921 153.039 109.697 155.076C108.99 154.996 108.274 154.951 107.599 154.89C106.237 154.768 104.869 154.661 103.504 154.598L100.775 154.471C98.9552 154.387 97.1359 154.306 95.3152 154.239C90.3323 154.058 85.3496 153.849 80.3697 153.595C80.3346 152.213 80.2984 150.832 80.2614 149.45C80.5004 149.706 80.8458 149.875 81.2995 149.874C86.5276 149.86 91.7598 149.89 96.9873 149.804C99.604 149.761 102.218 149.697 104.831 149.563C106.11 149.497 107.396 149.364 108.665 149.188C109.207 149.113 109.799 149.059 110.379 148.966ZM111.216 141.71C110.97 143.796 110.729 145.883 110.492 147.97C109.843 147.854 109.172 147.792 108.566 147.71C107.265 147.532 105.955 147.392 104.644 147.317C102.094 147.173 99.5416 147.1 96.9873 147.046C91.7602 146.935 86.5278 146.936 81.2995 146.895C80.8084 146.891 80.4438 147.085 80.2044 147.375C80.1681 146.073 80.1298 144.77 80.0904 143.467C80.5953 143.414 81.096 143.338 81.5593 143.306C82.9832 143.207 84.4077 143.116 85.8328 143.034C88.8066 142.863 91.7832 142.718 94.759 142.588C97.7356 142.459 100.713 142.332 103.691 142.222L104.993 142.174C107.064 142.097 109.169 142 111.216 141.71ZM112.153 133.855C111.897 135.967 111.645 138.08 111.393 140.193L111.317 140.847V140.847C108.827 140.363 106.202 140.221 103.691 140.115C100.713 139.988 97.7399 139.923 94.7592 139.932C91.7815 139.941 88.8082 140.011 85.8329 140.134C84.3462 140.196 82.8597 140.267 81.3739 140.347C80.9654 140.369 80.4864 140.358 79.9933 140.365C79.9827 140.033 79.9735 139.701 79.9621 139.369C79.9169 138.024 79.8726 136.679 79.8264 135.334C80.8314 135.85 82.1381 136.059 83.148 136.279L83.2632 136.304C84.9308 136.679 86.6336 136.922 88.3358 137.07C91.6785 137.362 95.056 137.253 98.3955 136.97L98.9805 136.92C101.913 136.666 104.953 136.343 107.796 135.617C109.151 135.272 110.551 134.788 111.764 134.086C111.89 134.014 112.02 133.936 112.153 133.855ZM83.9158 108.75C83.8868 108.636 83.7158 108.61 83.6596 108.717C83.2647 109.467 83.1178 110.368 82.8436 111.172C82.5485 112.037 82.2732 112.907 81.9476 113.761C81.2676 115.546 80.4652 117.26 79.5087 118.913C78.5614 120.55 81.2139 121.718 81.911 119.927C82.6307 118.077 83.2222 116.166 83.5801 114.212C83.7549 113.258 83.9106 112.292 83.961 111.323C84.0046 110.491 84.1216 109.562 83.9158 108.75Z" fill="black"/>
<path fill-rule="evenodd" clip-rule="evenodd" d="M64.5554 72.4462C64.6298 68.2578 64.712 63.9857 65.3344 59.8381C65.9429 55.7832 67.6169 52.118 70.4935 49.1735C76.6035 42.919 85.4603 41.3913 93.7044 39.9913L107.799 37.5976C112.1 36.8675 116.687 35.7005 121.032 36.7359C123.173 37.2461 124.991 38.4315 126.652 39.8339C128.254 41.1856 129.976 42.6372 131.061 44.4558C132.148 46.277 132.522 48.406 132.876 50.4658C133.275 52.7881 133.584 55.1285 133.804 57.4745C134.245 62.1748 134.305 66.9104 133.985 71.6203C133.831 73.9049 133.584 76.1828 133.269 78.4507C133.113 79.5753 132.937 80.6971 132.738 81.8149C132.679 82.1445 132.634 82.5095 132.574 82.8782C133.019 84.1432 133.271 85.4532 133.251 86.7577C133.191 90.6002 129.949 93.0193 126.681 94.3181C124.786 95.0712 122.804 95.5829 120.942 96.4243C118.984 97.3092 117.65 98.7437 116.311 100.38C113.757 103.501 110.874 106.307 107.583 108.647C100.605 113.609 91.7665 115.956 83.2996 114.175C81.2681 113.747 79.2187 113.084 77.3926 112.084C75.4646 111.028 74.0149 109.498 72.7975 107.689C70.537 104.331 68.916 100.55 67.6896 96.7017C66.4387 92.7766 65.5508 88.8444 65.0666 84.7516C64.584 80.672 64.4824 76.551 64.5554 72.4462V72.4462Z" fill="white"/>
<path fill-rule="evenodd" clip-rule="evenodd" d="M109.534 23.0077C103.702 22.205 95.651 24.8137 92.7461 30.0738C78.8777 26.803 61.3861 26.6959 49.9557 37.5841C38.0285 50.4999 53.0096 67.5295 62.9434 71.369C62.2202 74.8852 63.3479 97.4116 71.3272 107.46C77.6598 115.973 92.4067 119.902 99.2307 109.733L99.2839 109.65C100.015 108.475 99.3853 108.513 98.6349 109.386C91.9528 115.265 82.8675 115.365 75.8664 109.161C62.7451 97.8221 64.098 70.0188 70.3417 53.9341C88.1206 51.9807 107.156 57.3714 119.436 70.7597L118.605 75.7606C118.464 76.6126 118.303 77.4638 118.181 78.3188C118.102 78.8666 118.093 79.4114 118.473 79.8549C119.725 81.3188 121.837 79.119 123.574 78.244C124.087 78.1719 124.6 78.144 125.104 78.1795C133.451 79.255 131.806 95.4516 122.633 92.6126C121.862 92.1323 121.2 92.2789 120.901 92.9759C118.715 94.9794 117.273 98.5526 113.64 101.994C112.359 103.285 111.192 104.365 109.751 105.401C108.904 106.258 106.349 107.131 107.159 108.597C108.69 111.933 117.723 101.454 119.32 98.5567C124.324 100.533 129.869 99.8619 135.054 99.3788C162.409 97.956 158.757 69.1094 136.335 50.8971C132.114 47.7886 127.457 45.2528 122.617 43.3015C121.956 43.035 122.245 41.9495 122.915 42.2197C126.118 43.511 129.24 45.0481 132.217 46.827L132.221 45.7635C132.226 43.9721 132.197 42.1072 131.886 40.4705C131.731 39.3363 131.469 38.125 131.067 37.2137C130.569 34.4199 122.773 24.8302 109.534 23.0077ZM125.47 81.898C125.047 81.4966 124.259 81.9752 123.883 81.9633C122.921 82.0949 122.008 82.5012 121.295 83.0026C120.825 83.2662 120.495 83.5137 120.22 83.7415L120.212 83.7394C120.214 83.7394 120.217 83.7415 120.219 83.742L120.193 83.7596C119.792 84.0447 118.324 85.6505 119.251 85.2187C119.321 85.1287 119.391 85.0424 119.463 84.9577C119.47 84.9693 119.481 84.9807 119.494 84.9917L119.442 85.0691C118.653 86.2556 120.015 85.0055 120.224 84.6735C120.234 84.6815 120.245 84.6869 120.256 84.6927L119.983 85.0248C119.945 85.072 119.915 85.1096 119.89 85.1415L119.833 85.197C118.921 86.0934 118.893 86.9002 119.952 85.5748C119.91 85.6373 119.877 85.7035 119.872 85.7622L119.809 85.8422C118.978 86.9142 119.654 86.5335 120.067 86.0757L120.102 86.0363L120.095 86.047C119.71 86.6394 120.473 86.2237 120.608 85.9068L120.614 85.8925C120.761 85.7726 120.851 85.6381 120.882 85.6041L120.888 85.5984C121.603 84.8655 122.639 84.2453 123.52 83.9636C123.647 83.9393 123.776 83.9198 123.907 83.906C124.436 83.7878 124.972 83.7069 125.512 83.6631C125.579 83.6553 125.646 83.6067 125.696 83.5438C126.514 83.5163 126.261 83.1809 125.922 83.1186L125.916 83.1176L125.983 83.1119C126.508 83.0607 126.867 82.8723 126.336 82.7566L126.269 82.7433C126.277 82.7304 126.284 82.7175 126.291 82.7046C126.746 82.6546 126.449 82.2127 126.197 82.3196C126.303 81.9724 125.818 82.1457 125.757 82.0941C125.711 82.0429 125.654 81.9977 125.621 81.9952C125.474 81.892 125.545 81.9014 125.47 81.898ZM122.688 76.2768L122.795 76.3391C122.881 76.3894 122.969 76.4228 123.058 76.4425C122.933 76.4959 122.809 76.5537 122.686 76.6154C122.688 76.54 122.689 76.4647 122.689 76.3895L122.688 76.2768Z" fill="black"/>
<path fill-rule="evenodd" clip-rule="evenodd" d="M81.1033 99.1762C82.4801 99.5751 83.9578 99.6107 85.3612 99.1988C86.6341 98.8251 87.941 98.0027 88.8778 96.9145C89.7101 95.9478 90.249 94.773 90.2279 93.519C90.2255 93.3758 90.1743 93.2563 90.0955 93.1635C90.0107 93.0636 89.8923 92.995 89.7655 92.9652C89.6351 92.9346 89.4972 92.9455 89.3797 92.9988C89.2734 93.0471 89.1824 93.1292 89.1254 93.2491C88.9815 93.4383 88.838 93.6247 88.6941 93.8059C87.5365 95.2359 86.4154 96.3045 84.6748 96.6878C83.7303 96.8958 82.7871 96.8036 81.9216 96.4862C80.9951 96.1465 80.1577 95.5492 79.5014 94.7849C79.2048 94.4394 78.8547 94.2984 78.5123 94.2961C78.1243 94.2934 77.7408 94.4738 77.4519 94.762C77.1679 95.0454 76.9778 95.4304 76.9605 95.8332C76.9454 96.1867 77.0607 96.556 77.3674 96.8855C78.3775 97.9707 79.6868 98.7657 81.1033 99.1762ZM81.1454 81.2666C79.7341 82.1247 77.5838 84.1258 79.102 86.2533C80.8891 88.1292 83.4621 85.9784 84.73 85.0056C85.9057 84.2518 87.2266 86.1907 86.1358 87.071C76.9737 93.8569 73.2556 81.491 80.4316 80.2576C81.2217 80.1216 81.5152 81.0011 81.1454 81.2666ZM94.3471 77.4904C94.8007 77.2002 95.3343 77.1006 95.9257 77.3698C96.3878 77.58 97.1983 78.2808 97.7624 79.2021C98.1482 79.8324 98.4219 80.5719 98.3649 81.3421C98.3517 81.5209 98.4178 81.6528 98.522 81.7503C98.6043 81.8273 98.7231 81.8839 98.8628 81.9016C98.9813 81.9166 99.114 81.9031 99.2219 81.8694C99.4272 81.8053 99.5358 81.6721 99.5767 81.5634C99.9717 80.5141 99.8015 79.3432 99.3589 78.2869C98.7615 76.8612 97.6767 75.6671 96.966 75.2821C95.7498 74.623 94.315 74.5927 93.097 75.2641C92.0603 75.8356 91.412 76.7582 90.7672 77.6986C90.6302 77.8985 90.4941 78.0969 90.3535 78.2919C90.0718 78.6826 90.0437 79.07 90.1528 79.4022C90.2737 79.7703 90.5819 80.0809 90.9674 80.2435C91.3236 80.3937 91.7371 80.4148 92.1029 80.2605C92.412 80.1301 92.6956 79.8759 92.8751 79.4445C93.1774 78.7181 93.681 77.9166 94.3471 77.4904V77.4904ZM71.3105 79.1067C71.6212 79.2686 71.8642 79.3174 72.2088 79.2141C72.3994 79.1569 72.5877 79.0471 72.7352 78.8996C72.8813 78.7534 72.9867 78.5716 73.0277 78.3699C73.1285 77.8722 73.4008 77.4062 73.7887 77.1025C74.1203 76.8429 74.5388 76.7053 75.0031 76.7829C75.504 76.8665 75.9813 77.1879 76.31 77.5669C76.4199 77.6937 76.506 77.8377 76.5926 77.9807C76.7545 78.2482 76.912 78.4968 77.1353 78.6933C77.22 78.768 77.3476 78.8198 77.4712 78.8198C77.5214 78.8198 77.5723 78.8116 77.6209 78.7965C78.1195 78.2958 78.2154 77.9161 78.1993 77.5394C78.1825 77.1443 78.0268 76.7444 77.7752 76.3712C77.1851 75.4959 76.0646 74.7781 75.3085 74.6156C74.2731 74.393 73.2447 74.6602 72.4203 75.2388C71.5719 75.8341 70.9433 76.7583 70.7473 77.7999C70.7002 78.0508 70.7202 78.3216 70.8157 78.5563C70.909 78.7857 71.0717 78.9822 71.3105 79.1067ZM92.0638 68.1577C92.6852 68.7634 93.4206 68.8572 94.1647 68.9406C94.5781 68.9874 94.9082 69.0251 95.2329 69.0984C96.1256 69.3 97.0079 69.6036 97.8129 70.0409C98.6544 70.4979 99.5715 71.0492 100.231 71.7554C100.388 71.9234 100.536 72.0997 100.684 72.2765C100.819 72.4376 100.949 72.5927 101.086 72.7423C101.244 72.9141 101.393 73.0942 101.542 73.2738C101.634 73.4253 101.652 73.4626 101.671 73.5014C101.699 73.5597 101.731 73.625 101.768 73.695C101.819 73.7908 101.878 73.8958 101.94 73.9909C102.044 74.1648 102.099 74.2127 102.147 74.2341C102.227 74.2696 102.302 74.2871 102.376 74.2776C102.444 74.2688 102.509 74.2358 102.573 74.1817C102.892 73.9121 102.986 73.4695 102.976 72.9998C102.962 72.2869 102.699 71.4977 102.457 71.0125C101.893 69.8852 101.112 68.7132 100.173 67.8719C99.1006 66.9114 97.9277 66.1843 96.5806 65.6833C95.7435 65.3719 94.7742 65.086 93.8622 65.1221C93.2057 65.1481 92.579 65.3433 92.0614 65.8308C91.7436 66.1301 91.5911 66.5558 91.5911 66.9812C91.5911 67.415 91.7495 67.8514 92.0638 68.1577ZM70.0465 73.704C70.086 73.7688 70.1407 73.8134 70.2015 73.8402C70.2653 73.8683 70.3366 73.8764 70.4049 73.8649C70.473 73.8534 70.5376 73.8226 70.5889 73.7754C70.6381 73.7302 70.6756 73.6703 70.6923 73.5968C71.1049 71.7841 71.906 70.4354 73.6158 69.5657C74.4569 69.1379 75.4241 68.8661 76.3397 68.6493C76.6057 68.5863 76.8869 68.5455 77.17 68.5042C78.0573 68.3746 78.9511 68.2261 79.5295 67.5086C79.8781 67.0764 80.0244 66.5236 79.9417 66.0181C79.8638 65.5422 79.5858 65.1057 79.0804 64.8442C77.8221 64.1934 76.2585 64.832 74.9879 65.376C74.8936 65.4164 74.8011 65.456 74.7106 65.4942C73.468 66.0189 72.3347 66.7115 71.4032 67.702C70.664 68.4878 69.9791 69.6494 69.7033 70.8444C69.4739 71.8386 69.5278 72.8536 70.0465 73.704Z" fill="black"/>
<path fill-rule="evenodd" clip-rule="evenodd" d="M80.9401 88.5507C83.0185 87.6142 86.7507 88.4314 88.1057 88.7563C91.2557 89.512 94.4246 91.1452 95.4039 93.7038C96.5075 96.5873 94.3056 97.495 93.9817 97.3467C91.801 97.5004 89.2042 96.1291 86.9191 95.7751C85.064 95.4853 83.1071 95.2324 81.369 94.2463C80.1 94.9446 77.2339 95.3221 74.9207 95.9327C72.9507 96.4525 72.0972 97.5797 70.2709 97.34C68.082 97.0528 68.978 92.4474 71.4175 90.5816C74.0874 88.5398 78.603 87.7118 80.9401 88.5507ZM76.8247 108.243C78.6431 108.686 78.7652 104.699 78.9689 103.291C79.128 102.19 80.0256 99.3522 82.3011 99.4747C84.5767 99.5971 85.432 101.975 85.3166 103.454C85.2418 104.413 84.3584 109.27 87.178 109.885C88.9757 109.878 91.0555 109.757 92.9457 109.408C95.1704 108.904 98.0633 107.14 98.8275 110.615C99.1025 111.866 89.3024 115.582 84.9537 115.918C80.5434 116.812 75.3833 115.438 72.2433 112.062C71.5289 111.295 69.517 108.107 69.3736 107.327C69.0724 105.686 69.7698 104.63 71.799 105.208C73.2325 105.974 75.6553 107.958 76.8247 108.243Z" fill="black"/>
<path fill-rule="evenodd" clip-rule="evenodd" d="M68.0306 84.4498C70.8354 85.8012 74.7486 83.808 76.6345 81.7202C77.3209 80.96 77.8506 78.785 77.5865 77.4056C76.8713 73.6699 74.1838 71.4278 71.3466 70.6622C67.4137 69.6006 63.4557 72.2899 63.9171 75.4634C64.3546 78.4711 65.0175 82.8339 68.0306 84.4498M87.1215 77.274C87.3464 81.3451 90.6145 84.9084 94.5205 85.9642C100.814 87.7209 103.924 83.2953 105.333 78.5276C105.473 78.0538 105.802 76.6078 104.919 75.3675C101.446 70.4887 92.9961 71.3203 88.7757 72.6597C87.5403 73.8415 87.0354 75.5472 87.1215 77.274M64.983 70.2522C64.9848 70.2546 64.9871 70.2567 64.9889 70.2591C65.0033 70.2503 65.0175 70.2414 65.0323 70.2328C65.016 70.2395 64.9988 70.2453 64.983 70.2522M59.7174 70.7227C60.083 66.5777 73.0837 68.1649 74.6037 68.5046C78.7519 69.7251 82.3348 73.0456 86.9726 71.5859C91.7782 66.227 107.961 67.7638 111.353 70.4937C111.995 70.2417 112.776 70.3769 113.604 70.6147C117.852 70.4612 137.249 71.9264 133.281 77.3512C132.679 77.769 132.078 77.3439 132.061 76.4831C111.379 69.0144 113.384 76.0101 110.931 75.193C110.557 75.3009 110.166 75.3692 109.824 75.441C107.926 76.052 107.281 75.8631 107.031 77.9951C105.313 94.4574 83.3989 88.7756 85.1962 75.2723C83.4167 75.1743 81.8601 74.4046 79.9783 75.1562C78.6717 87.8767 68.4393 88.3901 65.3599 83.9805C63.0377 80.9199 63.9586 76.3012 60.7666 73.8935C59.5066 74.9483 59.4255 71.3881 59.7174 70.7227" fill="black"/>
</g>
<defs>
<clipPath id="clip0_3_1700">
<rect width="212.308" height="230" fill="white" transform="matrix(-1 0 0 1 212.308 0)"/>
</clipPath>
</defs>
</svg>
