<svg width="45" height="48" viewBox="0 0 45 48" fill="none" xmlns="http://www.w3.org/2000/svg">
<path fill-rule="evenodd" clip-rule="evenodd" d="M24.2271 31.3332H12.9392L11.2725 34.3635H29.4544V37.3938H11.2725C8.96952 37.3938 7.51497 34.9241 8.62103 32.8938L10.6665 29.1968L5.21194 17.6968H2.18164V14.6665H7.13619L13.5907 28.3029H24.2271L30.0756 17.6968L32.7271 19.1514L26.8786 29.7726C26.3635 30.712 25.3635 31.3332 24.2271 31.3332ZM11.2726 38.9089C9.60588 38.9089 8.2574 40.2726 8.2574 41.9392C8.2574 43.6059 9.60588 44.9695 11.2726 44.9695C12.9392 44.9695 14.3029 43.6059 14.3029 41.9392C14.3029 40.2726 12.9392 38.9089 11.2726 38.9089ZM26.4241 38.9089C24.7574 38.9089 23.4089 40.2726 23.4089 41.9392C23.4089 43.6059 24.7574 44.9695 26.4241 44.9695C28.0907 44.9695 29.4544 43.6059 29.4544 41.9392C29.4544 40.2726 28.0907 38.9089 26.4241 38.9089Z" fill="#011C00"/>
<circle cx="37" cy="8" r="8" fill="#F95A2C"/>
</svg>
