<svg width="30" height="32" viewBox="0 0 30 32" fill="none" xmlns="http://www.w3.org/2000/svg">
<path d="M26.25 13.5C26.25 22.25 15 29.75 15 29.75C15 29.75 3.75 22.25 3.75 13.5C3.75 10.5163 4.93526 7.65483 7.04505 5.54505C9.15483 3.43526 12.0163 2.25 15 2.25C17.9837 2.25 20.8452 3.43526 22.955 5.54505C25.0647 7.65483 26.25 10.5163 26.25 13.5Z" stroke="black" stroke-width="3" stroke-linecap="round" stroke-linejoin="round"/>
<path d="M15 17.25C17.0711 17.25 18.75 15.5711 18.75 13.5C18.75 11.4289 17.0711 9.75 15 9.75C12.9289 9.75 11.25 11.4289 11.25 13.5C11.25 15.5711 12.9289 17.25 15 17.25Z" stroke="black" stroke-width="3" stroke-linecap="round" stroke-linejoin="round"/>
</svg>
