<svg width="146" height="155" viewBox="0 0 146 155" fill="none" xmlns="http://www.w3.org/2000/svg">
<rect x="1" y="1" width="144" height="153" rx="15" fill="#FF9692" stroke="#18191F" stroke-width="2"/>
<ellipse cx="74" cy="72.5" rx="63" ry="61.5" fill="#FFF4CC"/>
<ellipse cx="74" cy="72.5" rx="63" ry="61.5" fill="#FFF4CC"/>
<g clip-path="url(#clip0_17_1264)">
<path fill-rule="evenodd" clip-rule="evenodd" d="M110.658 110.367C110.321 109.449 110.814 108.533 111.087 107.644C112.058 104.562 113.118 101.48 114.618 98.606C115.186 97.6447 114.251 96.4652 113.168 96.7363C111.314 96.9938 109.402 96.7888 107.545 96.6752C106.865 94.9326 105.052 94.2098 103.626 93.2062C102.006 92.2042 100.431 91.0533 98.7474 90.1747C98.6538 89.3447 97.6387 89.1389 97.0179 89.7327C95.3131 88.6811 93.2686 88.8764 91.4411 88.1875C90.0524 85.9618 89.9482 83.6215 89.5805 81.4743C89.4203 80.5384 89.5905 79.6353 88.9455 78.8009C86.7789 75.7793 78.2178 74.4691 75.0614 76.2597C73.3623 75.209 73.3214 77.112 73.0515 78.2864C72.7515 78.874 72.5893 79.5395 72.6394 80.2406C70.8144 84.0204 66.639 85.7292 62.8996 87.1134C62.4305 86.6658 61.7601 86.7224 61.3137 87.0928C58.0726 87.7914 54.9269 89.0195 52.2113 90.9372C49.1261 91.8319 46.9533 94.32 45.3821 96.9878C45.209 97.2691 45.1682 97.5558 45.2187 97.8192C40.3872 104.842 38.0812 113.249 37.7573 121.74C34.6503 123.589 39.2341 140.199 40.3012 143.647C40.3022 143.647 40.3033 143.646 40.3044 143.646C40.9966 144.861 41.7827 148.329 43.5151 148.06C44.7036 149.393 46.5975 149.131 48.2102 149.233C47.9475 150.232 48.0766 151.375 48.3892 152.363C48.759 153.538 50.5735 153.578 50.8308 152.296C66.891 155.39 83.3695 152.922 99.6102 153.386C104.306 153.419 109.001 153.563 113.686 153.895C114.345 153.941 115.014 153.273 114.969 152.622C113.962 141.997 113.016 128.021 111.89 117.5C111.623 115.101 111.412 112.675 110.658 110.367Z" fill="white"/>
<path fill-rule="evenodd" clip-rule="evenodd" d="M73.3164 76.9155C73.3625 76.7909 73.5502 76.8074 73.5537 76.9473C73.6277 79.9346 72.8777 83.5851 70.4669 85.603C69.2294 86.6388 67.5933 87.1128 66.0907 87.6575L65.9212 87.7195L63.2667 88.7001C62.5626 88.9601 61.8031 89.3602 61.1812 88.9928C61.6844 90.2302 62.1069 91.5017 62.7198 92.6942C63.4827 94.1788 64.4051 95.537 65.5341 96.7724C70.0066 101.666 77.085 103.159 83.437 101.725C86.7079 100.987 89.8908 99.5874 92.1223 97.0349C93.8183 95.0947 94.7927 92.4906 95.0223 89.922C94.9552 89.9327 94.8848 89.9322 94.8126 89.9165C94.0089 89.7427 93.1975 89.3155 92.4903 88.8966L92.4222 88.8561C91.7417 88.4499 91.0325 87.9845 90.5442 87.3534C90.0592 86.7267 89.5502 84.6825 89.5502 84.6825C89.4116 83.9142 89.2815 82.3836 89.3038 81.607C89.3058 81.5337 89.6337 81.4905 89.6687 81.5666C89.9716 82.2259 90.0696 83.6745 90.3035 84.3607L90.3506 84.4977C90.6003 85.2143 90.8145 86.0867 91.3322 86.666C92.3043 87.7538 93.7708 88.2143 95.0799 88.7598C95.1738 87.5304 97.1542 87.559 97.1291 88.8413C97.1277 88.9108 97.1245 88.98 97.1221 89.0493C97.2783 89.1345 97.4285 89.2318 97.5689 89.3258L97.7059 89.418C98.2244 89.7677 98.7469 90.1001 99.299 90.3967C100.368 90.9712 101.499 91.4267 102.595 91.9482C103.703 92.4758 104.739 93.1044 105.706 93.8567C106.161 94.21 106.597 94.5863 107.01 94.9861L107.122 95.0957C107.515 95.4842 108.027 95.9186 108.251 96.4291C108.301 96.5416 108.548 96.8034 108.683 96.8122C110.763 96.9474 112.84 97.1384 114.908 97.4248C115.443 97.499 115.655 97.7725 115.457 98.215C114.777 99.7354 112.115 105.807 111.407 107.437C111.489 108.634 111.378 110.044 111.452 111.241C111.561 112.988 111.704 114.735 111.875 116.478C112.487 122.711 113.415 128.915 114.254 135.121C114.673 138.227 115.056 141.337 115.434 144.449C115.624 146.021 115.786 147.595 115.911 149.174C115.963 149.832 116.01 150.49 116.051 151.149L116.087 151.733C116.137 152.468 116.25 153.17 115.791 153.802C115.583 154.088 115.108 154.249 114.834 153.924C114.491 153.515 114.363 153.21 114.33 152.673C114.305 152.261 114.299 151.849 114.28 151.437C114.239 150.545 114.188 149.654 114.128 148.763C114.008 146.981 113.871 145.201 113.712 143.423C113.156 137.187 112.099 130.999 111.396 124.779C111.042 121.644 110.79 118.502 110.657 115.349C110.59 113.775 110.566 112.2 110.582 110.624C110.588 110.036 110.616 109.45 110.656 108.865C109.603 111.238 108.496 113.587 107.338 115.906L107.064 116.455C106.33 117.921 105.577 119.392 104.695 120.773L104.543 121.009C104.186 121.57 103.698 122.455 103.047 122.632C102.593 122.755 102.038 122.668 101.573 122.659C101.111 122.651 100.649 122.649 100.188 122.63C99.6703 122.61 99.1765 122.542 98.6764 122.408C98.5933 122.386 98.5147 122.362 98.443 122.332C97.9391 123.149 97.083 123.772 96.2076 124.135C95.5064 124.425 94.7716 124.625 94.0355 124.809L93.7757 124.874C92.9865 125.068 92.0838 125.161 91.6387 125.917L91.5353 126.092C91.2045 126.649 90.887 127.139 90.3394 127.538C89.7499 127.969 89.0515 128.239 88.3558 128.45C87.6435 128.666 86.9145 128.831 86.1912 129.007L85.9941 129.056C85.5166 129.174 85.0348 129.283 84.5602 129.412C84.3577 129.467 84.1516 129.524 83.953 129.591C83.7203 129.671 83.5513 129.794 83.3678 129.929C83.2028 130.5 82.4978 130.811 81.918 130.771C81.6136 130.75 81.3405 130.648 81.092 130.497C80.6582 130.864 80.1806 131.192 79.7385 131.531C79.1193 132.006 78.4977 132.477 77.8727 132.945C76.584 133.908 75.2855 134.858 73.9734 135.79C71.6446 137.444 69.2654 139.022 66.8455 140.541C65.8365 141.175 64.8208 141.807 63.795 142.425L63.9045 142.465L64.1216 142.546C64.6349 142.736 65.2067 143.043 65.3062 143.637C65.385 144.108 65.1197 144.432 64.6509 144.49C64.0936 144.558 63.6599 144.168 63.3129 143.795C63.1598 143.631 62.9884 143.478 62.8417 143.309C62.7819 143.24 62.7359 143.16 62.6954 143.077C61.6832 143.668 60.6601 144.24 59.6209 144.774L59.3607 144.907C56.7836 146.214 54.2752 147.645 51.6761 148.915C50.9981 149.246 50.1715 149.604 49.3099 149.849C49.5385 150.728 49.535 151.692 49.5408 152.584C49.5463 153.453 48.1533 153.449 48.1827 152.584L48.1969 152.166C48.2222 151.464 48.2637 150.735 48.4317 150.051C45.8931 150.469 43.357 149.562 42.8848 149.289C42.3636 148.989 41.8906 148.508 41.4968 148.062C40.6543 147.107 40.0697 145.962 39.551 144.811C38.4399 142.345 37.6527 139.709 37.0771 137.073C34.9553 127.354 35.868 116.952 39.3137 107.636C40.1746 105.308 41.191 103.032 42.3557 100.838L42.5003 100.567C43.6625 98.3972 44.9543 96.2359 46.5951 94.3895C48.3041 92.4664 50.4124 90.9708 52.7079 89.8099C53.8281 89.2434 54.9807 88.7523 56.1589 88.3172C56.3481 88.2473 56.5386 88.1846 56.7296 88.1248C57.9573 87.3487 59.4473 86.6063 60.9378 86.6355C61.0391 86.6373 61.1211 86.6754 61.1823 86.7328C61.2542 86.7453 61.326 86.7604 61.398 86.7811C61.5568 86.8268 61.7246 86.9994 61.7018 87.1768L61.6941 87.2357C61.6899 87.2646 61.6846 87.2924 61.6755 87.3196C61.7288 87.3274 61.7811 87.34 61.8323 87.3574C63.2584 86.958 64.6615 86.3473 66.0531 85.8547L66.37 85.7437C67.5356 85.3387 68.7313 84.9418 69.6874 84.1402C70.6386 83.3429 71.3539 82.31 71.871 81.1935C72.508 79.8179 72.7933 78.3277 73.3164 76.9155ZM101.868 149.468C102.151 149.26 102.484 149.501 102.59 149.759C102.937 150.605 102.766 151.92 102.277 152.668C101.77 153.443 100.557 153.137 100.528 152.198C100.497 151.219 101.071 150.056 101.868 149.468ZM104.785 126.106C104.81 125.996 104.983 125.997 105.008 126.106C105.243 127.099 105.238 128.168 105.307 129.186L105.315 129.298C105.398 130.421 105.467 131.547 105.517 132.671C105.614 134.883 105.731 137.096 105.861 139.306C105.926 140.402 105.995 141.498 106.069 142.594C106.301 142.466 106.54 142.354 106.787 142.254C107.158 142.106 107.519 142.089 107.917 142.093C108.402 142.098 108.768 142.521 108.703 142.992C108.633 143.505 108.178 143.725 107.705 143.652C107.18 143.571 106.654 143.445 106.125 143.392C106.184 144.24 106.245 145.087 106.309 145.933C106.395 147.054 106.507 148.173 106.585 149.294C106.592 149.401 106.601 149.508 106.609 149.616C106.924 149.453 107.259 149.37 107.639 149.267L107.738 149.24C108.289 149.083 108.879 148.866 109.389 149.233C109.732 149.481 109.801 149.887 109.517 150.213C109.086 150.708 108.448 150.612 107.853 150.587L107.533 150.575C107.231 150.563 106.953 150.544 106.674 150.469C106.725 151.199 106.752 151.932 106.662 152.652C106.613 153.041 106.097 153.143 105.96 152.746C105.603 151.709 105.529 150.591 105.398 149.504C105.276 148.49 105.202 147.468 105.122 146.449L105.098 146.143C104.918 143.901 104.774 141.658 104.669 139.412C104.564 137.165 104.501 134.919 104.476 132.671C104.464 131.65 104.482 130.625 104.522 129.605L104.535 129.298C104.581 128.249 104.549 127.135 104.785 126.106ZM57.5931 149.633C57.6069 149.49 57.7228 149.312 57.8951 149.334C58.054 149.354 58.2176 149.345 58.3748 149.371C58.5821 149.405 58.749 149.526 58.9419 149.603C59.2554 149.727 59.5971 149.791 59.9188 149.893C60.5222 150.084 60.8511 150.714 60.6011 151.302C60.3384 151.92 59.678 152.061 59.1074 151.801C58.6576 151.597 58.3224 151.27 58.02 150.891L57.9343 150.784C57.804 150.621 57.6561 150.44 57.6014 150.243C57.5482 150.051 57.5744 149.829 57.5931 149.633ZM86.9116 146.726C87.6632 146.621 88.3052 146.876 89.0007 147.116L89.0572 147.136C89.765 147.378 90.7978 147.546 91.1606 148.264C91.3795 148.697 91.2095 149.273 90.6944 149.401C89.8787 149.604 89.1473 149.012 88.4728 148.614L88.4373 148.594C87.7863 148.216 87.1143 147.898 86.6986 147.245C86.5877 147.071 86.6839 146.758 86.9116 146.726ZM60.6731 87.4559C60.372 87.5227 60.0709 87.5818 59.7701 87.6387C58.6258 88.2469 57.5151 88.8779 56.3337 89.4197C55.0802 89.9947 53.8313 90.5884 52.6406 91.2839C50.2351 92.689 48.252 94.5159 46.6134 96.7553C43.7829 100.623 41.6774 105.084 40.1706 109.611C39.7834 110.773 39.437 111.949 39.1305 113.135C39.6724 112.638 40.314 112.333 41.0334 112.071C41.3383 111.96 41.7178 112.148 41.8724 112.41C41.9418 112.527 41.981 112.643 41.9739 112.781C41.9578 113.086 41.7581 113.431 41.4284 113.492C40.6598 113.632 39.9124 113.906 39.1713 114.146C39.059 114.183 38.9624 114.169 38.8853 114.126C38.1495 117.216 37.6892 120.37 37.5262 123.543C37.3883 126.229 37.4734 128.936 37.7734 131.618C38.004 131.516 38.2295 131.419 38.4824 131.361C38.8102 131.285 39.1327 131.193 39.4526 131.089C40.3755 130.789 40.7965 132.3 39.8531 132.53C39.5021 132.616 39.1488 132.687 38.7911 132.739C38.4793 132.784 38.2036 132.764 37.9096 132.717C38.1342 134.39 38.4409 136.052 38.8316 137.689L38.9178 138.048C39.4253 140.139 40.0168 142.251 40.8722 144.227C41.2918 145.197 41.8473 146.118 42.5333 146.926C42.8703 147.324 43.2443 147.665 43.6522 147.987C43.9918 148.256 45.1461 148.839 46.5132 148.839C47.8803 148.839 48.2504 148.711 48.9401 148.476C50.3041 148.01 51.5992 147.267 52.8784 146.605L53.0107 146.537C53.5763 146.247 54.1398 145.952 54.7018 145.655C54.6308 145.087 54.7551 144.61 55.0536 144.085C55.3763 143.518 56.176 143.8 56.2354 144.381L56.2373 144.403C56.2463 144.534 56.2685 144.667 56.296 144.8C60.0538 142.759 63.7321 140.575 67.3518 138.299C69.6834 136.833 71.9903 135.324 74.2634 133.77C75.3997 132.993 76.5262 132.202 77.6415 131.396C78.2257 130.973 78.8072 130.547 79.3861 130.118C79.6272 129.939 79.8637 129.751 80.1053 129.571C80.0466 129.499 79.9893 129.426 79.9339 129.354C79.0316 128.182 78.4462 126.786 78.1545 125.346C77.9784 124.477 77.8933 123.574 77.8674 122.688L77.856 122.303C77.8382 121.654 77.8335 120.974 77.9542 120.345C77.79 120.435 77.6222 120.522 77.455 120.616C76.855 120.953 76.2545 121.29 75.6529 121.624C74.4484 122.294 73.2403 122.956 72.0169 123.592C69.8316 124.727 67.6249 125.807 65.3585 126.775L64.2558 127.246C62.3419 128.062 60.4124 128.864 58.4225 129.471C57.3001 129.813 56.1692 130.105 55.0308 130.366L55.4912 130.901C55.8033 131.264 55.8088 131.784 55.4099 132.089C55.0176 132.389 54.4914 132.264 54.2301 131.866L53.7538 131.139C53.652 130.984 53.5942 130.839 53.5615 130.685C53.0371 130.794 52.5113 130.899 51.984 131L50.9873 131.188C49.5641 131.461 48.1842 132 46.9121 132.69C46.4698 132.93 46.3466 132.464 46.8152 132.139C48.1853 131.19 49.7834 130.652 51.4324 130.201L51.5134 130.179C52.1183 130.015 52.7222 129.844 53.3248 129.666C53.2585 129.428 53.2203 129.182 53.2279 128.91C53.2449 128.304 53.2989 127.696 53.3313 127.091C53.3994 125.82 53.4863 124.554 53.5881 123.285C53.6272 122.797 53.671 122.307 53.7212 121.817C53.3981 121.645 53.1194 121.417 52.7591 121.305L52.6983 121.288C52.3129 121.185 52.443 120.692 52.7852 120.65C53.0953 120.612 53.4038 120.63 53.7095 120.695C53.7568 120.705 53.8016 120.716 53.8444 120.729C53.9005 120.276 53.9628 119.824 54.0336 119.374C54.2208 118.186 54.3532 116.934 54.7428 115.792C54.7717 115.708 54.8983 115.677 54.9453 115.766C55.5121 116.835 55.5318 118.147 55.5957 119.337L55.6036 119.48C55.6789 120.779 55.6832 122.09 55.6589 123.391C55.634 124.731 55.5877 126.068 55.527 127.408C55.5026 127.947 55.5036 128.506 55.4109 129.022C58.784 127.935 62.0974 126.634 65.2734 125.093C67.5137 124.006 69.7348 122.875 71.9304 121.702C73.0306 121.115 74.1359 120.536 75.2349 119.947C75.6199 119.74 76.0047 119.533 76.3893 119.325L76.9661 119.013C77.5058 118.721 77.9563 118.43 78.585 118.41C78.7724 118.404 78.9405 118.491 79.0598 118.622C79.3977 118.385 79.7882 118.239 80.198 118.242C80.8149 117.398 81.4412 116.56 82.0924 115.74L82.5735 115.133C83.4063 114.086 84.2884 113.023 85.3502 112.226C85.8242 111.87 86.3454 111.604 86.8891 111.383C86.7612 111.352 86.636 111.29 86.5244 111.187C86.0051 110.71 85.9336 109.823 85.8281 109.157C85.7187 108.466 85.761 107.848 85.869 107.159C85.911 106.892 86.358 106.836 86.4671 107.082C86.697 107.6 86.9405 108.097 87.1498 108.621L87.2115 108.779C87.436 109.369 87.9144 109.989 87.8828 110.629C87.8742 110.805 87.8149 110.957 87.7234 111.08C88.1797 110.93 88.6426 110.796 89.0984 110.656C90.5329 110.217 91.9728 109.79 93.4349 109.449C93.8241 109.358 94.2152 109.274 94.6079 109.197C94.8137 108.228 95.1136 107.277 95.4671 106.344C95.1323 106.174 94.9156 105.889 94.6274 105.635C94.3576 105.398 94.1722 105.108 93.9421 104.836C93.7326 104.588 93.8503 104.14 94.2268 104.154L94.3335 104.159C94.7235 104.177 95.1014 104.217 95.4551 104.397L95.5811 104.461C95.7539 104.55 95.9431 104.652 96.1116 104.773C96.3318 104.27 96.5609 103.773 96.7924 103.28L97.0928 102.643C97.8716 100.985 98.6483 99.2633 99.6262 97.7192C100.061 97.0328 100.639 96.6042 101.47 96.5378C102.325 96.4696 103.214 96.5577 104.07 96.5881C105.063 96.6233 106.055 96.6651 107.047 96.7167C106.793 96.4527 106.561 96.1588 106.305 95.9055C105.882 95.4854 105.434 95.0871 104.963 94.719C104.032 93.9905 103.008 93.3902 101.944 92.8733C100.88 92.3563 99.7848 91.9056 98.786 91.2669C98.154 90.8627 97.5891 90.3542 97.0737 89.8038C96.7493 93.2743 95.0592 96.4985 92.5202 98.9209C89.883 101.437 86.2387 102.819 82.6736 103.407C79.0373 104.007 75.2421 103.786 71.7634 102.533C69.9698 101.887 68.2496 100.964 66.7155 99.8056C66.6986 99.9063 66.6783 100.006 66.6385 100.1C66.585 100.225 66.5196 100.332 66.4446 100.443L66.3109 100.637C66.2265 100.759 66.1405 100.88 66.0448 100.993C65.8129 101.266 65.4844 101.386 65.1305 101.385C64.453 101.383 63.9399 100.724 64.1222 100.073C64.2368 99.6631 64.482 99.4167 64.8647 99.2565C64.9857 99.2058 65.109 99.1633 65.233 99.1215L65.3261 99.0902C65.4514 99.0477 65.5758 99.0072 65.7048 98.9836C64.9784 98.3479 64.3044 97.6566 63.7008 96.9105C61.8078 94.5709 59.9406 91.2941 60.5735 88.1869C60.5844 88.1336 60.6329 88.1 60.6851 88.0915C60.7218 87.8734 60.8389 87.6625 60.9992 87.5206C60.8913 87.4925 60.7825 87.4708 60.6731 87.4559ZM80.3304 141.179C80.7054 140.972 81.0926 141.463 80.7879 141.766L80.3331 142.218C79.9109 142.638 79.5 143.064 79.1386 143.543L79.0511 143.66C78.5633 144.318 78.0431 145.081 77.2438 145.327C76.2771 145.624 75.348 144.456 75.9078 143.603C76.3969 142.858 77.3387 142.577 78.1506 142.269C78.9186 141.977 79.6124 141.574 80.3304 141.179ZM49.1429 137.739C49.3632 137.453 49.9375 137.603 49.7871 138.008C49.2983 139.322 49.0991 141.113 47.8647 141.986C47.4665 142.268 46.8409 142.138 46.513 141.813C46.1405 141.444 46.1256 140.924 46.3386 140.473C46.5985 139.923 47.2376 139.525 47.6857 139.106L47.7258 139.068C48.2078 138.604 48.7291 138.276 49.1429 137.739ZM100.734 139.251C101.127 139.083 102.152 138.756 102.455 139.143C102.47 139.157 102.482 139.172 102.492 139.189C102.566 139.318 102.577 139.499 102.492 139.626C102.138 140.153 101.769 140.547 101.266 140.922L101.21 140.964C100.662 141.363 100.147 141.832 99.48 142.012C98.555 142.262 97.9089 141.113 98.5585 140.443C99.0819 139.903 99.8809 139.622 100.574 139.321L100.734 139.251ZM63.5878 131.743C63.4331 131.466 63.7492 131.126 64.0355 131.299C64.8523 131.794 65.8037 132.166 66.7211 132.433C67.0923 132.541 67.4273 132.914 67.3997 133.316L67.3954 133.377C67.3844 133.519 67.3646 133.661 67.2735 133.779C66.954 134.193 66.4969 134.353 66.0088 134.108C64.921 133.561 64.1764 132.798 63.5878 131.743ZM87.4592 130.904C87.4393 130.787 87.5253 130.697 87.6448 130.72C88.3351 130.849 88.9726 131.18 89.5653 131.56C89.8832 131.764 90.1898 131.987 90.5069 132.193C90.8987 132.447 91.0454 132.657 91.1033 133.124C91.1415 133.431 90.8516 133.713 90.5858 133.798C89.8614 134.029 89.0314 133.269 88.5406 132.775L88.5185 132.753C88.0047 132.234 87.581 131.62 87.4592 130.904ZM108.19 130.097C108.032 129.676 108.575 129.326 108.929 129.533C109.263 129.728 109.625 129.89 109.94 130.113C110.23 130.318 110.494 130.561 110.771 130.784L110.908 130.891C111.417 131.297 112.258 132.301 111.53 132.883C110.837 133.437 109.919 132.729 109.454 132.212L109.421 132.175C109.154 131.869 108.824 131.536 108.63 131.178C108.447 130.841 108.323 130.455 108.19 130.097ZM101.358 97.4854C100.491 97.6524 100.137 98.7143 99.7715 99.4065C98.9092 101.04 98.1162 102.703 97.3198 104.369C97.0746 104.881 96.8359 105.398 96.595 105.913C96.5803 105.953 96.5614 105.993 96.5392 106.032C96.0457 107.086 95.5375 108.132 94.9435 109.132C95.4871 109.031 96.0335 108.945 96.582 108.878C96.5543 108.366 96.9079 107.68 97.0829 107.249L97.0974 107.213C97.3155 106.66 97.5442 105.79 98.1056 105.504C98.2927 105.408 98.4928 105.528 98.5072 105.732C98.5497 106.34 97.9499 107.036 97.6567 107.552C97.4794 107.864 97.3066 108.178 97.1382 108.495C97.0751 108.613 97.0223 108.73 96.9576 108.835C97.2404 108.804 97.5236 108.777 97.8076 108.758L97.9926 108.745C99.0453 108.676 100.163 108.656 101.114 109.171C101.997 109.649 102.448 110.668 101.963 111.596C101.359 112.752 100.029 112.905 98.8597 112.999C97.399 113.116 95.9349 113.327 94.4844 113.532C92.9841 113.745 91.5713 114.294 90.0933 114.575C89.9559 114.602 89.8703 114.423 89.9964 114.347C91.1622 113.644 92.5795 113.256 93.8829 112.862L93.9883 112.83C94.6953 112.615 95.3863 112.369 96.1176 112.247C96.8276 112.128 97.542 112.032 98.2581 111.959L98.3277 111.953C99.1161 111.887 101.128 111.909 101.043 110.752C100.986 109.986 99.7304 109.854 99.1571 109.844C96.5287 109.803 93.8815 110.494 91.3836 111.236L90.8259 111.401C89.8031 111.707 88.7788 112.02 87.7752 112.378C86.6379 112.783 85.7419 113.416 84.9136 114.281C83.9952 115.24 83.1056 116.22 82.1528 117.147C81.5522 117.731 80.9438 118.305 80.3304 118.875C80.1919 119.052 80.0811 119.246 80.0043 119.497C79.8746 119.921 79.9044 120.315 79.9534 120.751C80.0769 121.85 80.1042 122.962 80.2589 124.058C80.4024 125.074 80.603 126.127 81.0284 127.069C81.1968 127.443 81.4161 127.809 81.6657 128.137L81.8672 128.397C81.9551 128.509 82.0533 128.633 82.1565 128.749C82.3079 128.566 82.527 128.447 82.7816 128.477C83.3228 128.54 83.7482 128.525 84.279 128.401C84.6899 128.306 85.0976 128.194 85.5066 128.091C86.3098 127.888 87.1206 127.703 87.9156 127.469L88.0523 127.429C88.6448 127.248 89.2374 127.023 89.7306 126.643C90.3035 126.203 90.4798 125.567 90.9042 125.017C91.8104 123.843 93.7686 123.868 95.0945 123.546C96.2213 123.273 97.3057 122.842 98.0854 122.031L98.1309 121.983C98.0964 121.838 98.1524 121.675 98.288 121.6L98.3175 121.584C98.3703 121.554 98.4273 121.542 98.4831 121.543C98.5555 121.438 98.6253 121.329 98.6888 121.213C98.741 121.118 98.8714 121.188 98.8544 121.282C98.8442 121.339 98.83 121.394 98.8166 121.449C99.5719 121.256 100.401 121.293 101.168 121.293L102.164 121.29C102.336 121.288 102.593 121.279 102.615 121.269L102.639 121.259C102.701 121.232 102.613 121.276 102.656 121.219C102.704 121.156 102.751 121.092 102.797 121.028C102.962 120.799 103.118 120.564 103.271 120.326C101.604 120.747 99.8777 121.009 98.176 121.227C96.3503 121.462 94.5005 121.624 92.6585 121.626C92.1507 121.626 92.1553 120.866 92.6585 120.847C94.609 120.774 96.5493 120.671 98.4867 120.423C99.4885 120.295 100.486 120.134 101.478 119.946C101.861 119.873 102.243 119.796 102.625 119.715L102.91 119.653C103.09 119.614 103.596 119.557 103.843 119.393C103.892 119.31 103.94 119.228 103.988 119.145C103.965 118.855 103.221 118.894 103.046 118.893C102.552 118.892 102.057 118.896 101.562 118.897C100.573 118.9 99.584 118.892 98.5947 118.884C96.6182 118.868 94.6342 118.8 92.6593 118.883C92.1799 118.903 91.9281 118.141 92.4019 117.941C94.4937 117.055 96.8158 116.863 99.0494 116.59C100.224 116.447 101.399 116.282 102.547 115.992L102.831 115.921C103.553 115.737 104.349 115.514 104.957 115.077C104.044 114.711 102.909 114.753 101.963 114.701L101.89 114.697C100.565 114.616 99.2374 114.575 97.9098 114.573C95.1934 114.569 92.4761 114.664 89.7627 114.792C89.6946 114.795 89.6805 114.689 89.7467 114.674C92.5356 114.071 95.3701 113.78 98.2242 113.736C99.5534 113.715 100.883 113.733 102.211 113.792L102.699 113.814C103.831 113.862 105.087 113.875 106.035 114.553C106.179 114.657 106.255 114.789 106.267 114.928C107.538 112.417 108.711 109.853 109.89 107.306C110.806 105.326 111.687 103.329 112.637 101.364L112.944 100.729C113.356 99.8806 113.777 99.0324 114.245 98.215C112.495 97.9829 110.734 97.8218 108.973 97.6985C107.368 97.586 102.131 97.3369 101.358 97.4854ZM100.583 124.703C100.783 124.593 101.089 124.683 101.138 124.927C101.174 125.109 101.237 125.311 101.237 125.496C101.237 125.719 101.157 125.961 101.114 126.179C101.015 126.68 100.894 127.088 100.637 127.534C100.476 127.813 100.152 128.003 99.8253 127.995C99.5669 127.99 99.338 127.921 99.1607 127.722C98.9482 127.485 98.8024 127.136 98.9189 126.816C99.2241 125.978 99.7852 125.143 100.583 124.703ZM58.2377 123.867C58.7049 123.056 59.8122 122.331 60.7785 122.403C62.2295 122.51 62.5256 124.447 61.1208 124.91C60.2811 125.186 59.1259 124.902 58.3913 124.448C58.1932 124.325 58.1206 124.07 58.2377 123.867ZM43.3251 121.095C43.219 120.942 43.3944 120.768 43.5525 120.802C43.9031 120.878 44.2812 120.912 44.6246 121.016C44.9763 121.122 45.3168 121.297 45.6652 121.419C46.395 121.672 47.1746 121.799 47.8809 122.105C48.1633 122.228 48.3853 122.633 48.3592 122.932L48.3526 123.002C48.337 123.15 48.311 123.28 48.2274 123.415C48.0026 123.779 47.5572 123.967 47.1369 123.855C46.3571 123.648 45.5951 123.114 44.9303 122.671L44.8074 122.59C44.5169 122.4 44.2046 122.202 43.9705 121.957C43.7261 121.702 43.5253 121.384 43.3251 121.095ZM70.1304 118.145C70.0406 117.824 70.4428 117.612 70.6772 117.829C71.1457 118.262 71.6355 118.663 72.0943 119.107L72.1251 119.137C72.4536 119.464 72.9316 120.095 72.5043 120.519C71.9568 121.062 71.1944 120.256 70.9007 119.836C70.5281 119.304 70.3047 118.767 70.1304 118.145ZM105.979 115.494C105.284 116.224 104.213 116.56 103.271 116.838C102.153 117.167 101.001 117.364 99.8484 117.526C98.7344 117.682 97.629 117.822 96.5328 118.002C97.3621 118.012 98.1912 118.018 99.0186 118.033C99.9728 118.05 100.926 118.07 101.88 118.098C102.575 118.118 103.39 118.023 104.05 118.279C104.169 118.325 104.281 118.389 104.378 118.467C104.933 117.488 105.465 116.496 105.979 115.494ZM63.1137 108.669C63.8391 108.441 64.5211 108.138 65.2901 108.216C65.4944 108.237 65.6408 108.434 65.5292 108.629C65.1648 109.265 64.5723 109.624 63.989 110.049L63.9375 110.087C63.2991 110.558 62.6136 110.987 61.9193 111.374C60.7239 112.039 59.6526 110.135 60.8598 109.576C61.5862 109.24 62.3493 108.91 63.1137 108.669ZM76.1728 107.016C77.2825 107.089 78.3915 107.138 79.5027 107.183C80.7897 107.234 80.357 109.198 79.2819 108.801C78.2197 108.408 77.1575 108.02 76.0858 107.654C75.7595 107.542 75.7858 107.011 76.1521 107.016L76.1728 107.016ZM47.7105 103.523C47.9981 103.503 48.2882 103.565 48.5762 103.593L48.8827 103.622C49.5145 103.685 50.1069 103.762 50.7094 104.016C51.8211 104.487 51.224 106.259 50.108 106.218C49.2831 106.188 48.5777 105.837 47.8812 105.428C47.2722 105.071 46.8989 104.623 46.4877 104.062C46.3516 103.876 46.5413 103.668 46.7268 103.649C47.0535 103.616 47.3837 103.546 47.7105 103.523ZM103.439 99.9041C103.255 101.042 102.799 102.109 102.111 103.038C101.765 103.505 101.158 103.522 100.815 103.038C100.33 102.353 100.629 101.568 100.994 100.909L101.103 100.717C101.266 100.428 101.517 100.006 101.804 99.7151L101.809 99.6852C101.963 98.4935 103.629 98.7314 103.439 99.9041ZM58.5556 92.5992C58.8322 92.3521 59.3417 92.4264 59.4315 92.8285C59.5571 93.3916 59.6336 94.026 59.5513 94.5977C59.5068 94.9074 59.49 95.2553 59.3672 95.544C59.2351 95.8544 58.981 96.0932 58.7416 96.3266C58.2637 96.7926 57.2562 96.6385 57.1282 95.9043L57.1119 95.8142C57.0476 95.4668 56.9652 95.0955 57.0605 94.7511C57.1325 94.4913 57.2934 94.2263 57.4264 93.9853L57.4545 93.934C57.721 93.4418 58.1365 92.9732 58.5556 92.5992ZM97.4421 93.7972L97.5421 93.7983C98.3143 93.8134 99.7261 93.9998 99.7336 94.9459C99.7354 95.1689 99.5688 95.4 99.3455 95.4513C98.884 95.5573 98.5856 95.287 98.2567 95.0137C97.9876 94.7903 97.674 94.6119 97.3483 94.4835C96.9965 94.3448 97.0195 93.7966 97.4421 93.7972Z" fill="black"/>
<path fill-rule="evenodd" clip-rule="evenodd" d="M98.7756 56.9251C98.3769 53.7708 97.1247 50.4219 95.8077 47.4812C92.8464 41.2638 86.067 40.4078 79.9894 39.1259C73.9921 38.2601 67.6413 37.4784 61.7344 39.2057C58.4137 40.0124 57.1167 43.9339 57.6407 47.0286C57.9398 48.9569 58.8251 50.782 59.58 52.5692C61.0804 56.2395 62.0323 60.1688 62.0339 64.1425C61.9309 66.7393 61.5613 69.7033 64.5709 70.8032C67.4348 72.2153 67.6767 76.0434 71.2627 78.2153C72.7128 81.1276 76.6626 81.3839 79.5055 82.0595C81.3023 82.4005 83.1194 82.6515 84.9415 82.8135C90.2173 83.4839 94.4379 81.968 97.1997 77.3079C99.0478 74.4718 100.424 71.1971 100.084 67.7599C99.7455 64.1403 99.1813 60.5398 98.7756 56.9251Z" fill="white"/>
<path fill-rule="evenodd" clip-rule="evenodd" d="M80.035 31.5697C80.3361 31.2312 80.8 31.3473 81.0816 31.6149C81.265 31.6685 81.4426 31.7481 81.6103 31.8536C81.9894 31.8053 82.3869 31.8053 82.7587 31.8188C82.8489 31.7687 82.9456 31.7241 83.0508 31.6857C83.8026 31.4132 84.4683 31.5517 85.0174 31.9165C85.2819 31.6684 85.6156 31.5127 86.0422 31.5362C86.4229 31.5573 86.6942 31.7349 86.9267 31.9689C87.1585 31.6374 87.5333 31.4009 88.0003 31.368C88.6529 31.322 89.2803 31.5815 89.8003 31.9833C90.1033 31.6387 90.5163 31.4406 90.9766 31.4387C91.2795 31.3842 91.5991 31.4057 91.8879 31.4921C92.3071 31.6177 92.6753 31.8529 92.9685 32.1582C93.4323 31.7178 94.0001 31.4009 94.6548 31.4471C95.5021 31.5078 96.2045 32.1255 96.531 32.8858C97.1044 33.1136 97.6339 33.4385 98.0764 33.9017C98.1 33.9261 98.1225 33.9517 98.1462 33.9773C98.3846 34.0646 98.609 34.1882 98.8066 34.351C99.4327 34.8676 99.5724 35.6151 99.3651 36.3477C99.3941 36.4649 99.4188 36.5842 99.4413 36.7033C100.028 36.7917 100.56 37.1273 100.863 37.6735C101.278 38.4232 101.196 39.4113 100.747 40.127C100.554 40.4349 100.309 40.6943 100.034 40.9211C100.345 41.6218 100.196 42.4579 99.6944 43.0247C99.5721 43.2201 99.4221 43.3964 99.2533 43.5561C99.4396 44.2805 99.1082 45.0279 98.4467 45.415L98.3901 45.5554C98.3806 45.5788 98.3709 45.602 98.361 45.625C98.3536 45.6548 98.3446 45.6837 98.3357 45.7128C98.3199 45.9698 98.2345 46.2221 98.0651 46.4598C97.7181 46.9469 97.2881 47.2645 97.0601 47.8331L97.0372 47.8929C96.9392 48.162 96.6226 48.3518 96.3528 48.2688C97.8506 51.3187 98.6359 54.7124 99.175 58.0382C99.4438 59.6974 99.6513 61.3624 99.8195 63.0337L99.9845 64.698C100.13 66.1774 100.259 67.6617 100.26 69.146C100.262 72.5037 99.2931 75.7333 97.214 78.4052C95.2476 80.931 92.465 82.7615 89.3216 83.4825C86.0761 84.2257 82.269 83.9329 79.3586 82.2312C78.5005 81.7308 79.2523 80.5274 80.1254 80.9301C81.7782 81.6925 83.4578 82.259 85.29 82.3857C87.076 82.5102 88.8662 82.2887 90.5598 81.7094C93.3617 80.7501 95.7459 78.7407 97.2784 76.2382C98.0334 75.005 98.58 73.6665 98.8711 72.2522C99.2334 70.4896 99.1788 68.6676 99.0457 66.8824L99.0365 66.7608C98.7733 63.3211 98.4265 59.8602 97.8659 56.4548C97.3703 53.4435 96.6084 50.4931 95.6192 47.608C95.2317 47.2698 94.7983 46.99 94.3344 46.7774C90.9379 46.6368 87.5352 46.6779 84.143 46.9102C81.25 47.1097 78.3711 47.4471 75.5138 47.939L75.2078 47.9922C74.5752 48.1039 73.8729 48.1678 73.2769 48.4203C72.7657 48.6376 72.5584 49.055 72.4295 49.5682C72.1052 50.8662 72.0558 52.2869 72.001 53.618C71.9473 54.9192 72.0687 56.2312 71.9634 57.5281C71.8743 58.6132 71.594 59.7239 70.7832 60.5088C70.3589 60.9198 69.837 61.1445 69.3473 61.4565C69.0305 61.6578 68.8962 61.8654 68.937 62.2381C69.0251 63.0538 69.6877 64.0814 68.9435 64.78C68.8125 64.9024 68.5859 64.9184 68.457 64.78C68.1498 64.4489 67.7256 64.1964 67.3616 63.9291C67.2091 63.8185 67.3358 63.6034 67.5087 63.6799C67.7364 63.7812 67.9683 63.9005 68.2057 64.0048C67.6816 63.5768 66.9363 63.3669 66.3156 63.2423C66.003 63.1805 65.6744 63.1624 65.349 63.1913C65.1084 63.3051 64.8625 63.4106 64.6166 63.5138C64.3041 63.6438 63.9883 63.7619 63.6704 63.8739C62.5675 64.7651 62.0413 66.2145 62.2711 67.6318C62.3967 68.4144 62.7608 69.2654 63.447 69.7222C64.26 70.2631 65.349 70.0309 66.2275 70.4325C67.0501 70.8083 67.5506 71.5676 67.9254 72.3535L68.0816 72.6807C68.4295 73.4051 68.7871 74.1103 69.2625 74.7696C69.8123 75.5331 70.4857 76.2189 71.2202 76.8079C71.5766 77.0929 71.9565 77.3493 72.349 77.5828L72.4564 77.646C72.8537 77.877 73.1383 78.0974 73.1652 78.5861C73.1738 78.7565 73.0653 78.912 72.9257 79.0004C72.3243 79.3784 71.7261 78.9056 71.2256 78.5755C70.6854 78.2198 70.1689 77.8195 69.691 77.3829C68.7824 76.5545 67.9963 75.5705 67.3916 74.5023C66.9309 73.6889 66.6689 72.5441 65.9407 71.9137C65.4961 71.5292 64.8679 71.5261 64.3126 71.4557C63.7961 71.3898 63.3074 71.2833 62.8478 71.0309C60.9781 70.0012 60.4497 67.5083 60.8932 65.5819C60.9684 65.257 61.0736 64.9408 61.2036 64.6362C60.5077 64.7512 59.7258 64.0379 60.0083 63.3179C60.0298 63.2636 60.0545 63.2126 60.0781 63.1603C59.6195 62.8611 59.2576 62.4075 59.0858 61.8143C58.9977 61.5076 58.9848 61.1977 59.031 60.8985C58.8087 60.7506 58.625 60.5471 58.5069 60.2968C58.1375 60.1275 57.8099 59.8742 57.6145 59.5121C57.3438 59.0126 57.3782 58.5526 57.5844 58.1383C57.5554 58.0862 57.5275 58.033 57.5006 57.9786C56.7435 57.5027 56.2151 56.6826 56.2753 55.7732C56.2946 55.4719 56.3698 55.2003 56.4857 54.9555C56.4761 54.9246 56.4664 54.8926 56.4578 54.8617C55.8242 54.5422 55.3001 54.0173 55.1132 53.3166C54.9264 52.6116 55.1465 51.9088 55.5869 51.3678C54.9425 50.9004 54.5548 50.2477 54.79 49.2604C54.8856 48.8591 55.0778 48.4937 55.3377 48.1859C55.3366 48.1765 55.3345 48.1669 55.3323 48.1572L55.272 48.1108C54.4766 47.4884 54.0193 46.6952 54.5075 45.7197C54.7266 45.2811 55.0391 44.9753 55.4064 44.7741L55.4247 44.7166V44.7166C55.1616 44.1575 55.0724 43.5367 55.2539 42.8839C55.4021 42.3462 55.7533 41.9181 56.2022 41.6338C56.1722 41.3931 56.1764 41.1365 56.2248 40.8585C56.3053 40.389 56.5405 39.979 56.8842 39.6883C56.8971 39.6264 56.9132 39.5658 56.9314 39.505C57.0474 39.1335 57.2644 38.7299 57.5157 38.4306C57.7229 38.1825 57.9549 38.0919 58.2384 38.0824C58.2212 37.8535 58.2331 37.6213 58.2803 37.3859C58.4253 36.6598 58.8914 35.9771 59.5819 35.6672C59.8654 35.5405 60.164 35.5033 60.4518 35.5341C60.6967 35.023 61.1746 34.6525 61.762 34.5726C61.9908 34.5407 62.2034 34.5427 62.3989 34.5716C62.5095 34.5203 62.6244 34.4746 62.7447 34.433C62.8242 34.4053 62.9047 34.3798 62.9853 34.3543C63.257 34.0199 63.6146 33.7526 64.0323 33.5919C64.5145 33.4055 65.0053 33.4246 65.4403 33.5811L65.5788 33.5524V33.5524C65.7958 33.1796 66.1416 32.8911 66.6732 32.7601C67.2767 32.6121 67.8964 32.8187 68.3711 33.1947C68.3732 33.1947 68.3754 33.1947 68.3786 33.1935C68.6267 32.6429 69.0509 32.2596 69.7629 32.2862C70.2064 32.3033 70.607 32.5217 70.9163 32.8326C71.0882 32.8112 71.26 32.792 71.4329 32.773C71.6155 32.561 71.8184 32.363 72.0429 32.1852C72.4102 31.8933 72.8881 31.9168 73.1587 32.3277C73.2178 32.4172 73.2726 32.5077 73.3273 32.5982L73.5754 32.5812V32.5812C73.8675 32.1904 74.266 31.9263 74.8115 31.9051C75.312 31.8848 75.6685 32.1277 75.9402 32.4672C76.1615 32.4619 76.3838 32.4578 76.6061 32.4545C76.8649 32.1574 77.1699 31.8954 77.5179 31.6782C77.7842 31.512 78.1773 31.5686 78.3931 31.7901C78.539 31.9407 78.6747 32.0978 78.8009 32.2605C79.1262 31.8989 79.5655 31.6607 80.035 31.5697ZM64.2289 65.3849C64.7304 65.1016 65.4049 65.4083 65.8903 65.649C66.482 65.9418 67.0695 66.3837 67.4314 66.9375C67.9243 67.6914 66.7655 68.3005 66.2468 67.6243C65.9279 67.208 65.6733 66.7884 65.2867 66.4242C64.9334 66.0898 64.4211 65.8662 64.2181 65.4253C64.2106 65.4104 64.2128 65.3934 64.2289 65.3849ZM64.5815 47.0848L64.5909 47.0582C64.7335 46.6714 64.111 46.5046 63.9696 46.8883C63.7553 47.4698 64.0024 48.102 64.5816 48.3531C64.7422 48.4228 64.9256 48.3986 65.0224 48.2385C65.1037 48.1038 65.066 47.8704 64.9068 47.8015C64.5809 47.6602 64.4717 47.4107 64.5815 47.0848V47.0848ZM59.2185 46.0031C59.53 45.7305 59.0729 45.2799 58.7628 45.5513C58.4735 45.8046 58.2589 46.1485 58.3147 46.5441C58.3715 46.9473 58.6781 47.2319 59.0137 47.4331C59.3694 47.6464 59.6936 47.0941 59.3389 46.8814L59.299 46.8572C59.1501 46.7655 58.9758 46.6394 58.9506 46.459C58.9239 46.2674 59.0875 46.1178 59.2185 46.0031ZM60.9877 41.1928L61.0098 41.1767C61.3444 40.9399 61.023 40.3855 60.6845 40.625C60.3741 40.8447 60.1252 41.1301 60.0989 41.5236C60.0735 41.9061 60.2698 42.2378 60.5265 42.5068C60.812 42.8062 61.2672 42.3538 60.9822 42.0551C60.7044 41.764 60.6502 41.4463 60.9877 41.1928V41.1928Z" fill="black"/>
<path fill-rule="evenodd" clip-rule="evenodd" d="M91.5434 72.5519C91.6179 72.5319 91.6835 72.6311 91.6217 72.6854C91.3689 72.9079 91.2084 73.3223 91.0239 73.6048C90.8484 73.8736 90.6793 74.1396 90.5249 74.421C90.3519 74.7363 90.1848 75.0504 90.0501 75.384L90.0235 75.4513V75.4513C90.0638 75.5465 90.0954 75.6404 90.1186 75.702L90.1253 75.7195C90.3554 76.302 89.8725 76.9493 89.3279 77.1121C88.3964 77.3906 87.5971 76.6321 87.5749 75.73C87.5574 75.0204 88.0425 74.3881 88.5354 73.919C88.9666 73.5087 89.4495 73.1594 89.9896 72.9035C90.2279 72.7907 90.4754 72.6964 90.7341 72.6417C90.9988 72.5857 91.2842 72.6213 91.5434 72.5519ZM89.788 75.1236C89.8563 75.1555 89.9146 75.2336 89.9637 75.3247C89.9392 75.2474 89.8886 75.1705 89.788 75.1236ZM90.3708 65.2635C91.1818 65.7523 92.4174 66.892 91.545 68.1038C90.5181 69.1722 89.0395 67.9472 88.3109 67.3932C87.6354 66.9638 86.8763 68.0681 87.5031 68.5695C92.768 72.4345 94.9046 65.3913 90.781 64.6888C90.3269 64.6114 90.1583 65.1123 90.3708 65.2635ZM83.7044 60.5701L83.8476 60.5582C84.4692 60.5038 85.0984 60.4211 85.7113 60.5605C86.5347 60.7479 86.4744 61.9357 85.7113 62.1541C85.0388 62.3465 84.2936 62.2632 83.5994 62.2698C83.4902 62.2709 83.3812 62.2737 83.2721 62.2755C83.2506 62.5329 83.1655 62.7548 83.0351 62.9765C82.9416 63.1356 82.8224 63.2867 82.7052 63.428C82.4264 63.7639 81.7688 63.7563 81.4874 63.428C81.2793 63.185 81.1136 62.9055 81.1109 62.5765C81.1103 62.4923 81.1206 62.4028 81.1409 62.3149L80.762 62.3214C79.8346 62.3355 78.9002 62.3292 77.9896 62.1831C77.6657 62.2496 77.4006 61.6701 77.8477 61.4966C79.0631 61.0253 80.4209 60.8865 81.7106 60.745C82.3733 60.6722 83.0397 60.622 83.7044 60.5701ZM94.0584 60.083L94.0915 60.0797C94.8958 59.9981 95.7823 59.8567 96.5882 59.938C97.7915 60.0593 97.7894 61.6722 96.5882 61.7928C96.1472 61.8371 95.6827 61.8156 95.2194 61.7732C95.4562 62.2714 95.1752 62.8663 94.6046 62.9424C94.0744 63.013 93.5248 62.5021 93.6988 61.9541L93.7069 61.9299C93.7409 61.8348 93.7714 61.7285 93.8076 61.6236L93.6157 61.6076C93.0421 61.5573 92.246 61.4546 92.0349 61.0056C91.9712 60.8702 91.9859 60.7446 92.084 60.6289C92.4861 60.1544 93.4772 60.1387 94.0584 60.083V60.083ZM85.5059 56.3902C86.088 56.1805 86.6929 56.6712 86.7684 57.2242C86.8554 57.8615 86.3918 58.281 85.8043 58.3572L85.7748 58.3607C84.4779 58.5023 83.1908 58.7613 81.8922 58.9077C81.3024 58.9741 80.7082 59.0178 80.1144 59.0335L79.6901 59.043C79.1701 59.056 78.6124 59.0678 78.1324 58.8902L78.1342 58.887V58.887C78.0068 58.8504 77.9481 58.6681 78.09 58.5684C78.6011 58.2101 79.29 58.0746 79.885 57.9044C80.4832 57.733 81.0858 57.5751 81.69 57.4268C82.9587 57.1156 84.2767 56.833 85.5059 56.3902ZM90.8744 56.5392C91.0286 55.733 92.1804 55.6465 92.6035 56.2331C92.8769 56.3262 93.2778 56.4233 93.5262 56.4964C93.959 56.6236 94.3921 56.7501 94.8262 56.8727C95.7251 57.1266 96.6023 57.4484 97.486 57.7484C97.5771 57.7793 97.5521 57.8939 97.4646 57.9053C96.2311 58.0645 95.0183 58.1386 93.7774 58.0875L93.5229 58.0762C92.4294 58.0339 90.5731 58.1145 90.8744 56.5392Z" fill="black"/>
<path fill-rule="evenodd" clip-rule="evenodd" d="M92.6454 77.184C91.6452 76.3005 90.5241 74.5243 89.0873 75.9297C88.7319 76.3268 88.588 77.217 88.0446 77.3917C87.3229 77.6238 86.6076 76.8667 86.3617 76.2853C85.3554 73.0547 89.5152 72.1686 91.885 72.6905C93.0427 73.162 93.8954 75.0596 93.947 76.0499C93.9803 76.7155 93.4121 77.6941 92.6454 77.184M100.191 72.2047C100.181 72.1618 100.167 72.123 100.151 72.0878C99.7087 71.922 99.3587 72.0911 99.1424 72.4069C99.1495 72.4854 99.1731 72.5649 99.188 72.6428C99.0212 72.9914 98.8706 73.4228 98.6444 73.7241C98.5997 73.7275 98.5535 73.7228 98.509 73.71C94.7595 74.0983 96.5901 70.2084 92.7871 69.2422C89.8474 68.7613 84.5342 69.3122 83.1474 72.3461C82.0537 77.1922 76.4925 73.8154 74.6666 71.2952C72.7183 69.0015 71.4586 66.1988 70.244 63.4791C69.9873 62.9035 69.1862 63.3151 69.2733 63.8673C68.1506 66.1005 68.188 68.7829 67.91 71.2294C67.437 76.1102 66.9762 82.9551 71.5498 85.9354C77.5088 92.614 92.3891 94.9708 99.2621 88.8343C101.641 83.7623 101.348 77.5746 100.191 72.2047" fill="black"/>
</g>
<defs>
<clipPath id="clip0_17_1264">
<rect width="122" height="131" fill="white" transform="translate(15 22)"/>
</clipPath>
</defs>
</svg>
