<svg width="146" height="155" viewBox="0 0 146 155" fill="none" xmlns="http://www.w3.org/2000/svg">
<g clip-path="url(#clip0_20_770)">
<rect width="146" height="155" rx="16" fill="#00C6AE"/>
<g clip-path="url(#clip1_20_770)">
<path fill-rule="evenodd" clip-rule="evenodd" d="M89.5167 143.701C89.9957 141.004 90.4349 138.299 90.8339 135.589C91.0233 134.303 91.2081 133.015 91.3743 131.725C91.4906 130.821 91.6678 129.788 91.051 129.118C90.1832 128.176 89.3948 127.37 89.2885 126.02C89.1886 124.75 89.6193 123.366 89.8886 122.134C90.4533 119.549 91.1563 116.996 91.9332 114.467C92.7224 111.898 93.5877 109.354 94.4656 106.814C95.2863 104.439 96.0753 102.043 97.1442 99.7641C99.1729 95.4402 102.605 92.2381 106.847 90.0999C107.901 89.5682 110.053 87.6699 111.155 87.2449C112.168 86.8541 112.165 87.9952 113.162 87.5654C113.959 87.2218 114.701 86.7636 115.148 85.9963C115.632 85.163 116.848 83.9977 117.033 83.0278C117.425 80.972 117 79.2222 118.472 77.6749C119.778 76.3009 121.534 75.3597 123.351 74.8544C127.349 73.7428 132.679 74.5199 135.091 78.223C136.243 79.9915 136.645 82.129 138.2 83.5723C139.557 84.8325 139.253 85.6941 141.011 86.3435C141.111 86.3804 143.809 85.8033 143.909 85.8402C145.832 85.43 147.67 86.5784 149.434 87.2449C152.064 88.2383 154.569 89.5314 156.921 91.0681C161.665 94.167 165.728 98.191 169.078 102.745C172.455 107.336 175.076 112.481 176.942 117.86C177.395 119.166 177.802 120.488 178.161 121.823C178.362 122.571 178.576 123.346 178.332 124.111C178.132 124.737 177.686 125.203 177.164 125.578C176.455 126.087 175.034 126.418 175.061 127.442C175.082 128.22 175.347 129.04 175.477 129.809C175.631 130.725 175.757 131.647 175.883 132.567C176.459 136.755 176.906 140.967 177.104 145.191C177.299 149.349 177.461 153.593 177.172 157.751C177.152 158.025 177.07 158.277 176.938 158.49C177.062 158.537 177.071 158.766 176.917 158.799C176.81 158.821 176.702 158.844 176.595 158.867C176.371 159.036 176.092 159.139 175.771 159.149C175.554 159.156 175.336 159.166 175.119 159.177C172.825 159.655 170.532 160.106 168.208 160.448C165.384 160.864 162.551 161.203 159.709 161.478C153.87 162.044 148.077 161.856 142.23 161.551C136.392 161.247 130.558 161.176 124.714 161.327C118.865 161.479 113.018 161.732 107.168 161.836C100.632 161.952 94.1059 161.774 87.5888 161.256C86.6953 161.185 86.1424 160.476 86.3187 159.592C87.3745 154.291 88.5711 149.025 89.5167 143.701Z" fill="white"/>
<path fill-rule="evenodd" clip-rule="evenodd" d="M145.732 85.7096C145.128 85.6835 144.512 85.781 143.909 85.8401C143.856 85.8452 143.836 85.926 143.895 85.9383C144.974 86.1631 146.042 86.4706 147.102 86.7828L147.555 86.9167C148.75 87.2692 149.911 87.6328 151.068 88.1029C153.374 89.0399 155.564 90.3045 157.579 91.7575C165.341 97.3522 170.958 105.823 174.503 114.593C175.466 116.974 176.282 119.415 176.942 121.897C177.103 122.501 177.254 123.108 177.397 123.716C177.44 123.894 177.623 124.351 177.522 124.533C177.433 124.694 177.088 124.794 176.927 124.878L176.385 125.158C175.328 125.701 173.567 126.594 173.39 126.681L173.115 126.817C168.61 129.019 163.796 130.886 158.726 131.015L158.686 130.583V130.583C158.46 128.197 158.164 125.798 157.516 123.485C157.481 123.361 157.323 123.403 157.308 123.513C156.948 126.251 157.063 129.011 157.189 131.762C157.412 136.634 157.707 141.503 157.97 146.374C158.102 148.81 158.272 151.245 158.426 153.68C158.58 156.119 158.63 158.618 158.981 161.038C159.059 161.577 159.693 161.87 160.173 161.813C160.704 161.75 161.112 161.284 161.115 160.75C161.121 159.34 160.944 157.914 160.845 156.508C160.751 155.172 160.65 153.836 160.547 152.501C160.17 147.628 159.737 142.76 159.336 137.889C159.193 136.162 159.04 134.436 158.882 132.71C164.252 132.537 169.27 130.554 174.056 128.236C174.126 129.805 174.293 131.37 174.455 132.932C174.907 137.29 175.306 141.647 175.604 146.019C175.755 148.227 175.865 150.438 175.96 152.649C176.007 153.736 176.045 154.823 176.075 155.91C176.085 156.272 176.093 156.635 176.101 156.997L176.118 157.828C176.131 158.354 176.185 158.841 176.629 159.224C177.08 159.613 177.689 159.634 178.135 159.224C178.733 158.676 178.627 157.928 178.609 157.192C178.595 156.57 178.577 155.949 178.556 155.328C178.515 154.085 178.462 152.843 178.398 151.601C178.174 147.261 177.726 142.938 177.141 138.632L176.913 136.969C176.486 133.879 176.018 130.719 175.064 127.743C175.435 127.559 175.806 127.373 176.174 127.187C176.829 126.857 177.505 126.547 178.141 126.182C178.646 125.893 179.081 125.496 179.222 124.911C179.378 124.258 179.139 123.545 178.979 122.909L178.966 122.853C178.81 122.212 178.642 121.574 178.464 120.939C177.745 118.364 176.856 115.838 175.816 113.374C173.733 108.442 171.044 103.756 167.759 99.5188C164.803 95.705 161.31 92.2463 157.216 89.6523C155.215 88.3841 153.082 87.3428 150.827 86.6065C149.773 86.2625 148.626 85.9632 147.522 85.84C146.927 85.7736 146.33 85.7356 145.732 85.7096ZM135.023 77.8936C134.305 77.1247 132.878 77.9204 133.223 78.9386C134.034 81.3341 135.326 83.5193 137.342 85.0934C139.237 86.5732 141.497 87.5342 143.93 87.3291C143.949 87.3275 143.965 87.3227 143.98 87.316L143.77 87.5996C142.123 89.82 140.387 92.0098 138.293 93.8246C134.028 97.5225 128.22 99.517 122.612 98.0982C118.2 96.982 114.313 93.5036 113.169 89.0705C113.333 89.1437 113.528 89.1687 113.742 89.1224C114.656 88.9244 115.562 87.9653 116.152 87.2777C116.79 86.5338 117.289 85.7305 117.654 84.8224C118.322 83.1606 118.537 81.021 117.624 79.4112C117.511 79.2128 117.251 79.324 117.229 79.5177L117.195 79.8201C117.019 81.3288 116.799 82.7881 116.086 84.1634C115.737 84.8364 115.318 85.4933 114.809 86.0569C114.536 86.3584 114.241 86.6465 113.921 86.8994C113.611 87.1457 113.234 87.3238 112.956 87.6065L112.904 87.6607L112.903 87.651C112.833 87.0538 112.412 86.7906 112.001 86.8071C111.604 86.823 111.136 86.9976 110.955 87.0812L110.938 87.0893C108.163 88.4174 105.607 90.1485 103.202 92.0691C98.228 96.0411 94.5011 101.233 92.6953 107.348C91.8091 110.349 91.3005 113.441 90.7637 116.519L90.4332 118.405C89.9321 121.246 89.3724 124.143 88.2413 126.786C87.9487 127.47 88.1743 128.111 88.8917 128.38C89.7875 128.716 90.6866 129.041 91.5872 129.362C91.145 131.253 90.8753 133.21 90.544 135.111C89.8398 139.151 88.9769 143.165 88.237 147.2C87.8588 149.263 87.5174 151.333 87.1395 153.396C86.9576 154.389 86.7677 155.382 86.583 156.375C86.4836 156.91 86.3934 157.447 86.2984 157.984L86.2819 158.073C86.2275 158.356 86.1591 158.648 86.2372 158.931C86.3262 159.254 86.579 159.482 86.8047 159.714C86.9904 159.904 87.2589 159.905 87.4864 159.801L87.5613 159.767C87.9677 159.577 88.2862 159.388 88.4304 158.931C88.5216 158.642 88.5545 158.316 88.6142 158.018C88.7286 157.446 88.8371 156.873 88.9396 156.299C89.1445 155.151 89.3446 154.002 89.54 152.852L89.7224 151.775C90.3488 148.063 90.9435 144.328 91.2442 140.577C91.3776 138.913 91.519 137.25 91.6616 135.587L91.7688 134.34C91.9042 132.761 92.0698 131.143 92.0932 129.543L92.6317 129.733V129.733L95.2593 130.659V130.659C95.9107 130.889 96.7402 131.359 97.4414 131.274C97.7846 131.232 98.0463 131.124 98.2483 130.928C98.0063 134.332 97.6788 137.731 97.2423 141.112C96.8452 144.188 96.4049 147.261 95.8848 150.319C95.6273 151.833 95.3627 153.346 95.0752 154.855C94.9315 155.61 94.7832 156.363 94.6304 157.116C94.5542 157.492 94.4635 157.868 94.4041 158.246C94.3361 158.68 94.4559 158.947 94.6989 159.304C94.8985 159.597 95.2977 159.747 95.6213 159.545C96.0498 159.277 96.2733 159.045 96.3994 158.556C96.514 158.113 96.5836 157.65 96.6723 157.201C96.8359 156.371 96.9941 155.541 97.1468 154.71C97.4661 152.972 97.7605 151.229 98.0233 149.481C98.9497 143.324 99.5374 137.115 99.8343 130.896C99.9808 127.828 100.026 124.757 100 121.686C99.9868 120.111 99.9352 118.532 99.8235 116.962C99.7103 115.372 99.475 113.814 99.2649 112.24C99.2576 112.185 99.1791 112.181 99.1758 112.24C99.0763 114.005 98.9204 115.768 98.844 117.538C98.7711 119.227 98.7391 120.918 98.6811 122.607C98.6049 124.828 98.4993 127.05 98.3594 129.27C98.1062 128.994 97.7244 128.835 97.3425 128.897C96.7892 128.781 96.1936 128.492 95.6661 128.316L93.6774 127.654V127.654C92.632 127.306 91.5866 126.96 90.5375 126.624C91.4754 123.478 92.118 120.286 92.6666 117.046L92.9113 115.589C93.3957 112.721 93.9179 109.852 94.7952 107.075C95.7175 104.156 97.0977 101.441 98.9286 98.9834C100.733 96.5608 102.929 94.4277 105.19 92.4325C107.125 90.7245 109.196 89.1824 111.17 87.5213C111.149 87.6314 111.145 87.7526 111.163 87.8857C111.583 90.9484 113.186 93.8006 115.419 95.922C119.906 100.184 126.547 101.068 132.29 99.0695C137.844 97.1364 142.756 92.5581 144.491 86.8927C144.52 86.7958 144.39 86.7573 144.338 86.8285C144.242 86.96 144.145 87.0916 144.048 87.2231C144.055 87.1708 144.027 87.1139 143.963 87.0891C141.938 86.3097 139.95 85.2044 138.433 83.6408C137.693 82.8786 137.047 82.0152 136.538 81.0839C136.294 80.6378 136.075 80.1759 135.9 79.6985L135.855 79.575C135.643 78.9771 135.466 78.3673 135.023 77.8936Z" fill="black"/>
<path fill-rule="evenodd" clip-rule="evenodd" d="M136.49 30.8266L135.463 32.0436C136.032 32.4429 136.568 32.8441 137.073 33.2472L137.073 33.246C134.736 31.7254 132.147 30.8266 129.35 30.8266C123.963 30.8266 113.021 35.4398 110.548 38.7674C109.321 40.4187 107.039 45.4882 105.856 50.9996C104.906 55.428 103.492 67.9387 104.906 72.6397C106.715 78.6561 112.669 84.2168 118.808 84.2168C124.948 84.2168 134.479 79.798 141.262 70.1144C141.573 69.6716 145.135 69.1584 147.676 67.4964L147.009 74.8242L146.501 79.0868L146.613 79.3901C148.433 84.2972 149.875 86.8572 150.94 87.0702C152.026 87.2876 154.238 85.5125 157.576 81.745L158.002 79.9603C159.085 75.4077 159.627 72.9639 159.627 72.6291L159.626 72.5681C159.61 71.7976 159.344 67.4365 159.339 66.2629L159.339 48.6729C155.749 36.7754 152.323 30.8266 149.062 30.8266H136.49Z" fill="white"/>
<path fill-rule="evenodd" clip-rule="evenodd" d="M144.995 26.7748C143.94 26.3672 142.717 26.4442 141.715 27.0579C139.748 26.9738 137.792 28.1207 136.767 29.7948C136.745 29.8185 136.723 29.8422 136.702 29.8659L136.485 30.1184C136.279 30.3596 136.062 30.6254 135.89 30.8999C136.733 30.9191 137.434 31.2614 137.924 31.9527C138.274 32.446 137.473 32.9147 137.116 32.4482L137.103 32.4311C136.809 32.0161 136.365 31.8553 135.871 31.8469C135.729 31.8445 135.621 31.7904 135.545 31.7105C135.515 31.8206 135.488 31.9318 135.463 32.0436C132.974 31.0786 130.292 30.823 127.619 31.0519C127.737 31.241 127.835 31.4436 127.91 31.6565C127.995 31.8978 127.813 32.175 127.578 32.2394C127.324 32.3091 127.094 32.1605 127.002 31.9309L126.993 31.9084C126.891 31.6183 126.723 31.3694 126.498 31.1764C125.24 31.3464 123.991 31.6168 122.772 31.9654C121.308 32.3847 119.857 32.8964 118.439 33.4823C118.679 33.5762 118.887 33.735 119.032 34C119.322 34.5291 118.524 35.0029 118.222 34.4972L118.211 34.4785C118.181 34.4242 118.155 34.3916 118.136 34.373L118.129 34.3667L118.087 34.3475L118.009 34.3253V34.3253L117.979 34.3179C117.953 34.312 117.942 34.3124 117.872 34.3086C117.78 34.3033 117.687 34.3038 117.595 34.3037C117.377 34.3036 117.238 34.1826 117.175 34.0279C116.475 34.3429 115.784 34.6747 115.105 35.0222L114.944 35.1055C112.848 36.1971 110.863 37.6307 109.711 39.74C109.635 39.881 109.611 40.035 109.63 40.182C109.384 40.4758 109.146 40.7791 108.918 41.0871C108.222 42.0302 107.712 43.1025 107.23 44.1653C106.259 46.3026 105.605 48.4981 105.095 50.7871C104.602 52.9932 104.204 55.223 103.834 57.4528C103.424 59.9302 103.083 62.4289 103.012 64.9419C102.886 69.4216 103.764 73.9274 106.287 77.6986C108.538 81.0634 111.927 83.7352 115.946 84.5906C120.034 85.4602 124.36 84.6119 127.582 81.8964C128.101 81.4592 128.03 80.5765 127.582 80.1286C127.074 79.6239 126.326 79.6938 125.809 80.1286C122.775 82.6866 118.359 83.0812 114.703 81.7779C111.323 80.5718 108.676 77.7898 107.051 74.6655C105.069 70.8552 104.735 66.4786 105.039 62.2631C105.206 59.948 105.552 57.6518 105.908 55.3592L106.123 53.9792C106.358 52.4845 106.605 50.9918 106.926 49.5122L107.002 49.1675C107.395 47.3834 107.855 45.5534 108.568 43.8762C108.941 42.9959 109.39 42.1475 109.85 41.3099C109.939 41.1476 110.031 40.9829 110.124 40.817C110.25 40.8608 110.394 40.868 110.545 40.8206C111.844 40.4177 113.179 40.1476 114.537 40.0576C115.156 40.0163 115.775 40.0099 116.394 40.034C117.454 39.9725 118.543 40.0654 119.553 40.3893C119.651 40.3048 119.752 40.2221 119.852 40.1394C119.879 40.1373 119.906 40.1344 119.933 40.1291C120.19 40.0786 120.371 39.8962 120.481 39.6657C120.486 39.6535 120.491 39.6413 120.496 39.6291C120.625 39.5307 120.756 39.4338 120.887 39.3381C121.207 39.421 121.488 39.1552 121.564 38.864C121.635 38.816 121.708 38.7696 121.78 38.7225C121.836 38.7363 121.892 38.7476 121.947 38.7517C122.183 38.7686 122.41 38.7326 122.619 38.6204C122.884 38.4783 123.053 38.2492 123.166 37.9889C123.567 38.0134 123.972 37.8839 124.329 37.6498C124.62 37.4599 124.842 37.1977 125.063 36.936C127.758 35.7375 130.688 35.03 133.625 34.8487C133.914 34.9042 134.201 34.9701 134.485 35.0469C134.552 35.0652 134.647 35.1009 134.757 35.1438C134.102 35.0649 133.439 35.0571 132.767 35.1537C129.575 35.6137 127.09 37.9959 124.951 40.2445C124.442 40.142 123.927 40.799 124.398 41.2341L128.07 44.6263V44.6263C127.98 45.0056 128.416 45.3796 128.799 45.2884C129.44 45.1349 130.082 44.9856 130.724 44.8388C131.395 45.1621 132.237 45.1068 132.845 44.6381C132.874 44.6163 132.935 44.5815 132.988 44.5469C133.038 44.588 133.105 44.6292 133.132 44.6468C133.348 44.7894 133.612 44.8313 133.864 44.7913C134.124 44.7502 134.358 44.6188 134.561 44.4552C134.689 44.3509 134.989 43.9161 135.156 43.884L135.172 43.8822C135.061 43.8854 135.419 44.217 135.515 44.2856C135.739 44.4452 135.987 44.5291 136.266 44.4985C136.753 44.4452 137.171 44.0031 137.409 43.5949L137.427 43.5636L137.435 43.5442L137.441 43.5652C137.442 43.5689 137.443 43.5729 137.445 43.5774C137.481 43.6734 137.593 43.7827 137.669 43.8499C137.886 44.041 138.154 44.125 138.44 44.0751C138.683 44.033 138.887 43.8869 139.051 43.71L139.077 43.6819C139.125 43.6273 139.445 43.1992 139.394 43.0966L139.388 43.0879L139.404 43.0846C139.599 43.1322 139.762 43.0845 139.882 42.9846C140.549 42.8389 141.207 42.6691 141.845 42.4532C141.895 42.593 141.943 42.7328 141.991 42.8738C141.643 43.0883 141.321 43.3939 141.025 43.612C140.464 44.0243 139.903 44.4366 139.343 44.8501L137.125 46.4811V46.4811L136.872 46.4132V46.4132C136.548 46.3264 136.27 46.5145 136.151 46.802L136.141 46.8269C136.094 46.9528 136.037 47.0693 135.97 47.1808C135.416 47.1588 134.946 47.4981 134.795 47.9848C134.658 47.9817 134.519 47.9869 134.378 48.0025C133.991 48.0449 133.73 48.3316 133.8 48.7253L133.805 48.7523L133.814 48.7962C133.59 48.8912 133.427 49.0747 133.391 49.3522C133.331 49.4423 133.282 49.5404 133.251 49.6497C133.089 50.2165 133.405 50.9172 133.572 51.4602L133.585 51.5027C133.693 51.8596 133.805 52.2147 133.917 52.5697L134.198 53.4511C134.978 55.9074 135.737 58.4972 135.107 61.0723C134.972 61.6173 135.671 61.8638 135.974 61.4372C136.709 60.4046 137.502 59.4315 138.336 58.4974L138.376 58.491V58.491C138.96 58.3741 139.187 57.9631 139.454 57.5441C139.612 57.5904 139.782 57.6013 139.946 57.5698C140.183 57.5242 140.396 57.389 140.564 57.2183C140.706 57.0735 140.837 56.7022 141.005 56.6101C141.215 56.4951 141.638 56.6595 141.889 56.6226C142.093 56.5926 142.284 56.5227 142.469 56.4349C142.809 56.8971 143.035 57.4405 143.09 58.0262C143.112 58.249 143.178 58.4373 143.274 58.5937C142.92 58.5807 142.565 58.6056 142.214 58.6707C140.916 58.9113 139.986 59.7098 139.463 60.8994C139.441 60.9515 139.508 60.9941 139.539 60.9444C140.315 59.7536 142.004 59.6932 143.23 60.1126C144.533 60.5581 145.264 61.7015 145.524 63.0059C145.809 64.436 145.443 65.9774 144.662 67.1954C144.3 67.7617 143.805 68.2783 143.148 68.4868C142.367 68.7344 141.646 68.2913 140.846 68.52C140.302 68.6752 140.062 69.2001 140.161 69.7249C140.2 69.9311 140.272 70.1112 140.37 70.2676C140.082 70.8363 139.816 71.4215 139.477 71.9594C138.955 72.79 138.322 73.4772 137.633 74.1703C136.921 74.8859 136.196 75.5873 135.435 76.2508C134.705 76.887 133.868 77.3396 133.103 77.9225C132.566 78.3313 132.3 78.9047 132.565 79.5611C132.783 80.1038 133.52 80.5658 134.117 80.3206C135.259 79.8514 136.258 79.0528 137.168 78.2306C138.012 77.4676 138.747 76.5553 139.302 75.5648C139.825 74.631 140.211 73.5705 140.536 72.549L140.577 72.4215C140.73 71.9358 140.892 71.3896 140.996 70.8386C141.622 71.1799 142.472 71.2296 143.142 71.1372C144.225 70.9891 145.213 70.4453 145.959 69.6526C146.307 69.2838 146.614 68.8631 146.88 68.4071C146.856 68.6847 146.841 68.9533 146.826 69.1977C146.205 69.8752 145.956 70.8528 146.177 71.7449C145.658 72.2776 145.512 73.0772 145.783 73.758C145.215 74.3198 145.236 75.2139 145.482 76.0258C144.81 76.7742 144.747 77.9402 145.271 78.7847L145.287 78.8454V78.8454C144.757 79.7288 144.877 80.8704 145.54 81.6505C145.087 82.5268 145.157 83.7054 146.29 84.0455C146.702 84.1693 147.102 84.0636 147.402 83.833C147.128 85.1883 147.006 86.5642 147.371 87.9258C147.516 88.4661 148.046 88.8606 148.603 88.8606C149.069 88.8606 149.408 88.6272 149.642 88.2836C149.614 88.9672 149.656 89.6544 149.802 90.3475C149.89 90.7661 150.28 91.0925 150.693 91.1936C150.544 91.3612 150.484 91.6038 150.627 91.8563C151.234 92.9261 152.698 92.4824 152.797 91.4574C153.211 91.1496 153.403 90.6442 153.483 90.0981C153.599 89.3017 153.641 88.5184 153.772 87.7322L153.823 87.7791V87.7791L153.849 87.8014L153.857 87.8583C153.932 88.2469 154.152 88.519 154.437 88.6813C154.375 89.3593 154.49 90.0497 154.922 90.5645C155.209 90.9076 155.698 91.0427 156.118 90.9682C156.144 90.9696 156.171 90.9694 156.199 90.9658C157.15 90.8398 157.7 89.9411 157.449 89.1163C157.832 88.6488 157.993 88.0555 157.88 87.4693C158.62 86.9805 158.605 85.9068 158.349 85.0444C159.125 84.4336 159.417 83.2918 159.027 82.3844C159.727 81.5182 159.824 80.3111 159.349 79.3248C160.118 78.6943 160.114 77.4772 159.351 76.8324C159.757 76.0278 160.002 75.0637 159.596 74.3274C159.883 74.012 160.04 73.5625 160.007 73.1281C159.958 72.4902 159.535 72.0495 159.01 71.7558L158.973 71.5563V71.5563C158.85 71.5715 158.719 71.5372 158.603 71.4263C158.488 71.3165 158.37 71.228 158.248 71.155C158.11 71.1532 157.991 71.0918 157.907 70.9974C157.678 70.9199 157.432 70.8857 157.159 70.8826C156.57 70.8762 156.549 69.9972 157.097 69.9402C157.184 69.8531 157.303 69.7983 157.433 69.7983L157.534 69.7987C157.771 69.8009 158.01 69.8155 158.23 69.9094C158.373 69.9703 158.483 70.0621 158.564 70.1744C158.579 70.3443 158.672 70.5138 158.872 70.6537C159.104 70.8153 159.421 70.8341 159.669 70.6879C160.017 70.4832 160.02 70.1636 159.98 69.8163C159.893 69.0563 160.331 68.3412 160.226 67.5637C160.18 67.22 160.065 66.9232 159.878 66.6835C160.273 66.0946 160.343 65.3343 160.039 64.6877C160.672 64.0087 160.781 62.9621 160.378 62.1449C160.372 62.1251 160.367 62.1049 160.361 62.0853C160.315 61.9465 160.252 61.8212 160.183 61.7015C160.537 61.0894 160.535 60.3384 160.175 59.7289C160.72 59.0948 160.738 58.0857 160.252 57.4025C160.25 57.3459 160.244 57.2893 160.239 57.2326C160.461 56.6562 160.408 56.0009 160.125 55.4649C160.226 55.2333 160.304 54.9839 160.354 54.7183C160.481 54.0334 160.415 53.3676 160.225 52.6994C160.194 52.5939 160.16 52.4885 160.123 52.383C160.117 51.9253 160.1 51.4697 160.076 51.0148C160.167 50.6298 160.181 50.2067 160.183 49.8138L160.184 49.5591C160.188 48.9109 160.234 47.9618 159.823 47.4108C160.087 46.8155 159.978 46.0655 159.538 45.5938C159.847 45.0636 159.912 44.4125 159.601 43.8243C159.551 43.7296 159.493 43.6415 159.43 43.558C159.455 43.0193 159.342 42.4638 159.054 41.9283C158.867 41.5798 158.587 41.278 158.255 41.0366C158.261 40.9651 158.264 40.8938 158.263 40.8235C158.257 40.51 158.187 40.1952 158.07 39.9015C158.281 39.543 158.378 39.1389 158.255 38.7033C158.117 38.2105 157.755 37.7863 157.302 37.547C157.265 37.0823 157.193 36.6203 157.089 36.1645C157.367 35.5469 157.145 34.7318 156.516 34.3679C156.598 33.8743 156.525 33.3625 156.164 32.977C156.028 32.8309 155.867 32.7201 155.694 32.6466C155.777 32.1503 155.683 31.634 155.339 31.2299C155.057 30.8999 154.641 30.6994 154.217 30.6699C154.054 29.8067 153.226 29.1612 152.354 29.2126C152.244 28.8325 151.984 28.5011 151.58 28.3331C151.476 28.2901 151.371 28.2618 151.267 28.2461C150.558 27.5323 149.501 27.0486 148.586 26.8008C147.669 26.5533 146.739 26.5294 145.951 26.8171L145.894 26.8387L145.829 26.8305C145.551 26.7997 145.273 26.7819 144.995 26.7748ZM151.967 85.2726C152.212 85.1964 152.486 85.3627 152.552 85.6035C152.622 85.858 152.466 86.1101 152.22 86.1865C151.914 86.2818 151.592 86.3056 151.272 86.3058C151.015 86.3061 150.797 86.0878 150.797 85.8319C150.797 85.5747 151.014 85.3582 151.272 85.358C151.532 85.3578 151.724 85.3483 151.967 85.2726ZM154.147 80.2397C154.514 80.24 154.828 80.3272 155.099 80.5831C155.281 80.7539 155.285 81.0836 155.099 81.2535C154.912 81.425 154.64 81.435 154.448 81.2717L154.41 81.2385C154.406 81.2345 154.403 81.2313 154.4 81.2286C154.384 81.2187 154.369 81.2085 154.352 81.2L154.383 81.2202C154.407 81.2371 154.352 81.2094 154.322 81.1963L154.312 81.1924L154.309 81.1917L154.284 81.1898C154.239 81.1874 154.193 81.1875 154.147 81.1875C153.899 81.1873 153.66 80.9697 153.672 80.7136C153.684 80.4569 153.881 80.2394 154.147 80.2397ZM147.234 77.2328C146.719 76.9183 147.179 76.1137 147.695 76.4034L147.713 76.4144C147.978 76.5762 148.303 76.5543 148.603 76.5544C149.215 76.5548 149.216 77.5026 148.603 77.5023L148.502 77.5019C148.062 77.4985 147.618 77.468 147.234 77.2328ZM151.283 73.7734C151.671 73.7004 152.107 73.6353 152.516 73.6798L152.584 73.6882H152.71C152.819 73.6882 152.925 73.732 153.01 73.801C153.144 73.8567 153.272 73.9313 153.388 74.0317C153.851 74.432 153.176 75.1 152.716 74.702C152.69 74.6798 152.66 74.6616 152.627 74.6466L152.602 74.636H152.094C152.047 74.636 152.002 74.6264 151.958 74.6126C151.793 74.6352 151.64 74.6678 151.535 74.6873C150.937 74.7995 150.681 73.8862 151.283 73.7734ZM151.717 64.6765C152.462 64.332 153.287 64.3345 153.976 64.8129C154.469 65.155 154.011 65.9618 153.514 65.6432L153.496 65.6313C153.435 65.5884 153.371 65.5525 153.307 65.52C152.957 65.6208 152.605 65.6255 152.267 65.5016L152.223 65.4847L152.197 65.4948C151.645 65.7498 151.162 64.9331 151.717 64.6765ZM143.603 63.1914C144.356 63.1073 144.362 61.9218 143.603 62.0066C142.001 62.1857 140.547 62.8958 139.483 64.1152C138.988 64.6823 139.803 65.512 140.308 64.9701L140.323 64.9529C141.17 63.9833 142.312 63.3357 143.603 63.1914ZM152.036 57.1048C152.203 57.0865 152.37 57.0774 152.534 57.0854C152.929 57.1043 153.41 57.3669 153.237 57.8413C153.098 58.2214 152.642 58.2364 152.418 58.0337C152.324 58.0359 152.231 58.0421 152.138 58.0516C151.889 58.077 151.644 58.1242 151.399 58.1723C150.801 58.2895 150.545 57.3761 151.146 57.2582L151.412 57.2058C151.501 57.1884 151.592 57.1713 151.682 57.1556C151.737 57.1287 151.795 57.1106 151.857 57.106L151.889 57.1048H152.036ZM156.759 49.7514L156.815 49.7438C157.618 49.6414 158.906 49.7356 159.004 50.7544C159.058 51.3186 158.24 51.354 158.079 50.8716C157.486 50.7651 156.888 50.7447 156.299 50.8094C156.075 50.5819 156.073 50.1446 156.447 50.0355C156.5 49.894 156.61 49.7728 156.759 49.7514ZM138.41 48.0307C138.595 47.8609 138.899 47.8384 139.082 48.0307C139.187 48.1413 139.275 48.2643 139.344 48.3996L139.391 48.491C139.398 48.5061 139.406 48.5212 139.415 48.5361C139.43 48.5637 139.448 48.59 139.465 48.6168L139.476 48.628C139.481 48.6326 139.486 48.6381 139.493 48.6449C139.664 48.8251 139.685 49.1387 139.493 49.3151C139.307 49.4849 139.003 49.5074 138.82 49.3151C138.715 49.2044 138.627 49.0816 138.558 48.9462L138.512 48.8549C138.504 48.8397 138.496 48.8247 138.487 48.8098C138.472 48.7821 138.454 48.7558 138.437 48.729L138.418 48.7102C138.416 48.7073 138.413 48.7043 138.41 48.7009C138.239 48.5208 138.217 48.2071 138.41 48.0307ZM148.158 46.7965C148.827 46.3233 149.624 46.3012 150.239 46.8705C150.684 47.2814 150.031 47.9398 149.583 47.5548L149.567 47.5408C149.551 47.5256 149.534 47.5123 149.518 47.4996C149.438 47.5679 149.336 47.6111 149.219 47.6113C149.188 47.6113 149.158 47.6113 149.128 47.6119L149.082 47.6135L149.057 47.6155L149.054 47.6161L149.033 47.6252C148.994 47.6428 148.94 47.6699 149.014 47.6237C148.997 47.6323 148.982 47.6425 148.966 47.6525L148.939 47.6772C148.76 47.8462 148.45 47.8685 148.272 47.6816C147.957 47.5755 147.79 47.0563 148.158 46.7965ZM141.609 45.2438L141.597 45.24C141.01 45.0728 141.259 44.158 141.85 44.3259C142.476 44.5042 142.775 45.0853 142.901 45.6806C142.953 45.9309 142.827 46.1929 142.568 46.2636C142.332 46.3282 142.037 46.1843 141.984 45.9326C141.947 45.7556 141.904 45.6055 141.836 45.4662L141.795 45.3866C141.776 45.3504 141.769 45.3444 141.704 45.2879C141.693 45.2785 141.644 45.2555 141.609 45.2438ZM151.557 40.4701L151.648 40.4492C152.221 40.3243 152.98 40.259 153.325 40.8245C153.64 41.3396 152.846 41.8086 152.519 41.3216C152.514 41.3215 152.508 41.3215 152.501 41.3221L152.491 41.3233L152.344 41.3114C152.161 41.3101 151.987 41.3424 151.809 41.3842C151.214 41.5246 150.96 40.6109 151.557 40.4701ZM131.017 36.8264C130.584 36.3945 131.256 35.724 131.689 36.1562C132.032 36.4978 132.363 36.8418 132.585 37.2758C132.702 37.5035 132.645 37.79 132.415 37.9242C132.202 38.048 131.882 37.9829 131.764 37.7542C131.571 37.378 131.328 37.1361 131.017 36.8264ZM136.483 35.6928C136.911 35.9454 137.188 36.3615 137.356 36.8431C137.441 37.0848 137.26 37.3614 137.024 37.426C136.771 37.4955 136.539 37.3474 136.448 37.1175L136.44 37.095C136.395 36.9662 136.323 36.8141 136.234 36.6993C136.157 36.6013 136.039 36.5032 135.95 36.4706C135.736 36.3922 135.584 36.1986 135.604 35.9725C135.956 36.0939 136.283 35.9479 136.483 35.6928ZM149.293 33.6312C149.725 33.2317 150.304 33.1787 150.828 33.4206C151.061 33.5281 151.119 33.8631 150.998 34.069C150.858 34.3073 150.582 34.3471 150.348 34.239C150.408 34.2668 150.3 34.2301 150.253 34.2168C150.247 34.2195 150.168 34.216 150.141 34.2163L150.109 34.2184C150.108 34.2186 150.116 34.2185 150.133 34.2179C150.11 34.2231 150.087 34.2292 150.065 34.2363L150.037 34.246C150.051 34.2431 149.987 34.2848 149.969 34.2987L149.966 34.3013C149.518 34.7159 148.844 34.0472 149.293 33.6312Z" fill="black"/>
<path fill-rule="evenodd" clip-rule="evenodd" d="M114.8 70.1621C114.392 69.4448 113.175 69.5614 112.989 70.398C112.612 72.0939 114.64 73.66 116.181 73.6991C117.712 73.7378 119.43 72.4387 119.208 70.7978C119.153 70.3919 118.61 70.4411 118.424 70.6956L118.352 70.7933C117.849 71.4677 117.184 72.1657 116.25 72.0013C115.863 71.9333 115.511 71.6921 115.277 71.3815C114.994 71.0068 115.025 70.5593 114.8 70.1621ZM124.535 57.7549C124.327 57.6979 124.118 57.7199 123.934 57.7979C123.523 57.8729 123.181 58.2141 123.06 58.6037C123.051 58.6374 123.04 58.6707 123.028 58.7036L123.01 58.7528L123.059 58.6279C123.036 58.7509 122.936 58.8802 122.9 59.0036C122.855 59.1554 122.845 59.3278 122.86 59.4949C122.729 59.4962 122.599 59.5005 122.468 59.5118L122.343 59.523C121.639 59.5883 120.866 59.7079 120.449 60.3143C120.214 60.655 120.434 61.2685 120.865 61.3341C121.528 61.4352 122.098 61.0696 122.759 60.9964C123.383 60.927 124.037 60.9667 124.653 61.0792C125.925 61.3111 127.095 61.8253 128.335 62.1479L128.503 62.1906V62.1906L128.503 62.1898C128.716 62.241 128.957 61.9464 128.747 61.7742C127.753 60.9606 126.481 60.3012 125.229 59.8997C125.411 59.6103 125.468 59.229 125.343 58.9182C125.323 58.8538 125.299 58.7912 125.274 58.7288L125.221 58.6003V58.6003C125.216 58.5398 125.205 58.48 125.188 58.4213L125.185 58.4034V58.4034L125.184 58.4045V58.4045C125.09 58.1022 124.847 57.8406 124.535 57.7549ZM111.861 57.8016C111.59 57.5307 111.208 57.5707 110.924 57.784L110.887 57.8134V57.8134C110.619 57.9317 110.398 58.1904 110.253 58.4301C110.102 58.679 110.002 58.9325 109.998 59.2066C109.341 59.2087 108.711 59.4054 108.228 59.9347C108.072 60.1056 107.965 60.3691 108.051 60.6007L108.102 60.7385V60.7385C108.264 61.176 108.993 61.4278 109.241 60.9134L109.252 60.8883C109.516 60.2774 110.526 60.3415 111.063 60.4039C111.438 60.4476 111.807 60.5404 112.169 60.6443C112.296 60.6809 112.422 60.7207 112.548 60.7613L112.675 60.802C112.742 60.8237 113.092 61.0134 112.874 60.9685C112.816 60.9564 112.772 61.0415 112.831 61.07C113.091 61.1938 113.368 60.9473 113.351 60.6691C113.321 60.1862 112.552 59.9214 112.182 59.7549L112.159 59.7448C112.017 59.6794 111.869 59.6168 111.715 59.5586C111.802 59.4306 111.873 59.2884 111.932 59.1358C111.988 58.9918 112.026 58.8517 112.046 58.6985C112.067 58.6237 112.067 58.5488 112.046 58.4738L112.043 58.4523V58.4523C112.054 58.4028 112.059 58.3516 112.058 58.3001L112.06 58.2801H112.058C112.051 58.0996 111.979 57.9188 111.861 57.8016ZM116.202 62.9442C115.158 63.2658 113.436 64.1417 113.98 65.4937C114.74 66.7353 116.754 65.8228 117.73 65.4216C118.607 65.1321 119.063 66.3573 118.216 66.7266C111.209 69.4901 111.235 62.1966 115.948 62.3037C116.467 62.3155 116.483 62.8374 116.202 62.9442ZM125.472 53.4342L125.294 53.3824C124.369 53.1152 123.424 52.6538 122.603 53.3737C122.28 53.6564 122.214 54.2438 122.445 54.5964C122.971 55.3998 123.75 55.2771 124.599 55.3456C125.246 55.3977 125.883 55.587 126.486 55.8236C126.979 56.0171 127.437 56.2895 127.869 56.5933C128.293 56.892 128.583 57.3589 129.018 57.6277C129.177 57.7263 129.362 57.6249 129.419 57.4651C129.622 56.8981 129.279 56.1919 128.989 55.7088C128.634 55.1195 128.096 54.6375 127.518 54.2729C126.884 53.8735 126.183 53.6428 125.472 53.4342V53.4342ZM111.991 52.8242C110.428 52.8237 108.923 53.6908 108.048 54.962C107.751 55.3939 107.969 56.0337 108.396 56.2823C108.874 56.5615 109.386 56.3605 109.701 55.9605L109.72 55.9363C110.222 55.2703 110.868 54.7458 111.635 54.4043C112.009 54.2376 112.422 54.1024 112.827 54.0338L112.958 54.0115C113.141 53.9809 113.353 53.9517 113.519 53.9803C113.608 53.9919 113.689 54.0212 113.764 54.0657C113.728 54.1444 113.822 54.2392 113.908 54.192C114.296 53.9792 114.249 53.5996 113.928 53.3046C113.474 52.8872 112.578 52.8243 111.991 52.8242Z" fill="black"/>
</g>
<g clip-path="url(#clip2_20_770)">
<path fill-rule="evenodd" clip-rule="evenodd" d="M63.4479 152.171C63.1596 149.502 62.9819 146.813 62.88 144.13C62.7781 141.451 62.9113 138.738 62.9698 136.057C63.089 130.604 63.2827 125.137 62.8472 119.692C62.4356 114.546 61.4908 109.436 59.9997 104.491C59.2736 102.083 58.5084 99.5778 57.3142 97.3527C56.1133 95.1156 54.2112 93.6258 52.1218 92.2596C49.8973 90.8051 47.6906 89.323 45.4747 87.8549C43.6147 86.6226 40.2674 85.1883 38.7412 83.5409C37.1354 81.8074 36.8335 77.5105 35.7641 75.457C34.7226 73.4568 31.7745 72.152 29.5045 72.152C25.7471 72.152 22.9002 71.9606 19.8107 75.4258C18.2692 77.1548 19.4957 78.9026 17.88 80.562C16.3945 82.0877 12.5956 83.6556 10.681 84.5409C8.38787 85.6012 6.03689 86.5373 3.65181 87.3712C1.21884 88.2219 -1.27545 88.8558 -3.72209 89.6587C-6.06724 90.4282 -9.12949 93.6 -10.9501 95.2783C-12.6427 96.8387 -13.0628 96.6639 -14.3495 98.5595C-17.1736 102.719 -20.0008 106.927 -22.2496 111.431C-23.3698 113.675 -24.4545 116.035 -24.8609 118.526C-25.2944 121.184 -24.8646 123.752 -24.1615 126.325C-23.4459 128.944 -21.1733 131.437 -20.433 134.048C-20.0918 135.252 -21.2629 136.566 -20.7242 137.7C-20.4552 138.266 -20.1164 138.771 -19.7306 139.264C-19.4334 139.645 -18.2744 139.56 -18.1244 140.026C-17.9729 140.496 -18.8114 141.472 -18.8239 141.958C-18.8416 142.655 -18.8694 143.351 -18.8924 144.047L-19.0278 148.164C-19.1168 150.869 -19.2059 153.574 -19.2949 156.279C-19.324 157.162 -19.3664 158.025 -19.154 158.863C-19.2307 158.792 -19.3035 158.715 -19.3701 158.628C-19.5649 158.375 -19.9779 158.59 -19.8126 158.886C-19.5367 159.381 -19.1399 159.73 -18.6737 159.98C-18.1319 160.776 63.9167 162.555 64.3204 160.227C64.5469 158.92 64.1347 157.522 63.9698 156.224C63.7982 154.872 63.5943 153.526 63.4479 152.171Z" fill="white"/>
<path fill-rule="evenodd" clip-rule="evenodd" d="M-19.898 118.531C-19.6973 117.958 -18.7791 118.206 -18.9813 118.783C-20.0204 121.75 -19.2832 124.979 -18.1598 127.812C-17.9344 128.381 -18.8542 128.625 -19.0766 128.064C-20.2583 125.084 -20.9894 121.647 -19.898 118.531M-12.9305 135.481C-9.99996 135.892 -7.06704 136.145 -4.11629 136.35C-3.98438 136.36 -3.87029 136.34 -3.77166 136.297C-3.8596 137.644 -3.9309 138.993 -3.98675 140.341C-4.79129 140.318 -5.61246 140.372 -6.40986 140.35C-7.45207 140.322 -8.49309 140.27 -9.53293 140.191C-11.546 140.039 -13.5556 139.797 -15.5461 139.463C-16.2901 139.339 -17.2348 139.263 -18.0821 139.016C-18.8831 138.783 -19.5961 138.397 -19.9705 137.669C-20.289 137.053 -20.3472 136.298 -20.3472 135.617C-20.3472 135.148 -20.2664 134.672 -20.2177 134.199C-20.157 134.156 -20.1024 134.105 -20.0584 134.049C-19.1743 134.327 -18.2568 134.522 -17.3584 134.712C-15.8955 135.022 -14.4112 135.274 -12.9305 135.481M-14.5834 124.526C-14.5673 125.431 -14.3159 126.254 -13.8269 127.016C-13.496 127.532 -14.3192 128.007 -14.6478 127.495C-15.2235 126.597 -15.5151 125.59 -15.5341 124.526C-15.5451 123.915 -14.5943 123.917 -14.5834 124.526M60.5374 134.405C60.9342 134.427 61.3335 134.441 61.7315 134.462C62.0825 134.761 62.5686 134.914 63.0124 134.819C63.0278 134.857 63.0417 134.9 63.0544 134.95C63.1328 135.255 63.172 135.582 63.2172 135.892C63.2624 136.198 63.2968 136.506 63.3206 136.814C63.3325 136.969 63.4073 137.32 63.3123 137.455C63.2267 137.577 63.0378 137.566 62.907 137.581C62.5553 137.619 62.1988 137.637 61.8446 137.667C61.1756 137.725 60.5065 137.783 59.8386 137.841C59.1838 137.898 58.4649 137.88 57.8243 138.052C57.715 136.771 57.6152 135.49 57.5225 134.208C58.5148 134.354 59.5522 134.351 60.5374 134.405M-22.6634 132.281C-22.2641 133.05 -21.8957 133.805 -21.1316 134.268C-21.0318 134.327 -20.9201 134.359 -20.806 134.367C-20.8915 134.733 -20.945 135.108 -20.9925 135.454C-21.0971 136.215 -21.1197 137.003 -20.9284 137.754C-20.7418 138.485 -20.4328 139.138 -19.8267 139.606C-19.5451 139.824 -19.2373 139.99 -18.9141 140.122C-18.9687 140.274 -19.0008 140.426 -18.9842 140.593C-19.0614 140.981 -19.1125 141.375 -19.1684 141.753C-19.2908 142.592 -19.4132 143.432 -19.5095 144.276C-19.702 145.953 -19.8529 147.631 -19.98 149.315C-20.1072 150.993 -20.1987 152.675 -20.2748 154.357C-20.314 155.217 -20.3484 156.077 -20.3805 156.939C-20.4126 157.824 -20.5564 158.729 -20.1642 159.55C-19.8481 160.214 -18.7798 160.176 -18.4518 159.55C-18.0359 158.755 -18.1583 157.811 -18.1476 156.939C-18.1369 156.118 -18.1226 155.295 -18.1048 154.474C-18.0691 152.793 -18.0168 151.113 -17.9753 149.432C-17.9348 147.791 -17.8849 146.151 -17.8517 144.51C-17.835 143.651 -17.8338 142.792 -17.8291 141.933C-17.8267 141.457 -17.8065 140.949 -17.8422 140.452C-17.5451 140.522 -17.2456 140.581 -16.9497 140.642C-14.6906 141.104 -12.4077 141.44 -10.1105 141.649C-8.95663 141.753 -7.79915 141.827 -6.64167 141.868C-5.79079 141.899 -4.90901 141.958 -4.04506 141.926C-4.11279 143.983 -4.14369 146.041 -4.14013 148.099C-4.13775 149.583 -4.11755 151.068 -4.08071 152.553C-4.06051 153.333 -4.04387 154.114 -4.0201 154.895C-4.0094 155.246 -4.00941 155.6 -3.98564 155.949C-3.97851 156.058 -3.96306 156.164 -3.94286 156.268C-4.02129 156.49 -4.08665 156.709 -4.14013 156.914C-4.40157 157.909 -4.40157 158.865 -4.28511 159.879C-4.18529 160.74 -3.45919 161.537 -2.50016 161.235C-2.34448 161.186 -2.18881 161.135 -2.03432 161.083C-0.622521 161.243 0.797594 161.28 2.22959 161.307C4.32233 161.347 6.41626 161.36 8.51018 161.371C12.6172 161.392 16.7255 161.403 20.8337 161.415C29.0894 161.439 37.345 161.461 45.6007 161.485C47.8919 161.492 50.1831 161.498 52.4743 161.505C53.6603 161.508 54.8439 161.51 56.0288 161.555C56.5814 161.576 57.1351 161.606 57.6877 161.614C58.3283 161.625 58.8951 161.441 59.5071 161.274C59.853 161.178 59.9896 160.832 59.9159 160.539C60.4697 160.671 61.1412 160.391 61.3301 159.769C61.468 159.318 61.4169 158.828 61.2113 158.41V158.409C60.8144 155.91 60.3105 153.423 59.9148 150.923C59.481 148.185 59.0639 145.442 58.6967 142.693C58.421 140.617 58.194 142.088 57.9979 140.003C58.8523 140.07 59.8185 139.81 60.6646 139.7C61.2719 139.622 61.8839 139.559 62.4924 139.476C62.4472 140.087 62.4603 140.71 62.4436 141.297C62.4115 142.462 62.4258 143.622 62.4555 144.786C62.5126 147.034 62.6397 145.726 62.8429 147.964C63.0485 150.219 63.3005 152.465 63.6059 154.709C63.7627 155.864 63.9303 157.018 64.1074 158.171C64.1894 158.709 64.2737 159.246 64.3605 159.784C64.4639 160.417 64.4972 161.018 64.9737 161.494C65.3362 161.856 66.0765 161.825 66.3166 161.321C66.6208 160.685 66.4829 160.14 66.37 159.472C66.2785 158.935 66.1906 158.398 66.1038 157.862C65.9185 156.711 65.7426 155.56 65.5774 154.407C65.2589 152.185 64.9583 149.96 64.6897 147.733C64.4187 145.488 64.1383 146.799 63.8721 144.554C63.7378 143.421 63.6035 142.291 63.4466 141.162C63.367 140.581 63.3171 139.963 63.2125 139.365C63.2458 139.36 63.2791 139.354 63.3123 139.348C64.0349 139.216 64.6516 138.81 64.8335 138.068C65.007 137.359 64.8002 136.542 64.654 135.846C64.5292 135.252 64.4165 134.495 64.0333 133.987C65.3833 132.272 66.2614 130.115 66.8215 128.041C67.4316 125.781 67.687 123.423 67.7411 121.088C67.8038 118.383 67.5993 115.693 67.1343 113.048C67.1234 112.488 67.0975 111.927 67.0557 111.368C66.6469 105.875 64.9309 99.3742 59.4905 96.8078C59.4691 96.7972 59.4465 96.7876 59.424 96.7782C58.9973 96.2699 58.4649 95.8125 58.0347 95.385C57.273 94.6266 56.4768 93.9015 55.633 93.2332C53.9622 91.9099 52.1297 90.8531 50.2247 89.9016C48.2983 88.9383 46.3435 88.0345 44.4611 86.9834C42.8211 86.0664 41.3451 84.9622 39.944 83.7158C38.3694 82.3141 37.2488 80.4244 36.8091 78.3616C36.7865 78.2539 36.6261 78.2836 36.6237 78.3865C36.5084 82.1672 39.0682 85.5084 42.0142 87.622C45.5365 90.147 49.7898 91.3423 53.362 93.7902C54.2498 94.398 55.0804 95.084 55.8707 95.8125C54.6597 95.6893 53.4274 95.7675 52.2925 96.1016C51.8457 96.0744 51.3965 96.0662 50.9484 96.0448C49.9241 95.9938 48.8985 95.9465 47.8729 95.9014C45.7825 95.8091 43.691 95.725 41.5994 95.6515C37.496 95.5069 33.3913 95.3979 29.2866 95.3257C21.0381 95.1799 12.7788 95.1514 4.53148 95.3897C2.29495 95.4537 -9.46526 95.0094 -10.5538 95.1348C-8.95307 93.7534 -7.19664 92.6256 -5.26552 91.6977C-2.84955 90.5402 -0.352759 89.7677 2.22721 89.0616C7.54046 87.6078 13.0581 86.2062 17.3101 82.5132C18.3666 81.595 19.3054 80.5394 20.0743 79.37C20.8087 78.2539 21.6251 76.825 21.6454 75.4636C21.6596 74.4969 20.3096 74.1449 19.8295 74.9731C19.5312 75.4861 19.3839 76.0489 19.1402 76.5868C18.8978 77.12 18.6102 77.6342 18.2906 78.126C17.6619 79.0928 16.8823 79.9552 16.0338 80.7336C14.2251 82.3947 12.0337 83.6115 9.7663 84.5321C4.61823 86.6209 -1.01231 87.5024 -5.89061 90.256C-8.02494 91.4608 -10.0678 93.1232 -11.35 95.2438C-11.5568 95.276 -11.7624 95.3137 -11.968 95.3564C-11.8147 95.1633 -11.6602 94.9703 -11.5045 94.7782C-11.4023 94.6526 -11.5604 94.4869 -11.6852 94.5981C-14.1106 96.7497 -16.3448 99.0731 -18.3698 101.606C-20.3069 104.03 -22.1132 106.571 -23.3919 109.409C-25.6902 114.509 -26.1965 120.341 -25.0093 125.794C-24.686 127.28 -24.2297 128.735 -23.6486 130.141C-23.3491 130.867 -23.0247 131.583 -22.6634 132.281" fill="black"/>
<path fill-rule="evenodd" clip-rule="evenodd" d="M29.6988 25.9298C36.4465 25.9298 44.8977 33.6038 47.3712 36.8694C49.4507 39.615 49.1566 53.7592 49.1566 62.1496C49.1566 63.9044 48.3609 67.2256 48.0721 68.9041C47.0137 75.055 42.4025 80.2135 33.2759 80.2135C25.8447 80.2135 20.1259 77.8668 14.5957 71.8648C13.3341 70.4954 7.17252 75.3975 5.9124 73.6322C2.62099 73.6322 -0.131178 42.9722 6.33107 33.776C12.7933 24.5798 22.9511 25.9298 29.6988 25.9298Z" fill="white"/>
<path fill-rule="evenodd" clip-rule="evenodd" d="M9.41816 28.0893C13.3172 24.5527 18.5116 22.8513 23.7524 22.9769C26.4667 23.0421 29.1714 23.5575 31.7347 24.4402C33.017 24.8833 34.2589 25.4615 35.4461 26.1155C35.8739 26.3506 36.2683 26.6261 36.648 26.9187L36.7426 26.9922H36.7438C37.7622 27.3571 38.6713 28.0123 39.4961 28.7789C41.1491 28.6474 42.8152 28.7955 44.4136 29.3038C46.6382 30.0123 48.6977 31.3096 50.1439 33.152C51.8286 35.2969 52.3886 37.8985 52.1888 40.5843L52.1519 41.0406C51.9543 43.4131 51.6003 46.4647 49.6472 48.0236C49.4987 48.1421 49.3347 48.2321 49.1647 48.2866C50.4232 50.4358 51.4559 52.822 52.0739 55.2319C54.4328 64.4366 52.6193 74.0358 49.7827 82.9076C49.5497 83.6386 48.441 84.1244 47.8765 83.41C46.8688 82.1328 45.4047 81.1589 43.7576 80.9764C42.7415 80.8638 41.7302 81.0676 40.77 80.6079C40.3933 80.4266 40.0296 80.1304 39.7682 79.7703C38.1472 80.3828 36.4015 80.6719 34.67 80.6008C31.8286 80.4847 28.7911 79.5037 26.8362 77.3521C26.5225 77.0067 26.443 76.6189 26.5153 76.2694C26.7604 76.1822 27.0121 76.1173 27.2714 76.0767C29.7504 77.5332 32.4829 78.5066 35.4197 78.5677C37.1166 78.603 38.7717 78.3664 40.1476 77.31C40.4453 77.0814 40.7191 76.8282 40.9723 76.5561C43.849 74.7112 45.8772 71.5775 46.8414 68.2208C47.7398 65.0906 47.6293 61.8312 47.3203 58.6204L47.1573 56.9261C46.9197 54.4393 46.6993 51.9451 46.6375 49.4477L46.6562 49.4468V49.4468C47.2637 49.4077 47.2681 48.4595 46.6562 48.4989C45.0734 48.6011 43.5026 48.3422 41.9246 48.455C41.9114 47.7113 41.8577 46.9709 41.6385 46.2536C41.5133 45.8438 40.7976 45.763 40.7217 46.2536C40.6203 46.91 40.5832 47.5627 40.5721 48.222C38.2107 48.1908 35.8515 47.9927 33.4897 48.0741C33.0541 47.6108 32.9154 46.7894 32.7116 46.2179C32.6819 46.1338 32.6522 46.0509 32.6213 45.9668C32.4422 46.7833 32.1883 47.582 31.8544 48.3639L31.2752 48.3658C27.9887 48.3812 24.6354 48.4791 21.4263 49.1596C21.2032 48.9888 21.0705 48.691 21.0346 48.4205C20.8018 46.6604 20.4696 44.9471 19.8808 43.2697L19.7965 43.0331C19.7896 43.0135 19.7824 42.9926 19.7748 42.9707C19.3409 43.6689 18.8232 44.3197 18.2586 44.9257C17.9259 45.2829 17.577 45.6245 17.2189 45.9563C16.8711 46.3414 16.5116 46.7207 16.1632 47.1069C16.1768 47.1772 16.1887 47.2485 16.1983 47.3211C16.3049 48.1226 16.316 48.9355 16.2379 49.7401C16.0967 51.1947 15.6848 52.5963 15.0232 53.893L15.0022 54.0228C14.9017 54.6304 14.7588 55.2584 14.4249 55.716C14.8416 56.1814 15.1625 56.7373 15.3486 57.3549C15.5143 57.9048 14.7512 58.3813 14.3555 57.9313C14.0412 57.5739 13.6919 57.278 13.3083 57.042C13.2841 57.0749 13.2403 57.091 13.1913 57.0636C12.1229 56.4724 10.3083 56.6513 9.24109 57.2081C7.91367 57.9001 7.39553 59.3206 7.54289 60.7602C7.68431 62.1357 8.28801 63.7435 9.45856 64.4484C9.99571 64.7719 10.414 64.7991 10.9844 64.6439C11.1668 64.5946 11.3929 64.4431 11.49 64.3678L11.5855 64.2915C11.9595 63.9968 12.3077 63.7951 12.7492 63.7873C13.2007 63.647 13.6544 63.8417 13.8271 64.3137L13.8377 64.3442C13.9186 64.5847 14.0659 64.8868 14.0338 65.2541C14.0005 65.6475 13.8199 66.0053 13.5502 66.2932C13.5038 66.3429 13.4539 66.3927 13.4028 66.4389C18.0494 71.4542 18.6459 79.2691 16.2632 85.5343C16.1598 85.8092 16.0493 86.0805 15.934 86.3495C15.5359 87.2712 14.0029 86.9857 13.808 86.0722C13.7498 85.7985 13.6856 85.526 13.6155 85.2559C13.4866 84.7567 13.339 84.2622 13.1726 83.7748L13.1093 83.5924C12.9678 83.1896 12.8359 82.7832 12.6933 82.3804L12.6791 82.3343C12.6737 82.3161 12.6678 82.2951 12.6612 82.2714L12.42 82.7962V82.7962L11.6868 84.3803C11.3437 85.1195 10.2535 84.7178 10.213 84.0054L10.212 83.981C10.2084 83.8495 10.2037 83.7192 10.1954 83.5901C10.1431 82.6221 9.97551 81.6813 9.70931 80.7608L9.61327 80.8797C8.18318 82.6425 6.5048 84.2947 4.20236 84.7014C3.6248 84.8033 2.97119 84.2014 3.36811 83.6197C3.53211 83.3792 3.69016 83.1327 3.8399 82.8827C3.71037 82.8223 3.58796 82.7595 3.47507 82.6955C2.60161 82.2062 1.87432 81.5096 1.273 80.7193C-0.00213281 79.044 -0.458471 76.935 -0.570179 74.8711C-0.689017 72.6899 -0.496499 70.3902 0.101256 68.286C0.360323 67.3761 0.710895 66.5029 1.11613 65.6558C1.08761 65.5799 1.06028 65.5041 1.03295 65.4283C0.595622 64.2127 0.236731 62.9698 -0.0615519 61.7127C-0.662872 59.1749 -0.986112 56.5565 -1.02533 53.9488C-1.09663 49.2771 -0.288532 44.5308 1.41442 40.1743C3.17322 35.6815 5.81855 31.3535 9.41816 28.0893ZM7.22815 68.9341C6.90519 68.4271 6.0971 68.884 6.39698 69.3945L6.40816 69.4128C6.92036 70.2173 7.16041 71.1319 7.45513 72.0288C7.64408 72.6058 8.5627 72.3594 8.37137 71.7765L8.30803 71.5818C8.01476 70.6723 7.74723 69.748 7.22815 68.9341ZM10.0407 59.2567L10.2553 59.1531C10.9321 58.8311 11.5251 58.6118 12.3248 58.8929C13.3955 59.2685 14.5423 60.464 13.8186 61.6239C13.5524 62.0516 13.0794 62.2222 12.5922 62.1215C11.7708 61.9517 11.5588 61.2142 11.142 60.6088L11.0703 60.5063C10.8161 60.14 10.4947 59.6336 10.0716 59.4901C9.97539 59.4569 9.93498 59.3076 10.0407 59.2567ZM10.6446 34.6296L10.7137 34.5678C11.1736 34.1626 10.4986 33.4944 10.041 33.8972C7.94712 35.742 7.21983 38.6293 6.13365 41.0902C5.89003 41.6435 6.70883 42.1269 6.95482 41.5688C7.99092 39.2206 8.67866 36.4116 10.6446 34.6296V34.6296ZM35.8074 33.8226C35.2603 33.5768 34.7816 34.3706 35.3076 34.632L35.3273 34.6413C37.1764 35.4742 37.9631 37.3604 38.7166 39.1116C38.9566 39.6708 39.7754 39.1886 39.5377 38.6341L39.4018 38.3199C38.6156 36.5153 37.6987 34.6758 35.8074 33.8226ZM38.7055 32.6828C38.1256 32.4826 37.8772 33.3973 38.4524 33.5975C40.0199 34.1413 41.0954 35.3143 42.0021 36.6555C42.342 37.1578 43.1655 36.6839 42.8221 36.1768C41.7692 34.62 40.519 33.3131 38.7055 32.6828Z" fill="black"/>
<path fill-rule="evenodd" clip-rule="evenodd" d="M35.5228 71.8941C34.7239 71.5692 34.0111 71.0272 33.49 70.3349C33.3088 70.0942 33.2619 69.84 33.2999 69.6076C33.3426 69.3462 33.4977 69.1093 33.7092 68.9504C33.9214 68.791 34.1869 68.7124 34.4435 68.7524C34.6664 68.7872 34.8884 68.909 35.0641 69.1614L35.1008 69.2119C35.4106 69.6298 35.8143 69.9726 36.2743 70.1936C36.7177 70.4066 37.2135 70.506 37.7267 70.4482C38.704 70.3381 39.3776 69.8112 40.0935 69.0956C40.1823 69.0053 40.2711 68.9121 40.3603 68.8174C40.4167 68.7316 40.4949 68.6764 40.5817 68.6475C40.6781 68.6154 40.7872 68.6172 40.8871 68.6519C40.9834 68.6855 41.0695 68.749 41.1273 68.8335C41.1822 68.9139 41.2133 69.0131 41.2032 69.1273C41.1377 69.8689 40.7488 70.5307 40.1964 71.0504C39.5829 71.6276 38.7697 72.0268 38.004 72.1669C37.1605 72.3212 36.301 72.2106 35.5228 71.8941V71.8941ZM38.4019 60.4537C39.2993 60.9976 40.6667 62.2657 39.7013 63.6139C38.565 64.8026 36.9289 63.4396 36.1226 62.8232C35.375 62.3455 34.5351 63.5742 35.2287 64.132C41.0546 68.4323 43.4189 60.5959 38.8558 59.8143C38.3534 59.7282 38.1668 60.2855 38.4019 60.4537ZM27.9619 55.4515C28.0611 54.2244 29.9355 53.9458 30.1219 55.16C30.2889 56.2476 30.0923 57.2468 29.6009 58.226C29.1314 59.1615 27.9513 58.7251 27.862 57.8732C27.7424 56.7313 27.9002 56.2147 27.9619 55.4515ZM42.2301 54.9082C42.4914 54.567 42.8687 54.334 43.3208 54.4657C44.7331 54.8772 44.3169 56.8763 43.8208 57.8493C43.5513 58.3778 42.6801 58.5118 42.2864 58.0465C41.6447 57.2878 41.3373 55.7725 42.1532 55.0251C42.1753 54.9865 42.1999 54.9475 42.2301 54.9082ZM29.581 50.0824L29.8041 50.0435C30.4943 49.9245 31.3525 49.8101 31.8407 50.3634C32.0997 50.6567 32.1888 51.202 31.8407 51.4828C31.2285 51.9768 30.5516 51.7853 29.8179 51.8272C29.2132 51.8618 28.6321 51.9615 28.0497 52.1275C26.7719 52.4916 25.7308 53.1563 24.6395 53.8861C24.4963 53.9818 24.3501 53.7993 24.4185 53.6657C25.0484 52.4356 26.2693 51.4251 27.4921 50.8091C28.1448 50.4803 28.859 50.2076 29.581 50.0824ZM40.9425 49.5314L41.1133 49.5662C42.9716 49.9535 45.386 50.7271 46.2659 52.5468C46.2995 52.8042 46.2641 52.8593 46.2352 52.8953L46.2256 52.9073C46.2019 52.9381 46.183 52.9805 46.0711 53.0155C46.04 53.0082 46.0087 53.0004 45.977 52.9921C45.5736 52.8867 45.2545 52.7415 44.9455 52.5908L44.6105 52.4263C44.2219 52.2363 43.8298 52.0532 43.4142 51.9181C42.5274 51.6297 41.6153 51.4265 40.689 51.3181C40.4883 51.2946 40.295 51.227 40.1424 51.1113C39.9977 51.0014 39.8871 50.8492 39.8367 50.647C39.7713 50.3852 39.7901 50.1871 39.9309 49.951C40.0369 49.7737 40.1884 49.6507 40.3624 49.5802C40.5398 49.5082 40.7418 49.4913 40.9425 49.5314Z" fill="black"/>
<path fill-rule="evenodd" clip-rule="evenodd" d="M48.4228 61.5142C47.6227 62.5858 46.1393 62.9272 44.7711 62.8093C41.8203 62.5261 40.8915 59.1848 40.7948 56.5879C42.7736 57.1428 40.6275 53.2124 47.3916 52.7802C49.7761 52.5821 49.1187 54.0178 50.1722 55.0668C50.1506 57.2684 49.783 59.6607 48.4228 61.5142M34.3677 58.9844C32.6256 67.1184 23.0855 65.1836 22.0833 57.8514C23.0087 57.2002 22.765 55.5923 23.9146 55.0098C25.7367 53.8491 28.0143 53.8988 30.0834 53.926C32.7281 54.1072 33.4818 55.1995 34.8404 56.3911C34.775 57.1871 34.5865 58.1304 34.3677 58.9844M52.202 51.4331C52.1042 51.4169 52.0062 51.4016 51.9083 51.3872C51.8319 51.344 51.7422 51.3107 51.6378 51.2907C51.3996 51.2304 51.163 51.1897 50.9267 51.1678C47.536 50.407 39.6919 51.4872 39.3682 54.372C38.2884 54.7313 37.3541 54.4095 36.1026 54.4415C35.15 50.4719 18.6811 51.0321 17.889 53.4254C17.8861 53.4246 17.8831 53.4239 17.88 53.423C17.119 53.1881 15.997 53.2448 15.1259 53.2076C13.266 53.1687 11.4039 53.334 9.58414 53.7251C6.17646 54.265 1.52573 54.8971 3.89572 59.1396C3.8962 59.1403 3.89655 59.1412 3.89715 59.1419L3.8975 59.1415C4.30595 59.5589 4.99913 59.2228 5.02492 58.6578C4.22811 56.6479 6.02779 56.4065 7.4125 55.8289C10.858 54.5948 14.3658 54.4238 17.9293 54.8055C18.1974 55.1202 18.6042 55.3946 19.0341 55.5382C21.4167 55.9325 20.1611 57.6945 21.6671 57.9508C21.3905 64.093 28.8703 67.4458 33.2042 63.4081C34.9346 61.7214 35.347 59.2228 35.7482 56.9706C35.9604 56.9231 36.0953 56.8075 36.174 56.6544C36.6842 56.1466 37.0047 55.6776 38.0135 55.5382C39.0224 55.3988 39.799 55.6786 39.904 55.7642C39.9305 55.8174 39.9589 55.8708 39.992 55.9241C40.0381 56.0036 40.1008 56.067 40.1721 56.1168C39.1759 62.2332 43.9386 66.1014 48.7466 62.9291C50.8358 60.9698 51.2773 57.9701 51.3645 55.2927C51.6477 55.1223 51.827 54.7921 51.729 54.377C51.5939 53.8047 51.9107 53.3092 52.4153 53.0604C53.0709 52.7373 52.9549 51.5574 52.202 51.4331" fill="black"/>
</g>
<g clip-path="url(#clip3_20_770)">
<path fill-rule="evenodd" clip-rule="evenodd" d="M24.6444 149.254C24.2688 152.698 23.4181 156.492 25.0398 159.742C24.0185 159.788 24.847 160.083 25.3982 160.185C25.7129 160.429 26.1359 160.525 26.5337 160.491C28.5989 160.928 30.7309 161.086 32.8279 161.333C59.0095 163.509 85.3666 162.931 111.597 161.994C112.45 161.957 113.023 161.337 113.088 160.502C114.049 148.214 114.528 135.887 114.503 123.562C114.076 119.23 117.349 120.92 115.603 115.213C114.2 109.192 112.122 103.332 109.474 97.7486C107.643 94.115 105.918 90.2918 103.127 87.2786C102.245 87.1568 101.494 86.2805 100.749 85.7911C99.9943 85.644 99.4348 85.0029 98.6699 84.8057C97.2122 84.4264 93.95 83.6196 92.7085 84.5899C92.6594 84.5765 92.6098 84.5651 92.5607 84.5511C92.3177 84.8207 91.984 84.6185 91.8027 84.3763C91.1824 83.8946 88.4711 83.845 88.1634 83.1056C86.5592 81.65 86.13 78.5864 86.13 76.794C85.5302 76.1198 85.4887 76.245 84.6744 75.8886C83.8761 74.8813 82.9117 74.0039 81.8353 73.3122C75.7777 69.3332 66.9872 73.526 65.5691 80.4421C63.3274 82.2178 61.0199 84.0216 58.2742 84.9468C56.9342 84.2572 55.4077 84.0371 53.9856 84.0357C52.9255 83.9972 51.4606 83.384 50.7717 84.5001C39.1814 88.2957 32.1864 99.3351 27.2124 109.795C26.5152 111.284 25.6812 112.844 25.8945 114.54C26.0412 116.572 28.2457 117.782 27.8291 119.935C27.2236 125.859 26.5348 131.777 25.9045 137.699C25.4844 141.551 25.0644 145.403 24.6444 149.254Z" fill="white"/>
<path fill-rule="evenodd" clip-rule="evenodd" d="M109.436 120.995C108.686 121.266 107.636 121.531 107.1 122.144C107.038 121.573 106.976 121.001 106.913 120.43C108.483 120.393 110.057 120.379 111.628 120.335C110.886 120.516 110.153 120.735 109.436 120.995M105.986 156.941C105.445 156.946 104.903 156.984 104.363 157.005C103.323 157.045 102.283 157.085 101.243 157.124C99.1205 157.203 96.9984 157.28 94.8761 157.354C90.6733 157.5 86.4701 157.635 82.2665 157.759C73.8593 158.006 65.4479 158.156 57.0419 158.439C54.7099 158.517 52.378 158.578 50.048 158.705C48.8407 158.771 47.6277 158.828 46.4261 158.968C45.4124 159.086 44.4131 159.285 43.4051 159.433C43.4727 158.119 43.5361 156.805 43.6019 155.491C43.6643 154.248 43.7225 153.005 43.7803 151.761C47.7152 151.967 51.6548 152.05 55.595 152.085C59.7629 152.123 63.9295 152.226 68.0976 152.234C76.3492 152.251 84.6015 152.147 92.8529 152.064C95.1865 152.04 97.5205 152.017 99.8543 151.993C101.021 151.982 102.188 151.97 103.355 151.958C103.937 151.952 104.523 151.965 105.105 151.941C105.727 151.915 106.104 151.738 106.555 151.32C106.795 151.097 106.805 150.643 106.555 150.422C106.193 150.102 105.857 149.857 105.355 149.821C104.863 149.786 104.349 149.834 103.855 149.841C102.772 149.855 101.688 149.869 100.604 149.883C98.5206 149.911 96.4369 149.938 94.3531 149.966C90.1855 150.021 86.0179 150.077 81.8505 150.14C77.7662 150.202 73.6815 150.249 69.5979 150.352C65.4284 150.457 61.2638 150.646 57.0953 150.78C52.6582 150.923 48.2234 151.093 43.7963 151.426C43.9027 149.121 44.0007 146.816 44.0929 144.511C52.8831 144.99 61.6793 145.33 70.4842 145.345C79.6574 145.361 88.8301 145.204 97.9999 144.965C99.2921 144.931 100.584 144.897 101.876 144.856C102.543 144.835 103.21 144.816 103.877 144.792C104.367 144.774 104.871 144.753 105.314 144.518C106.188 144.056 106.339 142.704 105.302 142.335C104.734 142.132 104.133 142.33 103.995 142.842C103.952 142.846 103.912 142.849 103.877 142.851C103.377 142.869 102.876 142.883 102.376 142.899C101.293 142.933 100.209 142.969 99.1254 143.003C97.1247 143.065 95.1239 143.123 93.123 143.176C89.038 143.284 84.9524 143.373 80.8664 143.441C72.7768 143.576 64.6878 143.7 56.5991 143.885C52.4338 143.981 48.2697 144.104 44.1048 144.21C44.2043 141.704 44.2982 139.198 44.3829 136.692C44.3928 136.398 44.4036 136.104 44.4143 135.811C45.0111 135.942 45.6222 136.015 46.2303 136.101C47.2853 136.25 48.3437 136.36 49.4033 136.472C51.3998 136.683 53.4028 136.812 55.4067 136.923C59.4922 137.148 63.5788 137.307 67.6685 137.432C75.7585 137.678 83.8585 137.732 91.9518 137.704C96.3466 137.689 100.768 137.747 105.161 137.556C105.431 137.63 105.71 137.622 105.98 137.534C106.202 141.452 106.436 145.368 106.666 149.286C106.821 151.929 106.958 154.581 107.148 157.224C106.776 157.041 106.434 156.937 105.986 156.941M29.827 117.139C29.0563 116.761 28.2063 116.417 27.5259 115.883C26.7822 115.299 26.5995 114.613 26.8281 113.696C26.8451 113.627 26.8652 113.559 26.883 113.491C32.3636 113.504 37.8303 113.263 43.3085 113.133C48.8743 113.001 54.4381 112.89 60.0054 112.858C71.1082 112.796 82.2097 113.046 93.3072 113.358C97.3039 113.47 101.3 113.581 105.297 113.69C105.206 114.665 105.241 115.664 105.22 116.632C105.202 117.482 105.207 118.333 105.22 119.185C103.129 119.179 101.038 119.134 98.9474 119.111C93.7706 119.052 88.5966 119.201 83.421 119.319C73.0703 119.556 62.7169 119.743 52.3682 120.055C49.5575 120.139 46.7287 120.184 43.905 120.304C43.8079 119.845 43.7002 119.388 43.5786 118.934C43.3854 118.212 43.1674 117.471 42.5898 116.97C42.562 116.946 42.5237 116.956 42.5112 116.991C42.2918 117.599 42.3473 118.218 42.4115 118.855C42.4623 119.359 42.4967 119.864 42.5222 120.369C40.7664 120.462 39.0142 120.592 37.2712 120.786C36.7729 120.54 36.2742 120.294 35.7749 120.049C33.7925 119.078 31.8096 118.109 29.827 117.139M93.4541 135.25C89.3649 135.283 85.2754 135.287 81.1863 135.26C73.092 135.209 65.0004 135.009 56.9079 134.848C54.6556 134.804 52.4063 134.76 50.1537 134.76C48.9874 134.76 47.8173 134.767 46.6524 134.818C45.9192 134.85 45.1758 134.854 44.446 134.942C44.5341 132.584 44.6258 130.223 44.6229 127.863C52.3432 129.033 60.1465 129.354 67.9431 129.584C75.8419 129.817 83.7426 129.938 91.6449 129.95C93.8906 129.953 96.1364 129.948 98.382 129.935C99.4632 129.929 100.544 129.92 101.626 129.91C102.207 129.905 102.791 129.917 103.372 129.892C103.986 129.866 104.357 129.721 104.786 129.284C105.005 129.06 105.017 128.674 104.786 128.452C104.02 127.713 103.12 127.873 102.125 127.886C101.127 127.898 100.129 127.909 99.1305 127.918C97.1345 127.936 95.1382 127.948 93.142 127.953C89.2329 127.963 85.3237 127.948 81.4147 127.908C73.5145 127.827 65.616 127.651 57.7177 127.466C53.3511 127.364 48.9854 127.392 44.6224 127.604C44.6208 127.212 44.6171 126.82 44.6095 126.428C44.5807 124.944 44.4362 123.461 44.2102 121.993C46.3484 121.986 48.4866 121.94 50.6152 121.913C55.7912 121.847 60.9661 121.742 66.1415 121.638C71.2753 121.535 76.409 121.432 81.5428 121.329C86.6733 121.227 91.8196 121.219 96.944 120.942C99.7094 120.792 102.476 120.589 105.243 120.482C105.249 120.736 105.254 120.991 105.26 121.245C105.326 124.362 105.448 127.477 105.605 130.592C105.681 132.088 105.76 133.585 105.842 135.081C105.803 135.077 105.762 135.075 105.721 135.074C101.635 135.047 97.5408 135.217 93.4541 135.25M28.7477 108.173C29.2158 106.968 29.7244 105.771 30.274 104.591C32.6077 105.25 35.0971 105.59 37.5055 105.816C40.0695 106.057 42.6386 106.192 45.2131 106.245C50.2886 106.349 55.3642 106.108 60.4344 105.898C70.863 105.467 81.2905 105.153 91.7289 105.133C94.644 105.127 97.559 105.14 100.474 105.173C101.931 105.19 103.389 105.209 104.846 105.234C105.595 105.247 106.345 105.262 107.094 105.277C107.426 105.284 107.762 105.308 108.093 105.298C108.537 105.285 108.861 105.151 109.272 104.991C109.745 104.807 110.023 104.017 109.434 103.755C108.845 103.493 108.372 103.34 107.719 103.325C107.011 103.31 106.303 103.296 105.595 103.283C104.305 103.259 103.014 103.24 101.723 103.224C99.0998 103.191 96.4762 103.177 93.8528 103.177C88.689 103.178 83.5253 103.239 78.363 103.361C67.9992 103.604 57.6585 104.327 47.2984 104.637C44.4429 104.723 41.582 104.74 38.7263 104.654C35.9604 104.571 33.2003 104.338 30.4377 104.24C31.392 102.228 32.4716 100.268 33.6899 98.4044C38.2952 98.5663 42.8906 98.4466 47.4968 98.3063C49.914 98.2326 52.3311 98.158 54.7479 98.075C55.9564 98.0336 57.1649 97.9922 58.3734 97.9508C58.9568 97.9307 59.5402 97.9108 60.1237 97.8908C60.7521 97.8692 61.4136 97.9099 62.0239 97.7446C62.1345 97.7146 62.2223 97.6506 62.2884 97.5691C63.9131 98.4052 65.6315 99.0648 67.3986 99.5535C71.2343 100.615 75.3597 101.013 79.3268 100.686C82.5105 100.424 85.6832 99.6357 88.4823 98.0922C94.8036 98.6744 101.213 98.4008 107.548 98.3594C108.153 98.3555 108.405 97.8008 108.304 97.3433C110.337 101.726 111.684 106.478 112.944 111.1C113.727 113.972 114.424 116.862 115.087 119.763C115.06 119.765 115.032 119.768 115.005 119.77C115.082 119.453 114.909 119.078 114.474 119.068C111.91 119.009 109.338 119.157 106.773 119.18C106.701 118.539 106.629 117.897 106.553 117.255C106.449 116.381 106.326 115.509 106.22 114.636C106.182 114.319 106.146 114.013 106.102 113.712C108.133 113.767 110.164 113.823 112.194 113.877C113.512 113.912 113.51 111.87 112.194 111.83C101.036 111.488 89.8764 111.142 78.714 110.953C67.5448 110.763 56.3371 110.646 45.1765 111.219C39.0945 111.531 33.0276 111.948 27.0213 112.978C27.4878 111.349 28.1385 109.741 28.7477 108.173M38.2455 92.6594C38.4476 92.811 38.5123 92.9066 38.8144 92.9597C39.1419 93.0171 39.4787 93.0354 39.8094 93.0678C40.5168 93.137 41.2261 93.1629 41.936 93.1965C43.3534 93.2639 44.7708 93.3352 46.1892 93.3783C49.005 93.4638 51.8811 93.5849 54.6956 93.4597C55.3841 93.429 55.6974 92.8611 55.6348 92.3436C56.1626 92.9975 56.7398 93.6114 57.3544 94.1711C58.3426 95.0707 59.4094 95.8682 60.534 96.5719C59.8044 96.5986 59.0615 96.6901 58.373 96.7197C57.2062 96.7697 56.0393 96.8198 54.8725 96.87C52.4136 96.9756 49.955 97.0891 47.4965 97.204C42.9464 97.4167 38.4118 97.6815 33.8791 98.1157C35.1736 96.1695 36.6237 94.3337 38.2455 92.6594M112.302 102.113C110.379 96.8338 107.901 91.35 103.44 87.7241C101.148 85.8604 98.5935 84.5711 95.7008 83.9603C95.612 83.9415 95.5766 84.068 95.6633 84.0965C100.666 85.7383 104.367 90.0825 106.872 94.5346C107.325 95.3413 107.746 96.1674 108.143 97.006C108.014 96.8481 107.816 96.743 107.548 96.7476C101.633 96.847 95.6479 96.7467 89.7459 97.3248C89.8966 97.2244 90.0472 97.1242 90.195 97.0186C91.8073 95.8691 93.258 94.4627 94.4572 92.8697C95.1795 93.0529 95.9399 93.0976 96.6769 93.1677C97.6605 93.2612 98.6508 93.304 99.6375 93.3571C100.623 93.4099 101.612 93.4149 102.598 93.4388C103.276 93.4552 104.601 93.5678 104.602 92.5305C104.602 91.4921 103.276 91.602 102.598 91.6156C101.612 91.635 100.623 91.6379 99.6375 91.6842C98.6927 91.7284 97.7422 91.7641 96.8002 91.8487C96.2255 91.9003 95.6343 91.9342 95.0566 92.0255C95.9967 90.6222 96.7452 89.0936 97.2449 87.4813C97.2952 87.3191 97.3117 87.1675 97.3035 87.027C97.5155 86.8033 97.6507 86.4967 97.6507 86.2159C97.6507 85.548 97.1305 85.1568 96.5225 85.0871C94.116 84.8119 91.4647 84.4198 89.5254 82.837C88.6502 82.1227 87.9462 81.2783 87.2837 80.3696C86.5392 79.3482 86.2601 78.0615 86.2572 76.8112C86.2571 76.7411 86.1408 76.7199 86.1301 76.794C85.7657 79.3288 86.2913 82.2223 88.1098 84.1215C89.8953 85.9861 92.3207 86.6846 94.782 87.0926C93.7672 89.9922 92.0922 92.5393 89.7405 94.5422C87.1201 96.774 83.803 97.9677 80.4211 98.4182C76.7725 98.9042 72.9485 98.6679 69.3605 97.8746C65.9041 97.1101 62.523 95.743 59.7099 93.5614C58.2907 92.4606 56.9851 91.163 55.8475 89.7744C54.9086 88.6283 54.1887 87.3502 53.3827 86.1224C56.3896 86.9471 60.0251 85.8205 62.5439 84.229C64.0274 83.2919 65.3271 82.1218 66.3949 80.7299C66.9215 80.0433 67.39 79.3186 67.7763 78.5437C67.9773 78.1407 68.1579 77.726 68.3241 77.3075C68.4269 77.049 68.5276 76.7835 68.5276 76.4993C68.527 76.2899 68.4743 76.0949 68.3694 75.9142C68.1539 75.6855 68.111 75.6192 68.2407 75.7151C68.0291 75.2816 67.4173 75.1716 67.026 75.3965C66.8801 75.4804 66.537 75.6429 66.3683 75.9142C66.2543 76.0977 66.1929 76.317 66.1199 76.5183C66.0046 76.8361 65.8885 77.1502 65.7437 77.4561C65.4075 78.1669 65.0044 78.8453 64.5445 79.4829C63.7039 80.6484 62.6235 81.7024 61.4466 82.525C60.2112 83.3885 58.8796 84.0944 57.4354 84.5352C55.9101 85.0006 54.4003 85.1397 52.8265 85.3102C52.8097 85.2869 52.7934 85.2634 52.7766 85.2402C52.7462 85.1983 52.6806 85.2118 52.678 85.2669C52.6767 85.2933 52.6774 85.3195 52.6766 85.3459C52.4522 85.4512 52.4336 85.7675 52.6836 85.889C52.7763 87.3453 53.4045 88.7795 54.0891 90.0398C54.3742 90.5647 54.6963 91.0733 55.0453 91.5646C54.9421 91.5252 54.826 91.5002 54.6958 91.4952C51.8803 91.3873 49.005 91.5263 46.1895 91.6294C44.8125 91.6798 43.4371 91.757 42.0612 91.8308C41.3521 91.8687 40.6413 91.8929 39.9346 91.9663C39.5813 92.0031 39.2258 92.0319 38.8743 92.0849C38.8488 92.0888 38.8251 92.0928 38.8028 92.0968C39.6724 91.2401 40.5889 90.4286 41.5566 89.6714C44.731 87.1872 48.3768 85.1632 52.2667 84.0624C52.3035 84.0519 52.2982 83.9888 52.2574 83.9931C44.5205 84.7846 38.0758 89.6619 33.5674 95.7859C31.0659 99.1841 29.1686 102.946 27.536 106.825C26.7131 108.78 25.9345 110.77 25.2825 112.79C24.9511 113.816 24.8017 114.904 25.2763 115.911C25.6404 116.684 26.3121 117.258 27.0162 117.714C27.063 117.745 27.1112 117.773 27.1584 117.802C26.4387 120.311 25.9565 122.885 25.4939 125.451C24.9913 128.239 24.5529 131.039 24.1764 133.846C23.4237 139.458 22.8472 145.082 22.5954 150.74C22.5258 152.305 22.4793 153.871 22.459 155.438C22.4488 156.221 22.4533 157.005 22.464 157.788C22.4761 158.665 22.3575 159.654 22.8037 160.437C23.3999 161.483 24.5578 161.123 25.0671 160.408C25.0745 160.417 25.0822 160.427 25.0897 160.437C25.1358 160.346 25.1745 160.255 25.2075 160.165C25.2623 160.044 25.298 159.918 25.3111 159.79C25.407 159.304 25.3709 158.811 25.367 158.283C25.3614 157.541 25.3657 156.798 25.3678 156.056C25.3719 154.654 25.3879 153.253 25.4277 151.852C25.5076 149.05 25.6637 146.251 25.8771 143.456C26.3011 137.905 26.9265 132.378 27.4618 126.838C27.7342 124.017 28.0629 121.188 28.1196 118.352C28.7803 118.7 29.462 119.015 30.1215 119.351C31.345 119.974 32.5684 120.597 33.7918 121.22C34.9784 121.825 36.1667 122.425 37.3555 123.025C38.5542 123.63 39.7449 124.43 41.0935 124.579C41.8144 124.658 42.0753 123.687 41.6505 123.233C41.0958 122.641 40.3593 122.272 39.6188 121.927C40.6026 121.963 41.5877 121.983 42.5733 121.99C42.5868 123.231 42.5431 124.474 42.4808 125.712C42.3278 128.748 42.115 131.779 41.9136 134.812C41.4949 141.117 41.0896 147.425 40.7733 153.736C40.6959 155.282 40.6184 156.828 40.5409 158.373C40.5033 159.125 40.451 159.877 40.4296 160.629C40.4058 161.473 40.4265 162.531 41.2071 163.052C41.7585 163.419 42.352 163.246 42.766 162.74C43.3195 162.064 43.3186 161.083 43.3632 160.253C43.3735 160.061 43.3826 159.869 43.3925 159.678C44.238 159.787 45.0773 159.939 45.9264 160.021C46.9636 160.123 48.0072 160.182 49.0489 160.209C51.173 160.264 53.2936 160.283 55.4184 160.283C59.6231 160.283 63.8275 160.211 68.0316 160.143C76.4401 160.008 84.8476 159.772 93.2532 159.511C95.5835 159.439 97.9137 159.363 100.244 159.284C101.451 159.242 102.657 159.201 103.864 159.158C105.006 159.117 106.254 159.265 107.259 158.672C107.288 159.033 107.318 159.394 107.349 159.754C107.41 160.438 107.89 161.025 108.62 161.025C109.305 161.025 109.894 160.444 109.89 159.754C109.634 153.52 109.08 147.285 108.641 141.06C108.238 135.343 107.86 129.618 107.283 123.915C107.447 124.021 107.647 124.086 107.882 124.087C108.635 124.091 109.387 123.623 110.092 123.375C110.802 123.125 111.525 122.908 112.257 122.73C112.691 122.625 113.126 122.536 113.563 122.461C113.51 123.354 113.523 124.254 113.507 125.143C113.481 126.51 113.439 127.876 113.406 129.242C113.34 131.935 113.317 134.627 113.266 137.32C113.162 142.748 112.992 148.173 112.702 153.594C112.622 155.083 112.532 156.573 112.433 158.061C112.38 158.847 112.325 159.632 112.267 160.417C112.21 161.189 112.077 162.009 112.368 162.749C112.377 162.743 112.386 162.738 112.395 162.733C112.598 163.37 113.488 163.675 113.909 162.951C114.565 161.82 114.414 160.201 114.489 158.929C114.57 157.565 114.642 156.2 114.707 154.835C114.835 152.104 114.924 149.373 114.976 146.639C115.079 141.172 115.062 135.696 114.727 130.236C114.636 128.744 114.508 127.253 114.377 125.764C114.278 124.647 114.224 123.5 114.05 122.383C114.901 122.257 115.759 122.184 116.626 122.163C117.464 122.142 118.005 121.385 117.827 120.585C116.435 114.312 114.499 108.146 112.302 102.113" fill="black"/>
<path fill-rule="evenodd" clip-rule="evenodd" d="M100.904 35.3578C100.862 33.8572 98.6798 33.2341 98.0495 34.7203C98.0103 34.7601 97.9678 34.7983 97.9279 34.8326C98.1252 34.6633 97.7127 34.9434 97.6456 34.978C97.5881 35.0077 97.5294 35.0344 97.4708 35.062C97.0654 31.2604 95.6891 27.1622 92.1326 25.254C87.1722 22.8476 81.4405 22.3779 75.9985 22.617C73.2417 22.7806 70.0583 23.2216 67.609 21.8264C66.8459 21.3917 66.2341 20.7074 65.3717 20.4387C62.6493 19.702 61.4144 22.4986 61.7852 24.7985C60.624 24.8076 59.4721 25.4508 58.971 26.5096C58.6767 27.1363 58.6818 27.8126 58.4281 28.4416C57.6495 30.0365 56.5354 31.183 57.1653 33.1168C56.0575 34.3778 56.6891 36.2869 57.583 37.4942C58.0244 38.1222 58.5501 38.725 58.8735 39.4279C59.1874 40.1009 58.7136 40.899 58.4499 41.537C56.5006 46.1611 56.612 51.2536 57.6609 56.0769C55.556 56.9906 54.9243 59.8467 56.2969 61.6451C56.7691 62.2809 57.3453 62.5168 57.9987 62.9079C58.8256 63.3632 58.1502 65.1868 58.415 66.0675C58.7748 68.2175 60.7317 69.5415 62.6666 68.1454C63.8944 67.9595 64.8847 71.5333 65.7764 72.4303C66.3257 73.1531 66.9356 73.8022 67.5986 74.4011C69.5743 79.4866 79.6981 82.0654 84.7034 81.771C89.9449 81.222 93.4809 76.7688 96.4253 72.8167C97.9372 70.7109 98.9205 68.3539 99.2782 65.7833C99.6374 63.1997 99.4802 60.6115 99.2374 58.0248C98.7272 52.5288 97.9224 44.611 97.4027 39.0557C99.2808 38.901 100.961 37.3013 100.904 35.3578V35.3578Z" fill="white"/>
<path fill-rule="evenodd" clip-rule="evenodd" d="M59.9618 32.0534C59.9601 32.0612 59.9627 32.0671 59.9645 32.0754C59.9648 32.073 59.9652 32.0717 59.9658 32.0688C59.9643 32.0626 59.9632 32.0584 59.9618 32.0534" fill="white"/>
<path fill-rule="evenodd" clip-rule="evenodd" d="M59.9613 32.1335C59.9544 32.1262 59.9446 32.1208 59.9348 32.1135C59.9346 32.1137 59.9344 32.114 59.9343 32.1143C59.9435 32.1203 59.9523 32.1272 59.9613 32.1335" fill="white"/>
<path fill-rule="evenodd" clip-rule="evenodd" d="M100.605 36.0679C101.222 35.5552 102.194 36.0273 101.985 36.8714C101.757 37.7908 100.772 38.419 99.959 38.7967C99.1221 39.1853 98.3069 39.2602 97.3938 39.2178L97.3825 39.2153V39.2153C97.636 40.2322 97.7798 41.2892 97.9737 42.3121C98.2198 43.61 98.4619 44.9084 98.7004 46.2075C98.9311 47.4631 99.2227 48.7204 99.4 49.9823C99.5787 51.2561 99.7503 52.5309 99.9259 53.8051C100.219 55.9333 100.456 58.0712 100.705 60.2055L100.824 61.2157C101.074 63.354 101.275 65.4949 100.801 67.6228C100.358 69.6171 99.3582 71.4774 98.1989 73.1421C97.0635 74.7722 95.7952 76.3396 94.4029 77.7575C91.7174 80.492 88.4058 82.6822 84.5226 83.0884C82.8506 83.2633 81.0649 83.0687 79.493 82.4607L79.3886 82.4199C77.7975 81.7914 75.8489 80.7153 75.4348 78.9495C75.1805 77.8663 76.2963 77.0206 77.2746 77.5346C77.7279 77.7728 78.0687 78.045 78.4408 78.3862L78.5068 78.4472C78.8109 78.7296 78.9279 78.8165 79.2787 79.0375C79.9984 79.4903 80.5378 79.7047 81.3552 79.9105C82.8622 80.2897 84.4886 80.2297 86.0185 79.7812C89.2667 78.829 91.7865 76.3443 93.9452 73.853C95.1173 72.5001 96.2298 71.0809 97.0878 69.5042C97.9881 67.8498 98.4037 66.1129 98.3788 64.2306C98.3505 62.1067 98.0571 59.9745 97.8646 57.8606C97.6684 55.7056 97.487 53.5513 97.3272 51.3933C97.1775 49.3695 97.163 47.3366 97.1107 45.3066L97.1004 44.926C97.0697 43.8483 97.0483 42.7702 97.0239 41.6922C96.9997 40.6174 96.9146 39.5289 97.0253 38.4586C97.0332 38.3807 97.1382 38.361 97.1637 38.4398C97.229 38.6403 97.286 38.844 97.34 39.0488C97.3483 39.0425 97.3575 39.0369 97.3688 39.033C98.0843 38.787 98.7433 38.296 99.2802 37.7664C99.7925 37.2611 100.06 36.5208 100.605 36.0679ZM61.4583 21.0095C61.9078 19.1628 63.9304 18.7503 65.426 19.6397C66.1454 20.0673 66.7214 20.6841 67.3934 21.1743C68.0615 21.6617 68.7998 22.0531 69.5789 22.3295C71.1267 22.8787 72.7595 23.0783 74.3953 23.0855C78.3768 23.1029 82.2768 21.9836 86.2642 22.1084C89.3495 22.205 92.6243 23.1172 94.8623 25.3484C96.0679 26.5504 96.8447 28.0956 97.2614 29.7362C97.4562 30.5029 97.6014 31.2882 97.7159 32.0717L97.7439 32.2675C97.808 32.7254 97.9108 33.2102 97.9204 33.673C97.929 34.0886 97.8239 34.5236 97.7669 34.9349C97.6469 35.8021 96.3043 35.7033 96.1114 34.9349C95.6721 33.1855 95.856 31.3799 95.3191 29.6365C94.8431 28.0905 93.9205 26.7387 92.5836 25.8142C86.944 21.914 79.7117 25.1801 73.4979 24.8767C71.9792 24.8025 70.4382 24.5678 69.0057 24.0446C68.2669 23.7748 67.5396 23.4458 66.8699 23.0319C66.2563 22.653 65.7247 22.1769 65.1566 21.7387L64.906 21.5482C64.5166 21.2551 63.8537 20.7969 63.4608 21.1846C63.2899 21.3533 63.2795 21.7349 63.2827 22.0263L63.2846 22.158C63.3024 23.3951 63.5544 24.6299 63.0917 25.825C62.8805 26.3702 62.2939 26.7139 61.7359 26.4052L61.7071 26.3886C60.5268 25.6862 58.9761 27.0976 59.8828 28.2657L59.911 28.3011C60.4211 28.9213 60.1491 30.0134 59.2361 30.0107L59.2033 30.0101C57.5766 29.9593 56.8548 31.9931 58.257 32.8817L58.3001 32.9083C59.4385 33.5898 58.44 35.2283 57.2732 34.6658C57.3721 34.7134 57.2002 34.7128 57.1019 34.8448C57.0074 34.9716 57.0004 35.0812 57.0229 35.2414C57.091 35.7265 57.5175 36.1354 57.8629 36.4423C58.6477 37.1396 59.6205 37.6211 60.6229 37.9143C64.6382 39.0886 68.7577 37.6521 72.6699 36.7846C76.7486 35.8802 81.3552 35.5159 84.9122 38.0823C84.9545 38.1127 84.9175 38.1806 84.8707 38.1535C82.318 36.6704 79.1915 36.8021 76.4011 37.4101C72.742 38.2074 69.1149 39.6916 65.3674 40.0826C66.4195 41.9406 66.8598 44.135 66.5788 46.2602C66.3853 47.7231 65.8033 48.9921 65.1159 50.278L64.9848 50.5231C64.3719 51.6773 63.8972 52.7677 63.8896 54.1049C63.8822 55.4335 61.9079 55.7136 61.5732 54.4186C60.8134 51.4778 63.5814 49.1614 64.7107 46.7363C65.676 44.6632 65.7057 42.2462 64.9246 40.1235C64.0432 40.1944 63.155 40.2018 62.2579 40.1218C61.4873 40.0529 60.6945 39.914 59.9218 39.6941L59.6127 40.9942C59.2031 42.7258 58.8237 44.4563 58.7087 46.2549C58.624 47.5766 58.6285 48.9048 58.7573 50.2232C58.8687 51.3618 59.1038 52.46 59.343 53.5717C59.5482 53.8425 59.6531 54.257 59.5954 54.5872C60.9276 54.9709 61.9754 56.0225 62.3582 57.4153C62.3815 57.5001 62.2629 57.5478 62.2185 57.4743C61.3102 55.9667 58.9712 55.4119 57.4916 56.4079C56.0787 57.3588 55.5213 59.2788 56.3212 60.7988C56.7418 61.5979 57.3656 62.1595 58.1699 62.5463L58.3316 62.6222C58.7531 62.8218 59.1399 63.0392 59.411 63.4399C59.7626 63.9597 59.7745 64.5092 59.7412 65.1031L59.7269 65.3438C59.7046 65.742 59.6996 66.1518 59.8182 66.5347L59.8451 66.6199C59.8764 66.7154 59.9092 66.7996 59.9663 66.8909C59.9834 66.918 60.1434 67.0751 60.1956 67.1319L60.2614 67.1518V67.1518L60.3349 67.1548V67.1548C60.4164 67.156 60.5236 67.1207 60.4884 67.1452L60.498 67.1397C60.5289 67.1204 60.5574 67.1001 60.5814 67.0819L60.6269 67.0464C60.7334 66.8924 60.8669 66.7651 61.0306 66.6681L61.187 66.5985V66.5985C61.5933 66.1693 62.2895 66.3948 62.5807 66.8224C62.7904 67.1298 62.9031 67.4424 62.9124 67.7507C62.9451 67.6982 63.0179 67.6694 63.0642 67.7283L63.3404 68.0803C64.397 69.4309 65.4354 70.79 66.6361 72.0211C67.2975 72.6995 68.009 73.337 68.7528 73.9242C69.3878 74.4255 70.5922 74.9079 70.6107 75.8211C70.6164 76.1175 70.4061 76.3274 70.1487 76.4281C69.3109 76.7554 68.2757 75.6419 67.6706 75.1L67.6212 75.0562C66.8806 74.4073 66.2047 73.695 65.581 72.9333C64.3696 71.4537 63.3567 69.7507 62.9103 67.8772C62.8893 68.2041 62.7491 68.5245 62.4761 68.8268C62.1127 69.2291 61.6154 69.5112 61.0841 69.6274C59.8805 69.8906 58.7054 69.4573 57.9893 68.454C57.384 67.6058 57.2057 66.4858 57.2838 65.4611L57.2935 65.3381C57.3044 65.1738 57.3184 64.8722 57.3609 64.7439L56.982 64.5357V64.5357C56.5173 64.2884 56.0867 63.9641 55.7002 63.6077C54.1469 62.1751 53.3675 59.8469 54.0777 57.8096C54.5218 56.5351 55.4552 55.4262 56.6504 54.8498C56.4507 54.3879 56.3839 53.8395 56.3085 53.3542L56.2958 53.2739C56.168 52.4778 56.061 51.6717 56.0202 50.866C55.944 49.3614 56.0367 47.8427 56.273 46.3556C56.6568 43.94 57.4515 41.3783 58.9081 39.3519C57.7968 38.9104 56.774 38.2713 55.9845 37.3838C55.1595 36.4565 54.6335 35.1288 55.2715 33.9511C55.434 33.6509 55.6459 33.3986 55.8894 33.1982C55.4672 32.4005 55.3306 31.4579 55.5911 30.5569C55.9024 29.4797 56.7478 28.6395 57.769 28.2472C57.521 27.2266 57.7237 26.1288 58.4815 25.2783C59.2331 24.4345 60.4003 24.1272 61.4806 24.32C61.5392 23.2346 61.1976 22.0801 61.4583 21.0095ZM58.4286 59.1205C59.4191 58.6356 60.593 58.7127 61.5823 59.1722L61.6494 59.204C62.7295 59.728 64.1601 60.9523 63.8168 62.2544C63.6158 63.0158 62.7701 63.2758 62.1143 62.9472C61.5665 62.6725 61.4416 62.1814 61.1667 61.6881C60.9724 61.3393 60.7322 61.0666 60.4501 60.7861C59.8554 60.1952 59.1874 59.7562 58.4286 59.405C58.3193 59.3543 58.323 59.1723 58.4286 59.1205ZM83.3851 32.8017C83.2923 32.7593 83.3596 32.6139 83.4531 32.6405C85.9419 33.3515 88.2624 34.9475 89.6491 37.1627C89.7336 37.2979 89.7465 37.5204 89.6491 37.6542L89.6042 37.7149C89.5406 37.7979 89.4778 37.8592 89.3583 37.8778C89.1335 37.9127 88.9382 37.8541 88.8087 37.6542C87.4427 35.5427 85.6926 33.8576 83.3851 32.8017ZM100.046 33.2199C100.257 32.8626 100.816 32.9345 100.928 33.3351L100.944 33.3699C101.004 33.5065 100.977 33.5344 100.864 33.4572C101.142 33.6858 101.268 34.0264 101.183 34.3926C100.725 36.3703 98.4854 37.7825 96.5333 37.5881C96.3629 37.5712 96.3397 37.3618 96.4941 37.2993C97.2451 36.9951 97.9117 36.501 98.4477 35.8948C98.9687 35.3055 99.1878 34.6312 99.4681 33.9196C99.5732 33.6524 99.7368 33.4601 99.9672 33.355C99.9977 33.3129 100.024 33.2679 100.046 33.2199ZM88.9455 31.949L88.959 31.9498C89.962 32.0795 90.8297 32.5746 91.534 33.3002C92.2124 33.9989 93.0685 35.1519 92.9952 36.1773C92.9466 36.8571 91.9805 37.2457 91.62 36.55C91.4048 36.1349 91.356 35.6799 91.2054 35.2409C91.0672 34.8386 90.8762 34.4566 90.6477 34.0983C90.1772 33.3602 89.5301 32.7349 88.8676 32.1707C88.79 32.1047 88.8441 31.9493 88.9455 31.949V31.949ZM63.2195 31.6477C62.9971 31.4359 63.2284 31.0747 63.5113 31.1463C65.0031 31.5241 66.4806 31.9836 68.0316 32.0293C68.8064 32.052 69.5767 31.9909 70.3441 31.8907L70.7327 31.839C71.3311 31.7609 71.9399 31.6995 72.5314 31.8225C72.9258 31.9045 73.0028 32.4127 72.7571 32.6778C71.5966 33.9301 69.3583 33.8104 67.8193 33.5993C66.148 33.3699 64.4617 32.8316 63.2195 31.6477ZM90.16 27.7444C90.0579 27.6027 90.2298 27.3791 90.3923 27.442C91.8749 28.0152 93.4287 29.5077 93.8372 31.0691C93.945 31.4816 93.4251 31.7931 93.1198 31.4869C92.5508 30.9163 92.1491 30.2423 91.6682 29.6009C91.1889 28.9615 90.628 28.3937 90.16 27.7444ZM65.8679 28.4418C65.7489 28.323 65.8686 28.0863 66.0395 28.1468C67.0047 28.4887 67.9773 28.7846 68.9913 28.9399C70.03 29.0987 71.0784 28.978 72.1224 29.0424C72.5448 29.0684 72.8324 29.7257 72.3629 29.9302C70.2766 30.8389 67.4429 30.0149 65.8679 28.4418ZM68.5337 26.4037C68.3679 26.2809 68.4622 25.9441 68.6879 26.0381C69.6071 26.421 70.5368 26.5151 71.5232 26.4757C71.8876 26.461 71.9643 27.0339 71.6092 27.1112C70.5187 27.3485 69.4249 27.0627 68.5337 26.4037Z" fill="black"/>
<path fill-rule="evenodd" clip-rule="evenodd" d="M78.9364 68.1138C78.9495 66.7311 80.1473 66.4927 81.285 66.677C83.2111 66.9888 85.1444 67.2081 87.0966 67.2476L87.4331 67.2535V67.2535C87.4873 67.1745 87.5778 67.1145 87.7008 67.1013C88.7829 66.9844 89.8884 67.0033 90.9765 66.9712C91.9257 66.9433 92.9011 66.8483 93.8502 66.9229L93.9258 66.9295C95.0857 67.0419 96.3098 67.6341 96.1697 68.996C96.0409 70.257 94.8359 71.3733 93.8737 72.0741C93.6791 72.2145 93.4802 72.3461 93.2754 72.4661C93.2112 72.5481 93.1175 72.6052 93.0093 72.6168C92.0617 73.1288 91.0161 73.4317 89.9338 73.5326C87.6393 73.7462 84.9718 73.5151 82.7679 72.5203C82.0514 72.1969 81.3831 71.7931 80.7923 71.2972C79.8812 70.5321 78.9262 69.3719 78.9364 68.1138ZM87.977 70.8553C87.0571 70.8276 86.1388 70.9564 85.2627 71.2402C84.669 71.4318 84.1279 71.8004 83.559 72.0565C85.4762 72.788 87.7035 72.9475 89.6704 72.8144C90.5333 72.7559 91.3699 72.5569 92.1494 72.2145C92.028 72.1268 91.905 72.0376 91.7763 71.9599C91.3875 71.7244 90.9808 71.524 90.5567 71.3645C89.7305 71.0544 88.8588 70.8832 87.977 70.8553ZM88.2851 58.7645C88.0369 58.5863 88.2339 57.996 88.7642 58.0872C93.5807 58.9151 91.0851 67.215 84.9355 62.6604C84.2034 62.0695 85.09 60.7681 85.8791 61.2741L86.1593 61.4902C87.0703 62.1887 88.5771 63.2448 89.6566 62.1116C90.6756 60.6836 89.2323 59.3405 88.2851 58.7645ZM91.546 52.4827C92.5699 51.6088 93.854 52.2529 94.6078 53.138L94.7407 53.2963C94.8915 53.4768 95.0584 53.6872 95.1588 53.9121C95.9941 53.2005 97.1268 52.6998 98.2108 53.0249C99.2619 53.3412 99.8614 54.3451 99.6809 55.423C99.4761 56.6486 98.5491 57.4725 97.553 58.1095L97.2705 58.2889C96.0736 59.0523 94.9535 59.8213 93.9684 60.8706C93.8077 61.0411 93.4603 61.0185 93.355 60.7915L93.2701 60.6088V60.6088L93.1844 60.4262C92.4855 58.9355 91.7368 57.4546 91.122 55.9288C90.6667 54.798 90.5188 53.3587 91.546 52.4827ZM79.8747 53.2744L80.0307 53.0939C80.7808 52.2205 82.0515 51.6357 83.0539 52.4828C84.1213 53.3851 83.9118 54.8771 83.4364 56.0279C82.8639 57.4158 82.1952 58.7731 81.5527 60.1345L81.4155 60.4263C81.3578 60.548 81.3014 60.6697 81.2451 60.7914C81.1396 61.0186 80.791 61.0412 80.6315 60.8705C79.677 59.854 78.5971 59.1019 77.4437 58.3627L77.0955 58.1411C76.0831 57.4986 75.126 56.6691 74.9177 55.423C74.7396 54.3476 75.3354 53.3374 76.3879 53.0248C77.4742 52.7024 78.6044 53.1993 79.4411 53.9121C79.5408 53.6815 79.7125 53.4644 79.8747 53.2744V53.2744ZM81.2472 47.0085C81.6137 47.4843 81.2224 48.262 80.6874 48.3849C80.0248 48.5374 79.3555 48.4447 78.705 48.6338C78.1089 48.8071 77.5379 49.1543 77.0269 49.5004C76.4443 49.895 75.9076 50.3354 75.4145 50.8373C75.1213 51.1358 74.7517 51.8431 74.2994 51.8562C73.8497 51.8694 74.4533 50.4625 74.5032 50.3408C74.8578 49.4743 75.356 48.677 75.979 47.9785C77.2085 46.6002 79.8122 45.1459 81.2472 47.0085ZM94.9771 46.6276L95.284 46.7129C96.0434 46.9241 96.8541 47.1836 97.5056 47.639L97.5568 47.6752L97.6357 47.7329C98.4536 48.343 99.6105 49.5602 99.0312 50.6221C98.9912 50.6953 98.9064 50.7025 98.8382 50.6727C98.0675 50.335 97.4961 49.6606 96.6763 49.3785L96.5251 49.327C95.7312 49.0595 94.749 48.7782 93.8945 48.8038C93.2936 48.9991 92.4821 48.8373 92.3257 48.1056L92.3187 48.0698L92.3051 47.994C92.2151 47.494 92.349 46.8567 92.8657 46.6157C93.5737 46.2857 94.2643 46.4325 94.9771 46.6276Z" fill="black"/>
<path fill-rule="evenodd" clip-rule="evenodd" d="M77.1102 71.6679C78.1258 69.2877 80.3424 67.5384 82.8945 66.8989C84.7686 66.4304 86.7354 66.4454 88.6458 66.6313C89.6467 66.728 90.7203 66.8073 91.6636 67.1791C92.4691 67.4968 93.1256 68.0973 93.6192 68.8022C94.2067 69.6375 94.6063 70.5935 94.8869 71.5733C94.9268 71.7126 94.9642 71.853 94.9992 71.994C94.8772 72.7333 94.6181 73.3626 93.9336 73.8274C93.2656 74.2813 92.4686 74.4669 91.6742 74.5329C91.5962 74.4954 91.5209 74.457 91.4519 74.4176C90.2138 73.7085 89.3424 72.033 87.7798 72.2597C86.3852 72.4622 85.4672 74.2176 84.6379 75.2469C81.9758 75.5572 79.3158 74.757 77.1498 73.2342C77.0398 72.713 77.0334 72.1874 77.1102 71.6679M96.8084 69.8623C96.5954 69.2644 96.3272 68.6854 96.0093 68.14C94.9582 66.3362 93.3447 64.8989 91.4292 64.0773C86.8981 62.1364 81.0353 63.5046 77.376 66.6878C76.1261 67.7759 74.8622 69.375 74.48 71.095C74.3658 71.1176 74.2581 71.1771 74.1694 71.2607C71.5256 69.5956 68.8031 67.9935 66.6727 65.6853C65.1255 64.0082 64.0494 62.0235 63.3905 59.8426C63.3366 59.663 63.0472 59.6893 63.056 59.8879C63.0585 59.9344 63.061 59.9807 63.0635 60.0272C63.036 59.9418 62.9057 59.9858 62.8957 60.0687C62.5411 62.7181 62.0977 65.527 62.5061 68.1902C62.7503 69.7794 63.4719 70.9428 64.4365 72.199C65.47 73.5456 66.6401 74.798 67.8365 75.9991C68.5956 76.7615 69.3886 77.6409 70.3181 78.1999C71.3992 78.8494 72.6257 79.3432 73.7794 79.8443C74.9533 80.3556 76.1446 80.828 77.3585 81.2375C79.7851 82.0591 82.293 82.6269 84.8449 82.8756C86.8881 83.0741 89.2232 83.2903 91.1812 82.5214C92.682 81.9322 93.8934 80.867 94.8542 79.5855C95.9003 78.1899 96.7272 76.6001 97.1843 74.9237C97.6594 73.1823 96.9085 70.1431 96.8084 69.8623" fill="black"/>
</g>
</g>
<rect x="1" y="1" width="144" height="153" rx="15" stroke="black" stroke-width="2"/>
<defs>
<clipPath id="clip0_20_770">
<rect width="146" height="155" rx="16" fill="white"/>
</clipPath>
<clipPath id="clip1_20_770">
<rect width="135" height="145.752" fill="white" transform="matrix(-1 0 0 1 199 12)"/>
</clipPath>
<clipPath id="clip2_20_770">
<rect width="135" height="145.752" fill="white" transform="translate(-45 14)"/>
</clipPath>
<clipPath id="clip3_20_770">
<rect width="142.5" height="154.375" fill="white" transform="translate(0.25 6)"/>
</clipPath>
</defs>
</svg>
