<svg width="146" height="155" viewBox="0 0 146 155" fill="none" xmlns="http://www.w3.org/2000/svg">
<rect x="1" y="1" width="144" height="153" rx="15" fill="#474A57" stroke="#18191F" stroke-width="2"/>
<g filter="url(#filter0_d_17_1266)">
<path d="M96.0542 29.133C98.6687 27.4027 102.006 28.4185 103.509 31.4018L127.543 79.1177C129.045 82.101 128.144 85.9222 125.529 87.6525L51.1641 136.867C48.5495 138.597 45.2118 137.582 43.7092 134.598L19.6756 86.8823C18.173 83.899 19.0744 80.0778 21.689 78.3475L96.0542 29.133Z" fill="#0E9F37"/>
<path d="M110.615 78.0873C110.255 78.149 109.717 78.3107 109.142 78.6911C107.674 79.6623 107.089 81.2362 107.724 82.5129C108.184 83.4598 109.199 83.4835 109.919 83.4242C110.655 83.3636 110.956 83.443 111.099 83.7282C111.314 84.1699 110.957 84.6754 110.529 84.9585C109.936 85.3512 109.566 85.4575 108.96 85.5336L108.711 85.5586L109.243 87.1635C109.682 87.1134 110.405 86.8487 111.075 86.4146C112.634 85.3826 113.208 83.8346 112.537 82.4706C112.168 81.7226 111.484 81.4153 110.393 81.516C109.723 81.5609 109.303 81.5699 109.149 81.2639C109.015 80.9817 109.134 80.5226 109.721 80.1343C110.197 79.8007 110.619 79.6978 110.954 79.652L111.124 79.6325L110.615 78.0873Z" fill="white"/>
<path d="M108.439 88.0291L106.953 89.0125L104.591 81.861L106.077 80.8776L108.439 88.0291Z" fill="white"/>
<path fill-rule="evenodd" clip-rule="evenodd" d="M113.194 76.1672L114.344 75.4065L118.835 81.1494L117.459 82.06C117.459 82.06 116.946 81.3981 116.788 81.1968L114.88 82.4595L115.062 83.6464L113.502 84.6783L112.691 77.2236C112.63 76.6982 112.84 76.4018 113.194 76.1672ZM114.307 78.6198C114.307 78.6198 114.568 80.3847 114.635 80.8412L115.87 80.0238C115.645 79.7374 114.575 78.3591 114.575 78.3591L114.188 77.8646C114.217 78.0386 114.254 78.2799 114.279 78.4426C114.296 78.5527 114.308 78.6271 114.307 78.6198Z" fill="white"/>
<path d="M102.42 83.2976L103.21 88.7179L102.595 87.9192L100.563 85.2594C100.267 84.8986 99.9442 84.9544 99.6132 85.1551L97.2222 86.7374L97.2643 86.8856C97.9329 86.6693 98.5775 86.5685 99.1875 86.57L103.373 91.3729L104.944 90.3329L103.991 82.2577L102.42 83.2976Z" fill="white"/>
<path d="M61.183 94.6129C60.9317 94.7792 60.6907 94.8819 60.4601 94.9211C60.2295 94.9603 60.0214 94.9384 59.8359 94.8552C59.6516 94.7671 59.5063 94.6175 59.4 94.4064C59.2953 94.1984 59.2588 93.9873 59.2908 93.7729C59.3239 93.5535 59.6311 93.3334 59.7808 93.1335C59.9317 92.9286 59.9155 92.7544 60.1641 92.5899C60.4126 92.4254 60.6506 92.3204 60.8781 92.2749C61.1067 92.2244 61.3108 92.2385 61.4904 92.3172C61.6711 92.3909 61.8138 92.5317 61.9185 92.7396C62.0249 92.9508 62.0653 93.1698 62.0397 93.3968C62.0125 93.6207 61.9251 93.8382 61.7774 94.0494C61.6324 94.2587 61.4343 94.4466 61.183 94.6129ZM60.8521 93.9559C60.9847 93.8682 61.0714 93.7625 61.1122 93.6388C61.1558 93.5133 61.145 93.386 61.0799 93.2568C61.0164 93.1308 60.9264 93.058 60.8098 93.0385C60.6944 93.0141 60.5704 93.0457 60.4379 93.1335C60.3053 93.2212 60.218 93.3293 60.176 93.458C60.1352 93.5816 60.1466 93.7065 60.21 93.8325C60.2751 93.9617 60.3646 94.0369 60.4784 94.0583C60.595 94.0777 60.7195 94.0436 60.8521 93.9559ZM60.3974 93.0531C60.1709 93.203 59.9525 93.2992 59.742 93.3419C59.5343 93.3827 59.3466 93.3683 59.1789 93.2986C59.0097 93.2257 58.8766 93.0932 58.7798 92.901C58.6798 92.7025 58.6425 92.5003 58.6677 92.2946C58.6957 92.087 58.7768 91.8862 58.9111 91.6923C59.0439 91.4952 59.2234 91.3218 59.4499 91.1719C59.6791 91.0202 59.8999 90.9287 60.1124 90.8973C60.3261 90.8609 60.5169 90.8817 60.685 90.9595C60.8559 91.0355 60.9913 91.1728 61.0913 91.3713C61.1881 91.5635 61.2217 91.7618 61.1921 91.9663C61.1637 92.1657 61.0808 92.3593 60.9433 92.5469C60.8058 92.7345 60.6238 92.9032 60.3974 93.0531ZM60.1308 92.5237C60.2357 92.4543 60.3049 92.3686 60.3382 92.2667C60.37 92.1616 60.3589 92.0555 60.3049 91.9484C60.2478 91.835 60.171 91.7702 60.0746 91.7542C59.9809 91.7364 59.883 91.7613 59.7808 91.8289C59.6786 91.8965 59.6108 91.9813 59.5775 92.0832C59.5441 92.1851 59.556 92.2928 59.6132 92.4062C59.6671 92.5134 59.7417 92.5774 59.837 92.5984C59.9307 92.6162 60.0286 92.5913 60.1308 92.5237Z" fill="white"/>
<path d="M63.1171 93.2447L63.1171 89.9988L63.1748 89.7845L62.06 90.5758L61.9185 90.4384L62.2969 91.0461L61.5968 91.5094L60.966 90.2568L63.3685 88.6668L63.6637 89.2529L64.0118 92.6525L63.1171 93.2447Z" fill="white"/>
<path d="M66.5898 91.0347C66.3192 91.2138 66.0521 91.3086 65.7886 91.3191C65.5279 91.3278 65.2798 91.2483 65.0444 91.0806C64.8117 90.9111 64.6057 90.6483 64.4264 90.2922C64.2327 89.9078 64.1334 89.5387 64.1283 89.185C64.1243 88.8263 64.2013 88.5001 64.359 88.2067C64.5196 87.9113 64.7518 87.6632 65.0555 87.4621C65.2185 87.3543 65.3856 87.2731 65.5569 87.2185C65.7295 87.159 65.8872 87.1323 66.0303 87.1385L66.0701 88.007C65.9539 87.9957 65.8447 88.0091 65.7425 88.0474C65.6414 88.0807 65.5439 88.1284 65.45 88.1905C65.2263 88.3385 65.0857 88.5345 65.0282 88.7785C64.9734 89.0206 65.0206 89.2898 65.1698 89.586C65.1967 89.6395 65.2253 89.6963 65.2555 89.7561C65.2868 89.811 65.3217 89.8657 65.3601 89.92L65.2555 89.7561C65.252 89.603 65.069 89.5686 65.1066 89.4387C65.147 89.3069 65.2108 89.1849 65.2978 89.0727C65.3877 88.9586 65.5002 88.8568 65.6356 88.7672C65.8178 88.6466 66.0057 88.5811 66.1993 88.5706C66.394 88.5552 66.5767 88.5961 66.7471 88.6933C66.916 88.7874 67.0537 88.94 67.16 89.1511C67.2759 89.3812 67.3256 89.6151 67.3091 89.8528C67.291 90.0875 67.2202 90.3087 67.0966 90.5165C66.9714 90.7212 66.8025 90.8939 66.5898 91.0347ZM66.2044 90.4011C66.2818 90.3499 66.3407 90.2878 66.3812 90.2148C66.4245 90.1399 66.4469 90.06 66.4483 89.9751C66.4497 89.8901 66.4289 89.8051 66.3861 89.72C66.3226 89.594 66.2345 89.5178 66.1219 89.4915C66.012 89.4634 65.8977 89.4887 65.7789 89.5673C65.6988 89.6203 65.6372 89.6842 65.5939 89.7591C65.5533 89.8321 65.531 89.912 65.5268 89.9988C65.5254 90.0837 65.5461 90.1688 65.589 90.2538C65.6303 90.3358 65.6833 90.3973 65.7482 90.4384C65.8115 90.4763 65.8831 90.4941 65.9629 90.4917C66.0411 90.4861 66.1216 90.4559 66.2044 90.4011Z" fill="white"/>
<path d="M68.9527 89.4709C68.7539 89.6025 68.5394 89.7067 68.3092 89.7834C68.079 89.8601 67.8646 89.8948 67.6658 89.8877L67.6052 88.9888C67.7684 88.9985 67.931 88.9812 68.0928 88.9371C68.2575 88.8912 68.4089 88.8225 68.5469 88.7311C68.685 88.6398 68.7818 88.5358 68.8372 88.4193C68.8911 88.2996 68.8903 88.1846 68.8347 88.0743C68.8014 88.0082 68.7554 87.9608 68.6969 87.9324C68.6368 87.9007 68.5603 87.8988 68.4676 87.9266C68.3732 87.9512 68.2514 88.0129 68.1023 88.1116L67.3153 88.6324L66.4866 86.6033L68.334 85.3807L68.6983 86.1038L67.1408 87.1346L67.4366 86.9388L67.7893 87.3482L67.2883 87.6798L67.9304 87.2548C68.2176 87.0648 68.472 86.9594 68.6936 86.9388C68.9136 86.9151 69.1033 86.9555 69.2627 87.06C69.4206 87.1614 69.5487 87.3098 69.6471 87.5052C69.7455 87.7005 69.7928 87.915 69.789 88.1486C69.7863 88.3773 69.7194 88.6064 69.5884 88.836C69.4573 89.0656 69.2454 89.2772 68.9527 89.4709Z" fill="white"/>
<path d="M73.2707 86.5251L72.9701 83.302L73.3284 83.0648L71.8579 84.038L72.1941 83.8155L72.4505 84.3264L71.7505 84.7897L71.1196 83.5372L73.5222 81.9472L73.8174 82.5333L74.1655 85.9329L73.2707 86.5251Z" fill="white"/>
<path d="M76.6602 84.3701C76.4089 84.5364 76.168 84.6392 75.9373 84.6784C75.7067 84.7176 75.4986 84.6956 75.3131 84.6125C75.1289 84.5244 74.9835 84.3748 74.8772 84.1637C74.7725 83.9557 74.736 83.7445 74.768 83.5301C74.8011 83.3107 74.8925 83.1011 75.0422 82.9012C75.193 82.6963 75.3928 82.5116 75.6413 82.3472C75.8898 82.1827 76.1278 82.0777 76.3553 82.0322C76.5839 81.9817 76.788 81.9958 76.9676 82.0744C77.1483 82.1481 77.291 82.2889 77.3958 82.4969C77.5021 82.708 77.5425 82.9271 77.5169 83.1541C77.4897 83.3779 77.4023 83.5954 77.2546 83.8066C77.1096 84.016 76.9115 84.2038 76.6602 84.3701ZM76.3293 83.7131C76.4619 83.6254 76.5486 83.5197 76.5894 83.3961C76.633 83.2706 76.6222 83.1433 76.5571 83.0141C76.4937 82.888 76.4036 82.8153 76.287 82.7958C76.1716 82.7714 76.0476 82.803 75.9151 82.8907C75.7825 82.9784 75.6952 83.0866 75.6532 83.2152C75.6124 83.3389 75.6238 83.4637 75.6872 83.5898C75.7523 83.719 75.8418 83.7942 75.9556 83.8155C76.0722 83.835 76.1968 83.8009 76.3293 83.7131ZM75.8746 82.8104C75.6482 82.9602 75.4297 83.0565 75.2192 83.0992C75.0115 83.14 74.8238 83.1256 74.6561 83.0559C74.4869 82.983 74.3538 82.8505 74.257 82.6583C74.157 82.4597 74.1197 82.2576 74.1449 82.0518C74.1729 81.8442 74.254 81.6435 74.3883 81.4496C74.5211 81.2525 74.7006 81.079 74.9271 80.9292C75.1563 80.7775 75.3771 80.686 75.5896 80.6546C75.8033 80.6182 75.9941 80.6389 76.1622 80.7168C76.3331 80.7928 76.4685 80.93 76.5685 81.1286C76.6653 81.3208 76.6989 81.5191 76.6693 81.7235C76.6409 81.923 76.558 82.1165 76.4205 82.3042C76.283 82.4918 76.1011 82.6605 75.8746 82.8104ZM75.608 82.281C75.7129 82.2115 75.7821 82.1259 75.8154 82.024C75.8472 81.9189 75.8361 81.8128 75.7821 81.7057C75.725 81.5922 75.6482 81.5275 75.5518 81.5115C75.4581 81.4937 75.3602 81.5186 75.258 81.5862C75.1558 81.6538 75.0881 81.7386 75.0547 81.8405C75.0213 81.9424 75.0332 82.05 75.0904 82.1635C75.1443 82.2706 75.2189 82.3347 75.3142 82.3557C75.4079 82.3735 75.5058 82.3486 75.608 82.281Z" fill="white"/>
<path d="M78.5943 83.002L78.5943 80.1593L78.652 79.5417L77.1814 80.5149L77.4914 80.3098L77.7741 80.8033L77.074 81.2666L76.4432 80.0141L78.8457 78.4241L79.1409 79.0102L79.489 82.4098L78.5943 83.002Z" fill="white"/>
<path d="M81.756 80.9978C81.5571 81.1294 81.3426 81.2335 81.1125 81.3102C80.8823 81.3869 80.6679 81.4217 80.4691 81.4146L80.4085 80.5157C80.5717 80.5253 80.7342 80.5081 80.8961 80.464C81.0608 80.418 81.2121 80.3494 81.3502 80.258C81.4883 80.1666 81.5851 80.0627 81.6405 79.9461C81.6944 79.8265 81.6935 79.7115 81.638 79.6012C81.6046 79.535 81.5587 79.4877 81.5002 79.4592C81.4401 79.4276 81.3636 79.4256 81.2708 79.4534C81.1765 79.4781 81.0547 79.5397 80.9056 79.6384L80.1185 80.1593L79.2898 78.1302L81.1373 76.9075L81.5016 77.6307L80.3224 78.3802L80.1553 77.9734L80.7171 79.3409L80.5438 78.9191L80.7337 78.7817C81.0209 78.5916 81.2753 78.4863 81.4968 78.4657C81.7169 78.4419 81.9066 78.4823 82.066 78.5869C82.2239 78.6883 82.352 78.8367 82.4504 79.032C82.5488 79.2274 82.5961 79.4419 82.5922 79.6755C82.5896 79.9041 82.5227 80.1332 82.3917 80.3628C82.2606 80.5924 82.0487 80.8041 81.756 80.9978Z" fill="white"/>
<path d="M87.0104 77.5205C86.7397 77.6996 86.4727 77.7944 86.2092 77.8049C85.9484 77.8136 85.7004 77.7341 85.4649 77.5664C85.2322 77.3969 85.0262 77.1341 84.8469 76.778C84.6533 76.3936 84.5539 76.0245 84.5488 75.6708C84.5448 75.312 84.6218 74.9859 84.7796 74.6925C84.9401 74.3971 85.1723 74.149 85.4761 73.9479C85.639 73.8401 85.8061 73.7589 85.9775 73.7043C86.15 73.6448 86.3078 73.6181 86.4508 73.6243L86.4906 74.4928C86.3744 74.4815 86.2652 74.4949 86.163 74.5332C86.0619 74.5665 85.9644 74.6142 85.8705 74.6763C85.6468 74.8243 85.5062 75.0203 85.4487 75.2643C85.3939 75.5064 85.4411 75.7756 85.5903 76.0718C85.6173 76.1253 85.6458 76.1821 85.676 76.2419C85.7073 76.2968 85.7422 76.3515 85.7806 76.4058L85.6578 76.2058C85.6543 76.0527 85.4895 76.0544 85.5271 75.9245C85.5676 75.7927 85.6313 75.6707 85.7184 75.5585C85.8082 75.4444 85.9208 75.3426 86.0561 75.253C86.2383 75.1324 86.4263 75.0669 86.6198 75.0564C86.8146 75.041 86.9972 75.0819 87.1677 75.1791C87.3366 75.2732 87.4742 75.4258 87.5805 75.6369C87.6964 75.867 87.7461 76.1009 87.7296 76.3386C87.7115 76.5733 87.6407 76.7945 87.5171 77.0023C87.3919 77.207 87.223 77.3797 87.0104 77.5205ZM86.625 76.8869C86.7023 76.8357 86.7612 76.7736 86.8018 76.7006C86.8451 76.6257 86.8674 76.5458 86.8688 76.4609C86.8702 76.3759 86.8495 76.2909 86.8066 76.2058C86.7431 76.0798 86.6551 76.0036 86.5424 75.9773C86.4325 75.9492 86.3182 75.9745 86.1994 76.0531C86.1194 76.1061 86.0577 76.17 86.0144 76.2449C85.9738 76.3179 85.9515 76.3978 85.9473 76.4846C85.9459 76.5695 85.9667 76.6546 86.0095 76.7396C86.0508 76.8216 86.1039 76.8831 86.1687 76.9242C86.232 76.9621 86.3036 76.9799 86.3834 76.9775C86.4616 76.9719 86.5421 76.9417 86.625 76.8869Z" fill="white"/>
<path d="M88.756 76.277L88.8137 72.8168L87.3432 73.7899L87.573 73.6379L87.9358 74.0784L87.2358 74.5417L86.6049 73.2891L89.0074 71.6991L89.3026 72.2852L89.6508 75.6848L88.756 76.277Z" fill="white"/>
<path d="M91.9177 74.2728C91.7189 74.4044 91.5044 74.5085 91.2742 74.5852C91.044 74.6619 90.8296 74.6967 90.6308 74.6896L90.5702 73.7907C90.7334 73.8003 90.896 73.7831 91.0578 73.739C91.2225 73.6931 91.3739 73.6244 91.5119 73.533C91.65 73.4416 91.7468 73.3377 91.8022 73.2212C91.8561 73.1015 91.8553 72.9865 91.7997 72.8762C91.7664 72.81 91.7204 72.7627 91.6619 72.7342C91.6018 72.7026 91.5253 72.7007 91.4326 72.7285C91.3382 72.7531 91.2164 72.8148 91.0673 72.9135L90.2803 73.4343L89.4515 71.4052L91.299 70.1825L91.6633 70.9057L90.1058 71.9365L90.4016 71.7407L90.648 72.2204L90.2533 72.4816L90.8954 72.0567C91.1826 71.8666 91.437 71.7613 91.6586 71.7407C91.8786 71.7169 92.0683 71.7573 92.2277 71.8619C92.3856 71.9633 92.5137 72.1117 92.6121 72.307C92.7105 72.5024 92.7578 72.7169 92.754 72.9505C92.7513 73.1792 92.6844 73.4083 92.5534 73.6379C92.4223 73.8674 92.2104 74.0791 91.9177 74.2728Z" fill="white"/>
<path d="M92.7463 69.1365C93.0197 68.9556 93.2867 68.8608 93.5475 68.8521C93.811 68.8416 94.059 68.9211 94.2917 69.0906C94.5256 69.2551 94.733 69.517 94.9139 69.8763C95.1075 70.2607 95.2063 70.6323 95.2102 70.991C95.2153 71.3447 95.1376 71.6692 94.9771 71.9645C94.8193 72.258 94.5871 72.5062 94.2806 72.7091C94.1204 72.8151 93.9547 72.8954 93.7833 72.9499C93.6136 73.0077 93.4558 73.0343 93.31 73.03L93.2702 72.1614C93.3864 72.1728 93.495 72.1618 93.596 72.1285C93.6983 72.0903 93.7964 72.0401 93.8902 71.978C94.1139 71.8299 94.2532 71.6348 94.308 71.3927C94.3627 71.1506 94.3155 70.8814 94.1664 70.5852C94.1394 70.5317 94.1116 70.4765 94.083 70.4198C94.0529 70.3599 94.0186 70.3028 93.9801 70.2484L94.0975 70.4484C94.1065 70.5979 94.274 70.598 94.2336 70.7298C94.1932 70.8615 94.1295 70.9836 94.0424 71.0958C93.9553 71.208 93.8428 71.3098 93.7047 71.4012C93.5224 71.5218 93.3339 71.5899 93.1392 71.6053C92.9456 71.6158 92.7644 71.574 92.5955 71.4799C92.425 71.3826 92.2866 71.2284 92.1803 71.0173C92.0644 70.7873 92.0155 70.555 92.0336 70.3203C92.05 70.0826 92.1209 69.8613 92.2461 69.6566C92.3697 69.4488 92.5364 69.2754 92.7463 69.1365ZM93.1358 69.7673C93.0585 69.8185 92.9996 69.8806 92.959 69.9537C92.9185 70.0267 92.8961 70.1066 92.892 70.1934C92.889 70.2752 92.9097 70.3602 92.9542 70.4484C93.0176 70.5745 93.1043 70.6516 93.2142 70.6797C93.3269 70.7059 93.4426 70.6798 93.5613 70.6012C93.6414 70.5482 93.7031 70.4843 93.7464 70.4094C93.7897 70.3345 93.812 70.2546 93.8134 70.1697C93.8148 70.0847 93.7941 69.9997 93.7513 69.9146C93.71 69.8327 93.6577 69.7728 93.5944 69.7348C93.5295 69.6937 93.458 69.676 93.3798 69.6815C93.3 69.6839 93.2187 69.7125 93.1358 69.7673Z" fill="white"/>
<path d="M31.7016 87.3768C31.4807 87.523 31.2557 87.6173 31.0267 87.6596C30.7988 87.697 30.5777 87.6858 30.3634 87.6259C30.1504 87.561 29.9536 87.4518 29.7731 87.2982C29.5926 87.1445 29.4405 86.9448 29.3167 86.699C29.1929 86.4532 29.118 86.2024 29.0922 85.9464C29.0664 85.6904 29.0844 85.4411 29.1463 85.1984C29.2066 84.9526 29.3086 84.7276 29.4524 84.5232C29.5973 84.3138 29.7803 84.1361 30.0012 83.9898C30.2249 83.8418 30.4528 83.7498 30.6851 83.7137C30.9185 83.6727 31.1443 83.6934 31.3626 83.7758L31.2433 84.2518C31.0662 84.1926 30.8927 84.1771 30.7229 84.2055C30.5515 84.2307 30.3871 84.2954 30.2296 84.3995C30.0667 84.5074 29.9307 84.6394 29.8216 84.7956C29.7153 84.95 29.6396 85.1178 29.5945 85.2988C29.5495 85.4799 29.5376 85.6684 29.559 85.8643C29.5815 86.0553 29.6388 86.2421 29.7309 86.4249C29.823 86.6076 29.9363 86.7595 30.0709 86.8805C30.2066 86.9965 30.3542 87.0775 30.5135 87.1233C30.6728 87.1691 30.8374 87.1778 31.0072 87.1495C31.1798 87.1193 31.3475 87.0503 31.5105 86.9424C31.6679 86.8383 31.7997 86.709 31.9061 86.5546C32.0108 86.397 32.0843 86.214 32.1265 86.0054L32.5458 86.1249C32.4989 86.3828 32.4024 86.6189 32.2563 86.8333C32.113 87.0458 31.9281 87.227 31.7016 87.3768Z" fill="white"/>
<path d="M33.3215 86.2544L32.0598 83.7493L32.4409 83.4971L32.7837 84.1777L32.6607 84.0322C32.6342 83.8187 32.6697 83.6187 32.7673 83.4323C32.8648 83.2459 33.0186 83.0832 33.2284 82.9443L33.4498 83.3839C33.4317 83.3917 33.4143 83.4011 33.3977 83.4121C33.3839 83.4212 33.3701 83.4304 33.3563 83.4395C33.1437 83.5802 33.0117 83.7642 32.9605 83.9914C32.9092 84.2186 32.9526 84.4692 33.0907 84.7434L33.7192 85.9912L33.3215 86.2544Z" fill="white"/>
<path d="M35.9639 84.5435C35.7291 84.6988 35.4942 84.7807 35.2592 84.7893C35.0269 84.7959 34.8126 84.7361 34.6164 84.6096C34.4229 84.4814 34.2635 84.2928 34.1381 84.0439C34.0128 83.7949 33.9486 83.5433 33.9457 83.2889C33.9455 83.0328 34.0013 82.7963 34.113 82.5795C34.226 82.3577 34.3873 82.1774 34.5972 82.0385C34.8099 81.8978 35.0246 81.8271 35.2415 81.8264C35.4584 81.8257 35.6616 81.8928 35.8512 82.0279C36.0419 82.158 36.2023 82.3522 36.3324 82.6106C36.342 82.6295 36.3517 82.6525 36.3616 82.6795C36.3743 82.7047 36.3849 82.7293 36.3932 82.7531L34.525 83.9895L34.3607 83.6634L36.0218 82.5641L35.9174 82.7844C35.8392 82.6219 35.738 82.4977 35.6138 82.4119C35.4895 82.326 35.3561 82.2841 35.2135 82.2861C35.072 82.283 34.9309 82.3281 34.7901 82.4213C34.652 82.5127 34.5473 82.6303 34.4761 82.774C34.4034 82.9146 34.3691 83.0696 34.3734 83.239C34.3762 83.4053 34.4188 83.5703 34.5013 83.7342L34.5394 83.8098C34.6235 83.9768 34.7321 84.1046 34.865 84.193C34.9991 84.2765 35.1452 84.3143 35.3032 84.3064C35.4612 84.2984 35.6189 84.2424 35.7763 84.1382C35.9061 84.0523 36.0108 83.9494 36.0903 83.8296C36.1726 83.7079 36.2284 83.5701 36.2577 83.4163L36.6249 83.564C36.5921 83.7622 36.5187 83.9452 36.4044 84.1133C36.293 84.2794 36.1461 84.4229 35.9639 84.5435Z" fill="white"/>
<path d="M38.4298 82.9115C38.2172 83.0522 37.9997 83.1248 37.7772 83.1291C37.5576 83.1316 37.351 83.0688 37.1576 82.9405C36.9641 82.8123 36.8031 82.6205 36.6745 82.3653C36.546 82.1101 36.4824 81.8559 36.4838 81.6029C36.4837 81.3467 36.5395 81.1102 36.6512 80.8935C36.7657 80.6748 36.9292 80.4952 37.1419 80.3544C37.3269 80.232 37.5178 80.1687 37.7145 80.1645C37.9113 80.1604 38.1014 80.2236 38.285 80.3542C38.4714 80.4829 38.636 80.6891 38.7788 80.9727C38.9217 81.2563 38.9965 81.5218 39.0034 81.7694C39.013 82.0151 38.9679 82.2361 38.8679 82.4325C38.7664 82.6257 38.6204 82.7854 38.4298 82.9115ZM38.263 82.4925C38.4011 82.4012 38.5071 82.2827 38.5811 82.1371C38.6578 81.9897 38.6946 81.8288 38.6914 81.6544C38.6895 81.4751 38.644 81.2972 38.5552 81.1207C38.4647 80.9411 38.3538 80.8086 38.2224 80.7233C38.0923 80.633 37.9523 80.5891 37.8026 80.5915C37.6556 80.5921 37.5131 80.6382 37.375 80.7295C37.2342 80.8227 37.1268 80.9421 37.0528 81.0877C36.9789 81.2333 36.9421 81.3942 36.9424 81.5704C36.9412 81.7434 36.9859 81.9198 37.0763 82.0994C37.1652 82.2758 37.2769 82.4099 37.4114 82.5015C37.5444 82.59 37.6843 82.6339 37.8313 82.6333C37.9783 82.6327 38.1222 82.5858 38.263 82.4925ZM39.1985 82.365L38.858 81.6891L38.5901 81.0913L38.2558 80.5374L37.4154 78.8689L37.8131 78.6057L39.5796 82.1128L39.1985 82.365Z" fill="white"/>
<path d="M40.332 81.6149L39.0702 79.1098L39.4679 78.8466L40.7296 81.3517L40.332 81.6149ZM39.0262 78.4961C38.9489 78.5473 38.8697 78.5618 38.7887 78.5399C38.7104 78.516 38.6506 78.4632 38.6094 78.3812C38.5665 78.2962 38.5557 78.2088 38.5768 78.1192C38.6007 78.0277 38.6513 77.9564 38.7286 77.9053C38.806 77.8541 38.8838 77.8404 38.962 77.8642C39.0415 77.8831 39.1019 77.9335 39.1431 78.0154C39.186 78.1005 39.1976 78.1894 39.1781 78.2822C39.1569 78.3718 39.1063 78.4431 39.0262 78.4961Z" fill="white"/>
<path d="M42.2571 80.3786C42.0362 80.5248 41.8309 80.5704 41.6411 80.5153C41.4513 80.4602 41.293 80.3067 41.166 80.0546L40.009 77.7575L40.4067 77.4943L41.5542 79.7725C41.6224 79.908 41.7038 79.9928 41.7983 80.0269C41.8955 80.0591 41.9994 80.0387 42.1099 79.9656C42.2341 79.8834 42.3178 79.7755 42.361 79.6419L42.6495 79.8858C42.6189 79.9858 42.568 80.0784 42.4967 80.1634C42.4281 80.2466 42.3483 80.3183 42.2571 80.3786ZM40.1004 78.9259L39.9123 78.5525L41.3125 77.6259L41.5005 77.9993L40.1004 78.9259Z" fill="white"/>
<path d="M45.6902 78.1193C45.4692 78.2655 45.2443 78.3597 45.0152 78.4021C44.7873 78.4395 44.5663 78.4282 44.352 78.3683C44.1389 78.3035 43.9421 78.1943 43.7616 78.0406C43.5812 77.887 43.429 77.6872 43.3052 77.4415C43.1814 77.1957 43.1066 76.9448 43.0808 76.6888C43.0549 76.4328 43.0729 76.1835 43.1348 75.9409C43.1952 75.6951 43.2972 75.47 43.4409 75.2656C43.5859 75.0563 43.7688 74.8785 43.9897 74.7323C44.2134 74.5843 44.4414 74.4922 44.6736 74.4562C44.907 74.4151 45.1328 74.4359 45.3511 74.5183L45.2318 74.9943C45.0547 74.935 44.8812 74.9196 44.7114 74.9479C44.54 74.9731 44.3756 75.0378 44.2182 75.142C44.0553 75.2498 43.9192 75.3818 43.8101 75.5381C43.7038 75.6925 43.6281 75.8602 43.5831 76.0413C43.538 76.2223 43.5262 76.4108 43.5476 76.6068C43.5701 76.7977 43.6274 76.9846 43.7194 77.1673C43.8115 77.3501 43.9248 77.502 44.0594 77.623C44.1952 77.739 44.3427 77.8199 44.502 77.8657C44.6613 77.9115 44.8259 77.9203 44.9957 77.8919C45.1683 77.8617 45.3361 77.7927 45.499 77.6849C45.6564 77.5807 45.7883 77.4514 45.8946 77.297C45.9994 77.1395 46.0728 76.9564 46.1151 76.7478L46.5343 76.8674C46.4875 77.1253 46.391 77.3614 46.2449 77.5757C46.1015 77.7882 45.9166 77.9694 45.6902 78.1193Z" fill="white"/>
<path d="M48.6446 76.1136L48.378 75.5843L48.3073 75.4987L47.8525 74.5959C47.7557 74.4037 47.6314 74.2885 47.4796 74.2503C47.329 74.2071 47.1557 74.2504 46.9596 74.3802C46.8298 74.4661 46.7155 74.5754 46.6166 74.708C46.5161 74.8375 46.4437 74.9716 46.3994 75.1102L46.0623 74.8795C46.1231 74.7006 46.2188 74.5323 46.3492 74.3745C46.4808 74.2118 46.6336 74.0729 46.8076 73.9577C47.1086 73.7585 47.3826 73.6885 47.6297 73.7477C47.8767 73.8069 48.0867 74.0082 48.2597 74.3517L49.0215 75.8642L48.6446 76.1136ZM47.9381 76.619C47.7752 76.7268 47.6157 76.7903 47.4597 76.8096C47.3064 76.827 47.1689 76.8024 47.0471 76.736C46.9237 76.6664 46.8262 76.5608 46.7548 76.419C46.6866 76.2835 46.6523 76.1423 46.652 75.9955C46.6544 75.8468 46.7025 75.6973 46.7962 75.5471C46.8927 75.395 47.05 75.2468 47.2681 75.1024L47.964 74.6419L48.1283 74.968L47.449 75.4176C47.2501 75.5492 47.1352 75.6756 47.1043 75.7969C47.0733 75.9183 47.0849 76.0325 47.1388 76.1396C47.2007 76.2625 47.2935 76.3334 47.4172 76.3524C47.5393 76.3682 47.6763 76.3259 47.8282 76.2254C47.9773 76.1267 48.0881 76.003 48.1605 75.8542C48.2356 75.7037 48.2615 75.5395 48.2382 75.3616L48.474 75.6215C48.4962 75.8043 48.4632 75.9837 48.375 76.1597C48.2853 76.3325 48.1397 76.4856 47.9381 76.619Z" fill="white"/>
<path d="M49.7575 75.3771L48.4957 72.872L48.8768 72.6198L49.2196 73.3005L49.0966 73.155C49.0701 72.9415 49.1056 72.7415 49.2032 72.5551C49.3008 72.3687 49.4545 72.206 49.6644 72.0671L49.8858 72.5067C49.8676 72.5145 49.8503 72.5239 49.8337 72.5349C49.8199 72.544 49.8061 72.5531 49.7923 72.5623C49.5796 72.703 49.4477 72.887 49.3964 73.1142C49.3451 73.3413 49.3885 73.592 49.5266 73.8661L50.1551 75.114L49.7575 75.3771Z" fill="white"/>
<path d="M52.3294 73.7129C52.1168 73.8536 51.8992 73.9261 51.6768 73.9305C51.4571 73.933 51.2506 73.8701 51.0571 73.7419C50.8636 73.6136 50.7026 73.4219 50.5741 73.1666C50.4455 72.9114 50.382 72.6573 50.3834 72.4043C50.3832 72.1481 50.439 71.9116 50.5507 71.6948C50.6652 71.4762 50.8288 71.2965 51.0414 71.1558C51.2265 71.0333 51.4174 70.97 51.6141 70.9659C51.8108 70.9617 52.001 71.0249 52.1846 71.1555C52.371 71.2843 52.5356 71.4904 52.6784 71.774C52.8212 72.0576 52.8961 72.3232 52.9029 72.5707C52.9126 72.8164 52.8674 73.0375 52.7675 73.2339C52.666 73.4271 52.5199 73.5868 52.3294 73.7129ZM52.1626 73.2939C52.3006 73.2025 52.4067 73.084 52.4806 72.9385C52.5573 72.7911 52.5941 72.6302 52.591 72.4558C52.589 72.2764 52.5436 72.0985 52.4547 71.9221C52.3642 71.7424 52.2533 71.61 52.122 71.5246C51.9918 71.4343 51.8519 71.3904 51.7021 71.3929C51.5552 71.3935 51.4126 71.4395 51.2746 71.5309C51.1337 71.6241 51.0263 71.7435 50.9524 71.8891C50.8784 72.0346 50.8416 72.1955 50.842 72.3717C50.8408 72.5448 50.8854 72.7211 50.9759 72.9007C51.0648 73.0772 51.1765 73.2112 51.311 73.3029C51.4439 73.3914 51.5839 73.4353 51.7308 73.4346C51.8778 73.434 52.0217 73.3871 52.1626 73.2939ZM53.098 73.1664L52.7576 72.4905L52.4896 71.8927L52.1554 71.3387L51.315 69.6702L51.7126 69.407L53.4791 72.9142L53.098 73.1664Z" fill="white"/>
<path d="M51.1552 127.326C50.9508 127.462 50.7374 127.531 50.515 127.536C50.2938 127.535 50.0842 127.47 49.8864 127.341C49.687 127.208 49.5183 127.004 49.3802 126.73C49.2437 126.459 49.1759 126.193 49.177 125.932C49.1764 125.668 49.232 125.427 49.3437 125.21C49.4582 124.992 49.6176 124.815 49.822 124.68C50.0153 124.552 50.202 124.491 50.3822 124.498C50.5651 124.503 50.7403 124.58 50.9078 124.73C51.0752 124.88 51.2343 125.104 51.3851 125.403C51.539 125.709 51.6321 125.981 51.6642 126.221C51.6963 126.46 51.6699 126.671 51.585 126.853C51.5 127.035 51.3568 127.193 51.1552 127.326ZM50.9614 126.503C51.0497 126.445 51.1166 126.369 51.1618 126.276C51.2098 126.181 51.2315 126.074 51.2269 125.956C51.2207 125.834 51.185 125.708 51.12 125.579C51.0549 125.45 50.9794 125.355 50.8936 125.294C50.8061 125.23 50.7146 125.198 50.619 125.198C50.5261 125.197 50.4355 125.225 50.3472 125.284C50.256 125.344 50.1865 125.421 50.1385 125.516C50.0932 125.609 50.0729 125.715 50.0775 125.834C50.0805 125.95 50.1146 126.072 50.1797 126.201C50.2447 126.33 50.3218 126.428 50.4108 126.496C50.4983 126.56 50.5884 126.592 50.6813 126.594C50.7769 126.594 50.8702 126.563 50.9614 126.503ZM51.7924 126.848L51.571 126.408L51.149 125.56L50.6814 124.741L49.9886 123.366L50.7757 122.845L52.5421 126.352L51.7924 126.848Z" fill="white"/>
<path d="M53.0485 126.017L51.7582 123.455L52.5452 122.934L53.8356 125.496L53.0485 126.017ZM52.0089 122.911C51.8653 123.006 51.7263 123.037 51.5919 123.004C51.4575 122.971 51.3561 122.887 51.2879 122.751C51.2196 122.616 51.2067 122.473 51.249 122.323C51.2914 122.174 51.3844 122.051 51.528 121.956C51.6716 121.861 51.8098 121.828 51.9426 121.858C52.0738 121.885 52.1735 121.966 52.2418 122.101C52.3132 122.243 52.3285 122.391 52.2878 122.544C52.2482 122.692 52.1552 122.814 52.0089 122.911Z" fill="white"/>
<path d="M55.2156 125.862C55.0968 125.94 54.9656 125.998 54.8218 126.034C54.6825 126.072 54.558 126.081 54.4486 126.061L54.4053 125.251C54.4761 125.267 54.5482 125.268 54.6216 125.253C54.6994 125.239 54.7687 125.212 54.8295 125.172C54.9151 125.115 54.9716 125.049 54.9991 124.972C55.0266 124.895 55.0345 124.797 55.0228 124.679L54.9763 124.312L54.9933 124.181L54.6722 121.526L55.422 121.03L55.7954 124.337C55.8292 124.609 55.8259 124.84 55.7856 125.031C55.7497 125.223 55.6823 125.385 55.5834 125.518C55.4873 125.648 55.3647 125.763 55.2156 125.862ZM55.0936 124.808L52.7585 122.793L53.5662 122.258L55.338 123.846L55.0936 124.808Z" fill="white"/>
<path d="M58.2101 122.601L57.9696 122.123L57.8562 122.041L57.4134 121.162C57.342 121.02 57.2486 120.937 57.1332 120.912C57.0189 120.883 56.879 120.923 56.7133 121.033C56.6056 121.104 56.5068 121.197 56.417 121.311C56.3256 121.422 56.2586 121.537 56.2162 121.658L55.644 121.224C55.7234 121.045 55.8388 120.872 55.9902 120.705C56.1427 120.532 56.3073 120.388 56.4841 120.271C56.8486 120.029 57.1787 119.939 57.4743 120C57.7711 120.055 58.0219 120.286 58.2267 120.693L58.9432 122.116L58.2101 122.601ZM57.5687 123.082C57.3892 123.201 57.2199 123.267 57.0607 123.28C56.9015 123.292 56.7586 123.261 56.632 123.185C56.5082 123.107 56.409 122.995 56.3344 122.846C56.255 122.689 56.2213 122.531 56.2332 122.371C56.2463 122.207 56.3109 122.047 56.4271 121.89C56.5417 121.73 56.715 121.574 56.947 121.42L57.4772 121.069L57.7129 121.537L57.2904 121.817C57.1634 121.901 57.0855 121.984 57.0568 122.066C57.0309 122.146 57.0378 122.225 57.0775 122.304C57.1172 122.383 57.1752 122.429 57.2515 122.441C57.3277 122.454 57.4114 122.43 57.5026 122.369C57.5882 122.313 57.6536 122.238 57.6988 122.145C57.7452 122.047 57.7596 121.937 57.742 121.814L58.0163 122.074C58.0638 122.277 58.0498 122.465 57.9743 122.637C57.9 122.804 57.7648 122.952 57.5687 123.082Z" fill="white"/>
<path d="M62.2583 116.449C62.4323 116.334 62.6075 116.273 62.7841 116.265C62.9619 116.253 63.1315 116.304 63.2929 116.42C63.4571 116.534 63.6059 116.723 63.7392 116.988L64.4772 118.453L63.6902 118.974L63.0259 117.655C62.9339 117.473 62.8369 117.36 62.7348 117.319C62.6312 117.274 62.527 117.286 62.422 117.356C62.3475 117.405 62.2901 117.47 62.25 117.551C62.2099 117.632 62.1947 117.727 62.2044 117.834C62.2125 117.937 62.2499 118.056 62.3166 118.188L62.957 119.459L62.1699 119.98L61.5057 118.661C61.4136 118.479 61.3166 118.366 61.2146 118.325C61.1137 118.278 61.0095 118.29 60.9018 118.362C60.8245 118.413 60.7657 118.479 60.7256 118.56C60.6882 118.639 60.673 118.734 60.68 118.842C60.6881 118.946 60.7255 119.064 60.7922 119.197L61.4326 120.468L60.6455 120.989L59.3552 118.427L60.105 117.931L60.4644 118.645L60.213 118.54C60.2037 118.303 60.2479 118.091 60.3455 117.904C60.4415 117.715 60.5779 117.561 60.7546 117.444C60.9562 117.311 61.1631 117.254 61.3753 117.273C61.5887 117.287 61.7843 117.402 61.9621 117.616L61.6744 117.724C61.6497 117.463 61.6881 117.222 61.7895 116.999C61.8922 116.771 62.0484 116.588 62.2583 116.449Z" fill="white"/>
<path d="M66.2001 117.37C65.935 117.545 65.6745 117.642 65.4185 117.66C65.1637 117.673 64.9311 117.617 64.7207 117.492C64.5114 117.361 64.3425 117.169 64.2139 116.913C64.0853 116.658 64.0235 116.396 64.0285 116.129C64.0346 115.856 64.1038 115.602 64.236 115.367C64.3667 115.13 64.5494 114.933 64.7841 114.778C65.005 114.631 65.2328 114.55 65.4675 114.533C65.7005 114.514 65.9209 114.567 66.1286 114.695C66.3363 114.822 66.5115 115.027 66.6544 115.311C66.6702 115.342 66.6871 115.38 66.705 115.422C66.7229 115.465 66.7391 115.505 66.7538 115.541L64.9768 116.717L64.7387 116.245L66.0974 115.345L65.8658 115.675C65.8098 115.557 65.7397 115.469 65.6554 115.411C65.5739 115.352 65.4854 115.322 65.3898 115.322C65.2969 115.321 65.2035 115.351 65.1096 115.413C65.0158 115.475 64.9448 115.554 64.8968 115.648C64.8516 115.741 64.8319 115.845 64.8376 115.959C64.8418 116.069 64.8733 116.183 64.932 116.299L65.001 116.437C65.0645 116.563 65.1414 116.657 65.2316 116.719C65.3246 116.779 65.4266 116.806 65.5376 116.8C65.647 116.791 65.761 116.747 65.8798 116.668C65.9903 116.595 66.0754 116.515 66.1353 116.43C66.1963 116.339 66.2465 116.23 66.2857 116.103L66.9475 116.321C66.9081 116.527 66.8279 116.719 66.707 116.896C66.5845 117.069 66.4155 117.227 66.2001 117.37Z" fill="white"/>
<path d="M67.8105 112.775C67.9845 112.66 68.1625 112.596 68.3447 112.585C68.5252 112.571 68.6975 112.621 68.8617 112.735C69.0287 112.847 69.1788 113.035 69.3122 113.3L70.0502 114.765L69.2631 115.286L68.5989 113.967C68.5069 113.784 68.4071 113.674 68.2995 113.636C68.1932 113.593 68.082 113.61 67.966 113.687C67.8831 113.741 67.8183 113.814 67.7715 113.904C67.7231 113.99 67.7018 114.09 67.7075 114.204C67.7133 114.318 67.7519 114.446 67.8233 114.588L68.4471 115.826L67.66 116.347L65.8936 112.84L66.6806 112.319L67.5234 113.992L67.234 113.9C67.2259 113.657 67.2735 113.441 67.3766 113.251C67.4781 113.058 67.6227 112.899 67.8105 112.775Z" fill="white"/>
<path d="M70.5443 114.438L69.254 111.876L70.0037 111.38L70.3799 112.127L70.1609 111.988C70.1304 111.752 70.1659 111.537 70.2674 111.344C70.3673 111.148 70.5236 110.979 70.7362 110.839L71.1433 111.647C71.1043 111.664 71.0709 111.682 71.0433 111.7C71.0168 111.714 70.9884 111.73 70.9581 111.751C70.7979 111.857 70.6935 111.993 70.6449 112.159C70.5946 112.323 70.6259 112.517 70.7386 112.74L71.3314 113.917L70.5443 114.438Z" fill="white"/>
<path d="M73.6104 112.409L73.3699 111.932L73.2566 111.849L72.8138 110.97C72.7424 110.828 72.6489 110.745 72.5335 110.721C72.4193 110.691 72.2793 110.731 72.1136 110.841C72.0059 110.912 71.9071 111.005 71.8173 111.119C71.7259 111.23 71.659 111.345 71.6166 111.466L71.0444 111.032C71.1238 110.853 71.2392 110.68 71.3905 110.513C71.543 110.34 71.7077 110.196 71.8844 110.079C72.2489 109.838 72.579 109.747 72.8747 109.808C73.1715 109.863 73.4223 110.095 73.627 110.501L74.3436 111.924L73.6104 112.409ZM72.969 112.89C72.7895 113.009 72.6202 113.075 72.461 113.088C72.3018 113.101 72.1589 113.069 72.0323 112.993C71.9085 112.916 71.8093 112.803 71.7347 112.655C71.6554 112.497 71.6216 112.339 71.6335 112.18C71.6466 112.015 71.7113 111.855 71.8275 111.698C71.9421 111.538 72.1154 111.382 72.3474 111.228L72.8776 110.877L73.1133 111.345L72.6907 111.625C72.5637 111.709 72.4859 111.792 72.4572 111.874C72.4313 111.954 72.4382 112.034 72.4779 112.112C72.5175 112.191 72.5755 112.237 72.6518 112.249C72.7281 112.262 72.8118 112.238 72.9029 112.178C72.9885 112.121 73.0539 112.046 73.0992 111.953C73.1456 111.855 73.16 111.745 73.1423 111.622L73.4167 111.882C73.4641 112.086 73.4501 112.273 73.3746 112.445C73.3003 112.612 73.1651 112.76 72.969 112.89Z" fill="white"/>
<path d="M75.1932 111.418C75.0606 111.506 74.9234 111.529 74.7815 111.489C74.6396 111.448 74.5297 111.351 74.452 111.197C74.371 111.036 74.3523 110.878 74.3958 110.723C74.4377 110.565 74.525 110.442 74.6575 110.355C74.7901 110.267 74.9265 110.242 75.0669 110.279C75.2056 110.313 75.3155 110.411 75.3964 110.572C75.4742 110.726 75.4929 110.884 75.4526 111.045C75.4122 111.206 75.3258 111.33 75.1932 111.418Z" fill="white"/>
<path d="M47.9563 121.613C47.83 121.696 47.7015 121.75 47.5706 121.775C47.4403 121.796 47.314 121.789 47.1916 121.755C47.0698 121.718 46.9574 121.656 46.8542 121.568C46.7511 121.48 46.6642 121.366 46.5934 121.226C46.5227 121.085 46.4799 120.942 46.4652 120.796C46.4504 120.649 46.4607 120.507 46.4961 120.368C46.5305 120.228 46.5888 120.099 46.671 119.982C46.7538 119.863 46.8583 119.761 46.9846 119.678C47.1124 119.593 47.2427 119.54 47.3754 119.52C47.5087 119.496 47.6378 119.508 47.7625 119.555L47.6944 119.827C47.5931 119.793 47.494 119.785 47.397 119.801C47.299 119.815 47.2051 119.852 47.1151 119.912C47.022 119.973 46.9443 120.049 46.882 120.138C46.8212 120.226 46.7779 120.322 46.7522 120.426C46.7265 120.529 46.7197 120.637 46.7319 120.749C46.7448 120.858 46.7775 120.965 46.8301 121.069C46.8827 121.173 46.9475 121.26 47.0244 121.329C47.102 121.396 47.1863 121.442 47.2773 121.468C47.3684 121.494 47.4624 121.499 47.5594 121.483C47.6581 121.466 47.7539 121.426 47.847 121.365C47.937 121.305 48.0123 121.231 48.0731 121.143C48.1329 121.053 48.1749 120.948 48.1991 120.829L48.4386 120.898C48.4118 121.045 48.3567 121.18 48.2732 121.302C48.1913 121.424 48.0857 121.527 47.9563 121.613Z" fill="white"/>
<path d="M48.6249 121.142L48.4229 118.754L48.6573 118.599L50.3623 119.992L50.1137 120.156L48.5678 118.86L48.6624 118.798L48.8687 120.98L48.6249 121.142ZM48.7063 120.458L48.6614 120.199L49.594 119.582L49.7715 119.753L48.7063 120.458Z" fill="white"/>
<path d="M50.6094 119.828L49.6572 117.938L50.3034 117.51C50.4486 117.414 50.5856 117.358 50.7145 117.342C50.8433 117.327 50.9603 117.35 51.0654 117.413C51.1706 117.475 51.2576 117.575 51.3265 117.712C51.3954 117.848 51.4272 117.985 51.4219 118.12C51.4156 118.254 51.3743 118.381 51.2981 118.501C51.2218 118.621 51.1111 118.729 50.9659 118.825L50.4499 119.167L50.4938 118.972L50.8462 119.672L50.6094 119.828ZM51.7172 119.095L50.9504 118.688L51.2036 118.52L51.9752 118.924L51.7172 119.095ZM50.5074 118.999L50.3342 118.937L50.8432 118.6C50.9946 118.5 51.0905 118.388 51.1306 118.263C51.1714 118.135 51.1578 118.003 51.0898 117.868C51.0218 117.733 50.9297 117.655 50.8136 117.633C50.6991 117.611 50.5661 117.649 50.4146 117.75L49.9057 118.086L49.9442 117.881L50.5074 118.999Z" fill="white"/>
<path d="M52.3293 118.69L51.377 116.799L52.0753 116.337C52.252 116.22 52.4274 116.157 52.6014 116.148C52.7771 116.137 52.9378 116.178 53.0836 116.271C53.231 116.364 53.3518 116.503 53.4462 116.691C53.5405 116.878 53.5856 117.068 53.5815 117.26C53.579 117.451 53.5298 117.631 53.434 117.801C53.3398 117.969 53.2043 118.111 53.0275 118.228L52.3293 118.69ZM52.4476 118.298L52.895 118.002C53.0323 117.912 53.1357 117.804 53.2052 117.678C53.2762 117.552 53.3126 117.418 53.3143 117.275C53.3152 117.13 53.2802 116.988 53.2095 116.847C53.1378 116.705 53.0476 116.599 52.9389 116.529C52.8301 116.46 52.7103 116.428 52.5794 116.436C52.45 116.442 52.3167 116.491 52.1794 116.582L51.7321 116.878L52.4476 118.298Z" fill="white"/>
<path d="M55.1565 114.298L55.3932 114.142L56.3455 116.032L56.1088 116.189L55.1565 114.298ZM55.1573 116.819L54.9206 116.975L53.9683 115.085L54.205 114.928L55.1573 116.819ZM55.7057 115.332L54.7091 115.992L54.5908 115.757L55.5873 115.097L55.7057 115.332Z" fill="white"/>
<path d="M57.6003 115.231C57.4741 115.314 57.3443 115.368 57.2109 115.391C57.0791 115.413 56.952 115.408 56.8296 115.373C56.7062 115.337 56.593 115.275 56.4899 115.188C56.3867 115.1 56.3003 114.987 56.2304 114.848C56.1606 114.709 56.1183 114.567 56.1035 114.421C56.0888 114.274 56.0991 114.132 56.1344 113.993C56.1689 113.853 56.2275 113.723 56.3103 113.603C56.3932 113.483 56.4985 113.381 56.6263 113.297C56.7526 113.213 56.8808 113.161 57.011 113.139C57.1419 113.115 57.269 113.121 57.3923 113.157C57.5164 113.19 57.6291 113.251 57.7307 113.34C57.8338 113.428 57.9208 113.542 57.9915 113.682C58.0622 113.823 58.105 113.966 58.1198 114.113C58.1361 114.258 58.1263 114.401 58.0902 114.543C58.0549 114.681 57.9958 114.81 57.9129 114.93C57.8308 115.047 57.7266 115.147 57.6003 115.231ZM57.4793 114.99C57.5708 114.93 57.6462 114.856 57.7053 114.769C57.7661 114.68 57.8086 114.585 57.8327 114.483C57.8576 114.377 57.8635 114.27 57.8507 114.161C57.8394 114.051 57.8074 113.944 57.7548 113.839C57.7022 113.735 57.6371 113.649 57.5595 113.583C57.4835 113.516 57.4 113.469 57.309 113.443C57.2186 113.414 57.1249 113.407 57.0279 113.423C56.9324 113.439 56.8389 113.476 56.7474 113.537C56.6543 113.599 56.5773 113.674 56.5166 113.762C56.4574 113.849 56.4154 113.945 56.3906 114.051C56.3648 114.154 56.3576 114.261 56.3689 114.371C56.3818 114.48 56.4145 114.587 56.4671 114.691C56.5197 114.796 56.584 114.882 56.66 114.949C56.7376 115.015 56.8224 115.062 56.9143 115.09C57.0053 115.117 57.0986 115.122 57.1941 115.107C57.2911 115.091 57.3862 115.052 57.4793 114.99Z" fill="white"/>
<path d="M58.8294 114.388L57.8772 112.498L58.1139 112.341L58.9478 113.997L59.8449 113.403L59.9633 113.638L58.8294 114.388Z" fill="white"/>
<path d="M60.2349 113.458L59.2826 111.568L59.9809 111.105C60.1576 110.988 60.333 110.925 60.5071 110.916C60.6827 110.905 60.8434 110.946 60.9892 111.04C61.1366 111.132 61.2575 111.271 61.3518 111.459C61.4461 111.646 61.4912 111.836 61.4871 112.028C61.4846 112.219 61.4354 112.4 61.3396 112.569C61.2454 112.737 61.1099 112.879 60.9332 112.996L60.2349 113.458ZM60.3532 113.067L60.8006 112.77C60.9379 112.68 61.0413 112.572 61.1108 112.446C61.1818 112.32 61.2182 112.186 61.22 112.043C61.2208 111.898 61.1858 111.756 61.1151 111.615C61.0434 111.473 60.9532 111.367 60.8445 111.297C60.7357 111.228 60.6159 111.197 60.485 111.204C60.3557 111.21 60.2223 111.259 60.085 111.35L59.6377 111.646L60.3532 113.067Z" fill="white"/>
<path d="M61.8645 110.946L62.7166 110.383L62.8322 110.612L61.9801 111.176L61.8645 110.946ZM62.3088 111.772L63.2746 111.133L63.393 111.368L62.1905 112.164L61.2382 110.273L62.4075 109.5L62.5259 109.734L61.5933 110.352L62.3088 111.772Z" fill="white"/>
<path d="M63.7762 111.115L62.824 109.224L63.4702 108.796C63.6153 108.7 63.7524 108.644 63.8812 108.629C64.0101 108.613 64.1271 108.636 64.2322 108.699C64.3373 108.761 64.4244 108.861 64.4933 108.998C64.5622 109.135 64.594 109.271 64.5886 109.407C64.5824 109.54 64.5411 109.667 64.4649 109.787C64.3886 109.907 64.2779 110.016 64.1327 110.112L63.6167 110.453L63.6606 110.258L64.0129 110.958L63.7762 111.115ZM64.884 110.381L64.1171 109.974L64.3704 109.807L65.142 110.211L64.884 110.381ZM63.6742 110.285L63.501 110.224L64.0099 109.887C64.1614 109.786 64.2572 109.674 64.2974 109.549C64.3382 109.421 64.3246 109.29 64.2566 109.155C64.1886 109.019 64.0965 108.941 63.9804 108.92C63.8659 108.897 63.7329 108.936 63.5814 109.036L63.0725 109.373L63.111 109.167L63.6742 110.285Z" fill="white"/>
<path d="M36.9798 102.44C36.6041 101.694 36.8294 100.738 37.4831 100.306L48.1349 93.2565C48.7885 92.824 49.6229 93.0779 49.9986 93.8237L53.6263 101.026C54.002 101.772 53.7766 102.727 53.123 103.16L42.4712 110.209C41.8175 110.642 40.9831 110.388 40.6075 109.642L36.9798 102.44Z" fill="white"/>
<path d="M100.207 68.8745C99.9554 69.0408 99.7144 69.1435 99.4838 69.1827C99.2531 69.2219 99.0451 69.2 98.8596 69.1168C98.6753 69.0287 98.53 68.8791 98.4237 68.668C98.3189 68.46 98.2825 68.2488 98.3144 68.0344C98.3475 67.8151 98.6548 67.5949 98.8045 67.395C98.9553 67.1902 98.9392 67.016 99.1877 66.8515C99.4363 66.687 99.6743 66.582 99.9018 66.5365C100.13 66.486 100.334 66.5001 100.514 66.5788C100.695 66.6524 100.837 66.7933 100.942 67.0012C101.049 67.2123 101.089 67.4314 101.063 67.6584C101.036 67.8823 100.949 68.0998 100.801 68.311C100.656 68.5203 100.458 68.7081 100.207 68.8745ZM99.8758 68.2175C100.008 68.1297 100.095 68.0241 100.136 67.9004C100.179 67.7749 100.169 67.6476 100.104 67.5184C100.04 67.3924 99.9501 67.3196 99.8335 67.3001C99.7181 67.2757 99.5941 67.3073 99.4615 67.395C99.329 67.4828 99.2417 67.5909 99.1997 67.7196C99.1589 67.8432 99.1702 67.9681 99.2337 68.0941C99.2988 68.2233 99.3882 68.2985 99.502 68.3198C99.6186 68.3393 99.7432 68.3052 99.8758 68.2175ZM99.421 67.3147C99.1946 67.4646 98.9761 67.5608 98.7657 67.6035C98.5579 67.6443 98.3702 67.6299 98.2026 67.5602C98.0333 67.4873 97.9003 67.3548 97.8035 67.1626C97.7035 66.9641 97.6661 66.7619 97.6913 66.5562C97.7193 66.3486 97.8005 66.1478 97.9348 65.9539C98.0675 65.7568 98.2471 65.5834 98.4735 65.4335C98.7027 65.2818 98.9236 65.1903 99.1361 65.1589C99.3497 65.1225 99.5406 65.1433 99.7087 65.2211C99.8795 65.2971 100.015 65.4344 100.115 65.6329C100.212 65.8251 100.245 66.0234 100.216 66.2279C100.187 66.4273 100.104 66.6209 99.9669 66.8085C99.8295 66.9961 99.6475 67.1648 99.421 67.3147ZM99.1544 66.7853C99.2593 66.7159 99.3285 66.6302 99.3619 66.5283C99.3936 66.4232 99.3825 66.3171 99.3286 66.21C99.2714 66.0966 99.1947 66.0318 99.0982 66.0158C99.0046 65.998 98.9066 66.0229 98.8045 66.0905C98.7023 66.1581 98.6345 66.2429 98.6011 66.3448C98.5678 66.4467 98.5797 66.5544 98.6368 66.6678C98.6908 66.7749 98.7654 66.839 98.8606 66.86C98.9543 66.8778 99.0522 66.8529 99.1544 66.7853Z" fill="white"/>
<path d="M105.613 65.2963C105.343 65.4754 105.076 65.5702 104.812 65.5807C104.552 65.5894 104.303 65.5099 104.068 65.3422C103.835 65.1727 103.629 64.9099 103.45 64.5538C103.256 64.1694 103.157 63.8003 103.152 63.4466C103.148 63.0878 103.225 62.7617 103.383 62.4682C103.543 62.1729 103.775 61.9248 104.079 61.7237C104.242 61.6159 104.409 61.5347 104.581 61.4801C104.753 61.4206 104.911 61.3939 105.054 61.4001L105.094 62.2686C104.978 62.2573 104.868 62.2707 104.766 62.309C104.665 62.3422 104.568 62.39 104.474 62.4521C104.25 62.6001 104.109 62.7961 104.052 63.0401C103.997 63.2822 104.044 63.5514 104.193 63.8476C104.22 63.9011 104.249 63.9578 104.279 64.0177C104.31 64.0726 104.345 64.1272 104.384 64.1816L104.279 64.0177C104.276 63.8646 104.093 63.8302 104.13 63.7003C104.171 63.5685 104.234 63.4465 104.321 63.3343C104.411 63.2202 104.524 63.1184 104.659 63.0288C104.841 62.9082 105.029 62.8427 105.223 62.8322C105.418 62.8168 105.6 62.8577 105.771 62.9549C105.94 63.049 106.077 63.2016 106.184 63.4127C106.3 63.6428 106.349 63.8767 106.333 64.1144C106.315 64.3491 106.244 64.5703 106.12 64.7781C105.995 64.9828 105.826 65.1555 105.613 65.2963ZM105.228 64.6627C105.305 64.6115 105.364 64.5494 105.405 64.4764C105.448 64.4015 105.471 64.3216 105.472 64.2367C105.473 64.1517 105.453 64.0667 105.41 63.9816C105.346 63.8556 105.258 63.7794 105.146 63.7531C105.036 63.725 104.921 63.7503 104.803 63.8288C104.722 63.8818 104.661 63.9458 104.618 64.0206C104.577 64.0937 104.555 64.1736 104.55 64.2604C104.549 64.3453 104.57 64.4303 104.613 64.5154C104.654 64.5973 104.707 64.6589 104.772 64.6999C104.835 64.7379 104.907 64.7557 104.987 64.7533C105.065 64.7477 105.145 64.7175 105.228 64.6627Z" fill="white"/>
<path d="M107.976 63.7325C107.778 63.8641 107.563 63.9683 107.333 64.0449C107.103 64.1216 106.888 64.1564 106.689 64.1493L106.629 63.2504C106.792 63.2601 106.955 63.2428 107.116 63.1987C107.281 63.1528 107.433 63.0841 107.571 62.9927C107.709 62.9013 107.805 62.7974 107.861 62.6809C107.915 62.5612 107.914 62.4462 107.858 62.3359C107.825 62.2698 107.779 62.2224 107.721 62.1939C107.66 62.1623 107.584 62.1604 107.491 62.1882C107.397 62.2128 107.275 62.2745 107.126 62.3732L106.339 62.894L105.51 60.8649L107.358 59.6423L107.722 60.3654L106.164 61.3962L106.46 61.2004L106.813 61.6098L106.312 61.9413L106.954 61.5164C107.241 61.3264 107.496 61.221 107.717 61.2004C107.937 61.1767 108.127 61.2171 108.286 61.3216C108.444 61.423 108.572 61.5714 108.671 61.7668C108.769 61.9621 108.816 62.1766 108.813 62.4102C108.81 62.6389 108.743 62.868 108.612 63.0976C108.481 63.3272 108.269 63.5388 107.976 63.7325Z" fill="white"/>
<path d="M101.184 63.7862C101.457 63.6053 101.724 63.5104 101.985 63.5018C102.248 63.4912 102.496 63.5707 102.729 63.7403C102.963 63.9048 103.17 64.1667 103.351 64.5259C103.545 64.9103 103.644 65.2819 103.648 65.6406C103.653 65.9944 103.575 66.3189 103.414 66.6142C103.257 66.9077 103.024 67.1559 102.718 67.3587C102.558 67.4647 102.392 67.545 102.221 67.5996C102.051 67.6573 101.893 67.684 101.747 67.6797L101.707 66.8111C101.824 66.8224 101.932 66.8115 102.033 66.7782C102.136 66.74 102.234 66.6898 102.328 66.6276C102.551 66.4796 102.69 66.2845 102.745 66.0424C102.8 65.8003 102.753 65.5311 102.604 65.2349C102.577 65.1813 102.549 65.1262 102.52 65.0695C102.49 65.0096 102.456 64.9525 102.417 64.8981L102.535 65.0981C102.544 65.2476 102.711 65.2477 102.671 65.3794C102.631 65.5112 102.567 65.6332 102.48 65.7455C102.393 65.8577 102.28 65.9595 102.142 66.0509C101.96 66.1715 101.771 66.2395 101.577 66.255C101.383 66.2654 101.202 66.2236 101.033 66.1295C100.862 66.0323 100.724 65.8781 100.618 65.667C100.502 65.437 100.453 65.2046 100.471 64.97C100.487 64.7322 100.558 64.511 100.683 64.3063C100.807 64.0985 100.974 63.9251 101.184 63.7862ZM101.573 64.417C101.496 64.4682 101.437 64.5303 101.396 64.6033C101.356 64.6764 101.333 64.7563 101.329 64.8431C101.326 64.9249 101.347 65.0099 101.391 65.0981C101.455 65.2241 101.542 65.3012 101.652 65.3293C101.764 65.3556 101.88 65.3295 101.999 65.2509C102.079 65.1979 102.14 65.1339 102.184 65.0591C102.227 64.9842 102.249 64.9043 102.251 64.8193C102.252 64.7344 102.231 64.6494 102.189 64.5643C102.147 64.4824 102.095 64.4224 102.032 64.3845C101.967 64.3434 101.895 64.3256 101.817 64.3312C101.737 64.3336 101.656 64.3622 101.573 64.417Z" fill="white"/>
</g>
<rect x="1" y="1" width="144" height="153" rx="15" fill="#474A57" stroke="#18191F" stroke-width="2"/>
<g filter="url(#filter1_d_17_1266)">
<path d="M96.0542 29.133C98.6687 27.4027 102.006 28.4185 103.509 31.4018L127.543 79.1177C129.045 82.101 128.144 85.9222 125.529 87.6525L51.1641 136.867C48.5495 138.597 45.2118 137.582 43.7092 134.598L19.6756 86.8823C18.173 83.899 19.0744 80.0778 21.689 78.3475L96.0542 29.133Z" fill="#0E9F37"/>
<path d="M110.615 78.0873C110.255 78.149 109.717 78.3107 109.142 78.6911C107.674 79.6623 107.089 81.2362 107.724 82.5129C108.184 83.4598 109.199 83.4835 109.919 83.4242C110.655 83.3636 110.956 83.443 111.099 83.7282C111.314 84.1699 110.957 84.6754 110.529 84.9585C109.936 85.3512 109.566 85.4575 108.96 85.5336L108.711 85.5586L109.243 87.1635C109.682 87.1134 110.405 86.8487 111.075 86.4146C112.634 85.3826 113.208 83.8346 112.537 82.4706C112.168 81.7226 111.484 81.4153 110.393 81.516C109.723 81.5609 109.303 81.5699 109.149 81.2639C109.015 80.9817 109.134 80.5226 109.721 80.1343C110.197 79.8007 110.619 79.6978 110.954 79.652L111.124 79.6325L110.615 78.0873Z" fill="white"/>
<path d="M108.439 88.0291L106.953 89.0125L104.591 81.861L106.077 80.8776L108.439 88.0291Z" fill="white"/>
<path fill-rule="evenodd" clip-rule="evenodd" d="M113.194 76.1672L114.344 75.4065L118.835 81.1494L117.459 82.06C117.459 82.06 116.946 81.3981 116.788 81.1968L114.88 82.4595L115.062 83.6464L113.502 84.6783L112.691 77.2236C112.63 76.6982 112.84 76.4018 113.194 76.1672ZM114.307 78.6198C114.307 78.6198 114.568 80.3847 114.635 80.8412L115.87 80.0238C115.645 79.7374 114.575 78.3591 114.575 78.3591L114.188 77.8646C114.217 78.0386 114.254 78.2799 114.279 78.4426C114.296 78.5527 114.308 78.6271 114.307 78.6198Z" fill="white"/>
<path d="M102.42 83.2976L103.21 88.7179L102.595 87.9192L100.563 85.2594C100.267 84.8986 99.9442 84.9544 99.6132 85.1551L97.2222 86.7374L97.2643 86.8856C97.9329 86.6693 98.5775 86.5685 99.1875 86.57L103.373 91.3729L104.944 90.3329L103.991 82.2577L102.42 83.2976Z" fill="white"/>
<path d="M61.183 94.6129C60.9317 94.7792 60.6907 94.8819 60.4601 94.9211C60.2295 94.9603 60.0214 94.9384 59.8359 94.8552C59.6516 94.7671 59.5063 94.6175 59.4 94.4064C59.2953 94.1984 59.2588 93.9873 59.2908 93.7729C59.3239 93.5535 59.6311 93.3334 59.7808 93.1335C59.9317 92.9286 59.9155 92.7544 60.1641 92.5899C60.4126 92.4254 60.6506 92.3204 60.8781 92.2749C61.1067 92.2244 61.3108 92.2385 61.4904 92.3172C61.6711 92.3909 61.8138 92.5317 61.9185 92.7396C62.0249 92.9508 62.0653 93.1698 62.0397 93.3968C62.0125 93.6207 61.9251 93.8382 61.7774 94.0494C61.6324 94.2587 61.4343 94.4466 61.183 94.6129ZM60.8521 93.9559C60.9847 93.8682 61.0714 93.7625 61.1122 93.6388C61.1558 93.5133 61.145 93.386 61.0799 93.2568C61.0164 93.1308 60.9264 93.058 60.8098 93.0385C60.6944 93.0141 60.5704 93.0457 60.4379 93.1335C60.3053 93.2212 60.218 93.3293 60.176 93.458C60.1352 93.5816 60.1466 93.7065 60.21 93.8325C60.2751 93.9617 60.3646 94.0369 60.4784 94.0583C60.595 94.0777 60.7195 94.0436 60.8521 93.9559ZM60.3974 93.0531C60.1709 93.203 59.9525 93.2992 59.742 93.3419C59.5343 93.3827 59.3466 93.3683 59.1789 93.2986C59.0097 93.2257 58.8766 93.0932 58.7798 92.901C58.6798 92.7025 58.6425 92.5003 58.6677 92.2946C58.6957 92.087 58.7768 91.8862 58.9111 91.6923C59.0439 91.4952 59.2234 91.3218 59.4499 91.1719C59.6791 91.0202 59.8999 90.9287 60.1124 90.8973C60.3261 90.8609 60.5169 90.8817 60.685 90.9595C60.8559 91.0355 60.9913 91.1728 61.0913 91.3713C61.1881 91.5635 61.2217 91.7618 61.1921 91.9663C61.1637 92.1657 61.0808 92.3593 60.9433 92.5469C60.8058 92.7345 60.6238 92.9032 60.3974 93.0531ZM60.1308 92.5237C60.2357 92.4543 60.3049 92.3686 60.3382 92.2667C60.37 92.1616 60.3589 92.0555 60.3049 91.9484C60.2478 91.835 60.171 91.7702 60.0746 91.7542C59.9809 91.7364 59.883 91.7613 59.7808 91.8289C59.6786 91.8965 59.6108 91.9813 59.5775 92.0832C59.5441 92.1851 59.556 92.2928 59.6132 92.4062C59.6671 92.5134 59.7417 92.5774 59.837 92.5984C59.9307 92.6162 60.0286 92.5913 60.1308 92.5237Z" fill="white"/>
<path d="M63.1171 93.2447L63.1171 89.9988L63.1748 89.7845L62.06 90.5758L61.9185 90.4384L62.2969 91.0461L61.5968 91.5094L60.966 90.2568L63.3685 88.6668L63.6637 89.2529L64.0118 92.6525L63.1171 93.2447Z" fill="white"/>
<path d="M66.5898 91.0347C66.3192 91.2138 66.0521 91.3086 65.7886 91.3191C65.5279 91.3278 65.2798 91.2483 65.0444 91.0806C64.8117 90.9111 64.6057 90.6483 64.4264 90.2922C64.2327 89.9078 64.1334 89.5387 64.1283 89.185C64.1243 88.8263 64.2013 88.5001 64.359 88.2067C64.5196 87.9113 64.7518 87.6632 65.0555 87.4621C65.2185 87.3543 65.3856 87.2731 65.5569 87.2185C65.7295 87.159 65.8872 87.1323 66.0303 87.1385L66.0701 88.007C65.9539 87.9957 65.8447 88.0091 65.7425 88.0474C65.6414 88.0807 65.5439 88.1284 65.45 88.1905C65.2263 88.3385 65.0857 88.5345 65.0282 88.7785C64.9734 89.0206 65.0206 89.2898 65.1698 89.586C65.1967 89.6395 65.2253 89.6963 65.2555 89.7561C65.2868 89.811 65.3217 89.8657 65.3601 89.92L65.2555 89.7561C65.252 89.603 65.069 89.5686 65.1066 89.4387C65.147 89.3069 65.2108 89.1849 65.2978 89.0727C65.3877 88.9586 65.5002 88.8568 65.6356 88.7672C65.8178 88.6466 66.0057 88.5811 66.1993 88.5706C66.394 88.5552 66.5767 88.5961 66.7471 88.6933C66.916 88.7874 67.0537 88.94 67.16 89.1511C67.2759 89.3812 67.3256 89.6151 67.3091 89.8528C67.291 90.0875 67.2202 90.3087 67.0966 90.5165C66.9714 90.7212 66.8025 90.8939 66.5898 91.0347ZM66.2044 90.4011C66.2818 90.3499 66.3407 90.2878 66.3812 90.2148C66.4245 90.1399 66.4469 90.06 66.4483 89.9751C66.4497 89.8901 66.4289 89.8051 66.3861 89.72C66.3226 89.594 66.2345 89.5178 66.1219 89.4915C66.012 89.4634 65.8977 89.4887 65.7789 89.5673C65.6988 89.6203 65.6372 89.6842 65.5939 89.7591C65.5533 89.8321 65.531 89.912 65.5268 89.9988C65.5254 90.0837 65.5461 90.1688 65.589 90.2538C65.6303 90.3358 65.6833 90.3973 65.7482 90.4384C65.8115 90.4763 65.8831 90.4941 65.9629 90.4917C66.0411 90.4861 66.1216 90.4559 66.2044 90.4011Z" fill="white"/>
<path d="M68.9527 89.4709C68.7539 89.6025 68.5394 89.7067 68.3092 89.7834C68.079 89.8601 67.8646 89.8948 67.6658 89.8877L67.6052 88.9888C67.7684 88.9985 67.931 88.9812 68.0928 88.9371C68.2575 88.8912 68.4089 88.8225 68.5469 88.7311C68.685 88.6398 68.7818 88.5358 68.8372 88.4193C68.8911 88.2996 68.8903 88.1846 68.8347 88.0743C68.8014 88.0082 68.7554 87.9608 68.6969 87.9324C68.6368 87.9007 68.5603 87.8988 68.4676 87.9266C68.3732 87.9512 68.2514 88.0129 68.1023 88.1116L67.3153 88.6324L66.4866 86.6033L68.334 85.3807L68.6983 86.1038L67.1408 87.1346L67.4366 86.9388L67.7893 87.3482L67.2883 87.6798L67.9304 87.2548C68.2176 87.0648 68.472 86.9594 68.6936 86.9388C68.9136 86.9151 69.1033 86.9555 69.2627 87.06C69.4206 87.1614 69.5487 87.3098 69.6471 87.5052C69.7455 87.7005 69.7928 87.915 69.789 88.1486C69.7863 88.3773 69.7194 88.6064 69.5884 88.836C69.4573 89.0656 69.2454 89.2772 68.9527 89.4709Z" fill="white"/>
<path d="M73.2707 86.5251L72.9701 83.302L73.3284 83.0648L71.8579 84.038L72.1941 83.8155L72.4505 84.3264L71.7505 84.7897L71.1196 83.5372L73.5222 81.9472L73.8174 82.5333L74.1655 85.9329L73.2707 86.5251Z" fill="white"/>
<path d="M76.6602 84.3701C76.4089 84.5364 76.168 84.6392 75.9373 84.6784C75.7067 84.7176 75.4986 84.6956 75.3131 84.6125C75.1289 84.5244 74.9835 84.3748 74.8772 84.1637C74.7725 83.9557 74.736 83.7445 74.768 83.5301C74.8011 83.3107 74.8925 83.1011 75.0422 82.9012C75.193 82.6963 75.3928 82.5116 75.6413 82.3472C75.8898 82.1827 76.1278 82.0777 76.3553 82.0322C76.5839 81.9817 76.788 81.9958 76.9676 82.0744C77.1483 82.1481 77.291 82.2889 77.3958 82.4969C77.5021 82.708 77.5425 82.9271 77.5169 83.1541C77.4897 83.3779 77.4023 83.5954 77.2546 83.8066C77.1096 84.016 76.9115 84.2038 76.6602 84.3701ZM76.3293 83.7131C76.4619 83.6254 76.5486 83.5197 76.5894 83.3961C76.633 83.2706 76.6222 83.1433 76.5571 83.0141C76.4937 82.888 76.4036 82.8153 76.287 82.7958C76.1716 82.7714 76.0476 82.803 75.9151 82.8907C75.7825 82.9784 75.6952 83.0866 75.6532 83.2152C75.6124 83.3389 75.6238 83.4637 75.6872 83.5898C75.7523 83.719 75.8418 83.7942 75.9556 83.8155C76.0722 83.835 76.1968 83.8009 76.3293 83.7131ZM75.8746 82.8104C75.6482 82.9602 75.4297 83.0565 75.2192 83.0992C75.0115 83.14 74.8238 83.1256 74.6561 83.0559C74.4869 82.983 74.3538 82.8505 74.257 82.6583C74.157 82.4597 74.1197 82.2576 74.1449 82.0518C74.1729 81.8442 74.254 81.6435 74.3883 81.4496C74.5211 81.2525 74.7006 81.079 74.9271 80.9292C75.1563 80.7775 75.3771 80.686 75.5896 80.6546C75.8033 80.6182 75.9941 80.6389 76.1622 80.7168C76.3331 80.7928 76.4685 80.93 76.5685 81.1286C76.6653 81.3208 76.6989 81.5191 76.6693 81.7235C76.6409 81.923 76.558 82.1165 76.4205 82.3042C76.283 82.4918 76.1011 82.6605 75.8746 82.8104ZM75.608 82.281C75.7129 82.2115 75.7821 82.1259 75.8154 82.024C75.8472 81.9189 75.8361 81.8128 75.7821 81.7057C75.725 81.5922 75.6482 81.5275 75.5518 81.5115C75.4581 81.4937 75.3602 81.5186 75.258 81.5862C75.1558 81.6538 75.0881 81.7386 75.0547 81.8405C75.0213 81.9424 75.0332 82.05 75.0904 82.1635C75.1443 82.2706 75.2189 82.3347 75.3142 82.3557C75.4079 82.3735 75.5058 82.3486 75.608 82.281Z" fill="white"/>
<path d="M78.5943 83.002L78.5943 80.1593L78.652 79.5417L77.1814 80.5149L77.4914 80.3098L77.7741 80.8033L77.074 81.2666L76.4432 80.0141L78.8457 78.4241L79.1409 79.0102L79.489 82.4098L78.5943 83.002Z" fill="white"/>
<path d="M81.756 80.9978C81.5571 81.1294 81.3426 81.2335 81.1125 81.3102C80.8823 81.3869 80.6679 81.4217 80.4691 81.4146L80.4085 80.5157C80.5717 80.5253 80.7342 80.5081 80.8961 80.464C81.0608 80.418 81.2121 80.3494 81.3502 80.258C81.4883 80.1666 81.5851 80.0627 81.6405 79.9461C81.6944 79.8265 81.6935 79.7115 81.638 79.6012C81.6046 79.535 81.5587 79.4877 81.5002 79.4592C81.4401 79.4276 81.3636 79.4256 81.2708 79.4534C81.1765 79.4781 81.0547 79.5397 80.9056 79.6384L80.1185 80.1593L79.2898 78.1302L81.1373 76.9075L81.5016 77.6307L80.3224 78.3802L80.1553 77.9734L80.7171 79.3409L80.5438 78.9191L80.7337 78.7817C81.0209 78.5916 81.2753 78.4863 81.4968 78.4657C81.7169 78.4419 81.9066 78.4823 82.066 78.5869C82.2239 78.6883 82.352 78.8367 82.4504 79.032C82.5488 79.2274 82.5961 79.4419 82.5922 79.6755C82.5896 79.9041 82.5227 80.1332 82.3917 80.3628C82.2606 80.5924 82.0487 80.8041 81.756 80.9978Z" fill="white"/>
<path d="M87.0104 77.5205C86.7397 77.6996 86.4727 77.7944 86.2092 77.8049C85.9484 77.8136 85.7004 77.7341 85.4649 77.5664C85.2322 77.3969 85.0262 77.1341 84.8469 76.778C84.6533 76.3936 84.5539 76.0245 84.5488 75.6708C84.5448 75.312 84.6218 74.9859 84.7796 74.6925C84.9401 74.3971 85.1723 74.149 85.4761 73.9479C85.639 73.8401 85.8061 73.7589 85.9775 73.7043C86.15 73.6448 86.3078 73.6181 86.4508 73.6243L86.4906 74.4928C86.3744 74.4815 86.2652 74.4949 86.163 74.5332C86.0619 74.5665 85.9644 74.6142 85.8705 74.6763C85.6468 74.8243 85.5062 75.0203 85.4487 75.2643C85.3939 75.5064 85.4411 75.7756 85.5903 76.0718C85.6173 76.1253 85.6458 76.1821 85.676 76.2419C85.7073 76.2968 85.7422 76.3515 85.7806 76.4058L85.6578 76.2058C85.6543 76.0527 85.4895 76.0544 85.5271 75.9245C85.5676 75.7927 85.6313 75.6707 85.7184 75.5585C85.8082 75.4444 85.9208 75.3426 86.0561 75.253C86.2383 75.1324 86.4263 75.0669 86.6198 75.0564C86.8146 75.041 86.9972 75.0819 87.1677 75.1791C87.3366 75.2732 87.4742 75.4258 87.5805 75.6369C87.6964 75.867 87.7461 76.1009 87.7296 76.3386C87.7115 76.5733 87.6407 76.7945 87.5171 77.0023C87.3919 77.207 87.223 77.3797 87.0104 77.5205ZM86.625 76.8869C86.7023 76.8357 86.7612 76.7736 86.8018 76.7006C86.8451 76.6257 86.8674 76.5458 86.8688 76.4609C86.8702 76.3759 86.8495 76.2909 86.8066 76.2058C86.7431 76.0798 86.6551 76.0036 86.5424 75.9773C86.4325 75.9492 86.3182 75.9745 86.1994 76.0531C86.1194 76.1061 86.0577 76.17 86.0144 76.2449C85.9738 76.3179 85.9515 76.3978 85.9473 76.4846C85.9459 76.5695 85.9667 76.6546 86.0095 76.7396C86.0508 76.8216 86.1039 76.8831 86.1687 76.9242C86.232 76.9621 86.3036 76.9799 86.3834 76.9775C86.4616 76.9719 86.5421 76.9417 86.625 76.8869Z" fill="white"/>
<path d="M88.756 76.277L88.8137 72.8168L87.3432 73.7899L87.573 73.6379L87.9358 74.0784L87.2358 74.5417L86.6049 73.2891L89.0074 71.6991L89.3026 72.2852L89.6508 75.6848L88.756 76.277Z" fill="white"/>
<path d="M91.9177 74.2728C91.7189 74.4044 91.5044 74.5085 91.2742 74.5852C91.044 74.6619 90.8296 74.6967 90.6308 74.6896L90.5702 73.7907C90.7334 73.8003 90.896 73.7831 91.0578 73.739C91.2225 73.6931 91.3739 73.6244 91.5119 73.533C91.65 73.4416 91.7468 73.3377 91.8022 73.2212C91.8561 73.1015 91.8553 72.9865 91.7997 72.8762C91.7664 72.81 91.7204 72.7627 91.6619 72.7342C91.6018 72.7026 91.5253 72.7007 91.4326 72.7285C91.3382 72.7531 91.2164 72.8148 91.0673 72.9135L90.2803 73.4343L89.4515 71.4052L91.299 70.1825L91.6633 70.9057L90.1058 71.9365L90.4016 71.7407L90.648 72.2204L90.2533 72.4816L90.8954 72.0567C91.1826 71.8666 91.437 71.7613 91.6586 71.7407C91.8786 71.7169 92.0683 71.7573 92.2277 71.8619C92.3856 71.9633 92.5137 72.1117 92.6121 72.307C92.7105 72.5024 92.7578 72.7169 92.754 72.9505C92.7513 73.1792 92.6844 73.4083 92.5534 73.6379C92.4223 73.8674 92.2104 74.0791 91.9177 74.2728Z" fill="white"/>
<path d="M92.7463 69.1365C93.0197 68.9556 93.2867 68.8608 93.5475 68.8521C93.811 68.8416 94.059 68.9211 94.2917 69.0906C94.5256 69.2551 94.733 69.517 94.9139 69.8763C95.1075 70.2607 95.2063 70.6323 95.2102 70.991C95.2153 71.3447 95.1376 71.6692 94.9771 71.9645C94.8193 72.258 94.5871 72.5062 94.2806 72.7091C94.1204 72.8151 93.9547 72.8954 93.7833 72.9499C93.6136 73.0077 93.4558 73.0343 93.31 73.03L93.2702 72.1614C93.3864 72.1728 93.495 72.1618 93.596 72.1285C93.6983 72.0903 93.7964 72.0401 93.8902 71.978C94.1139 71.8299 94.2532 71.6348 94.308 71.3927C94.3627 71.1506 94.3155 70.8814 94.1664 70.5852C94.1394 70.5317 94.1116 70.4765 94.083 70.4198C94.0529 70.3599 94.0186 70.3028 93.9801 70.2484L94.0975 70.4484C94.1065 70.5979 94.274 70.598 94.2336 70.7298C94.1932 70.8615 94.1295 70.9836 94.0424 71.0958C93.9553 71.208 93.8428 71.3098 93.7047 71.4012C93.5224 71.5218 93.3339 71.5899 93.1392 71.6053C92.9456 71.6158 92.7644 71.574 92.5955 71.4799C92.425 71.3826 92.2866 71.2284 92.1803 71.0173C92.0644 70.7873 92.0155 70.555 92.0336 70.3203C92.05 70.0826 92.1209 69.8613 92.2461 69.6566C92.3697 69.4488 92.5364 69.2754 92.7463 69.1365ZM93.1358 69.7673C93.0585 69.8185 92.9996 69.8806 92.959 69.9537C92.9185 70.0267 92.8961 70.1066 92.892 70.1934C92.889 70.2752 92.9097 70.3602 92.9542 70.4484C93.0176 70.5745 93.1043 70.6516 93.2142 70.6797C93.3269 70.7059 93.4426 70.6798 93.5613 70.6012C93.6414 70.5482 93.7031 70.4843 93.7464 70.4094C93.7897 70.3345 93.812 70.2546 93.8134 70.1697C93.8148 70.0847 93.7941 69.9997 93.7513 69.9146C93.71 69.8327 93.6577 69.7728 93.5944 69.7348C93.5295 69.6937 93.458 69.676 93.3798 69.6815C93.3 69.6839 93.2187 69.7125 93.1358 69.7673Z" fill="white"/>
<path d="M31.7016 87.3768C31.4807 87.523 31.2557 87.6173 31.0267 87.6596C30.7988 87.697 30.5777 87.6858 30.3634 87.6259C30.1504 87.561 29.9536 87.4518 29.7731 87.2982C29.5926 87.1445 29.4405 86.9448 29.3167 86.699C29.1929 86.4532 29.118 86.2024 29.0922 85.9464C29.0664 85.6904 29.0844 85.4411 29.1463 85.1984C29.2066 84.9526 29.3086 84.7276 29.4524 84.5232C29.5973 84.3138 29.7803 84.1361 30.0012 83.9898C30.2249 83.8418 30.4528 83.7498 30.6851 83.7137C30.9185 83.6727 31.1443 83.6934 31.3626 83.7758L31.2433 84.2518C31.0662 84.1926 30.8927 84.1771 30.7229 84.2055C30.5515 84.2307 30.3871 84.2954 30.2296 84.3995C30.0667 84.5074 29.9307 84.6394 29.8216 84.7956C29.7153 84.95 29.6396 85.1178 29.5945 85.2988C29.5495 85.4799 29.5376 85.6684 29.559 85.8643C29.5815 86.0553 29.6388 86.2421 29.7309 86.4249C29.823 86.6076 29.9363 86.7595 30.0709 86.8805C30.2066 86.9965 30.3542 87.0775 30.5135 87.1233C30.6728 87.1691 30.8374 87.1778 31.0072 87.1495C31.1798 87.1193 31.3475 87.0503 31.5105 86.9424C31.6679 86.8383 31.7997 86.709 31.9061 86.5546C32.0108 86.397 32.0843 86.214 32.1265 86.0054L32.5458 86.1249C32.4989 86.3828 32.4024 86.6189 32.2563 86.8333C32.113 87.0458 31.9281 87.227 31.7016 87.3768Z" fill="white"/>
<path d="M33.3215 86.2544L32.0598 83.7493L32.4409 83.4971L32.7837 84.1777L32.6607 84.0322C32.6342 83.8187 32.6697 83.6187 32.7673 83.4323C32.8648 83.2459 33.0186 83.0832 33.2284 82.9443L33.4498 83.3839C33.4317 83.3917 33.4143 83.4011 33.3977 83.4121C33.3839 83.4212 33.3701 83.4304 33.3563 83.4395C33.1437 83.5802 33.0117 83.7642 32.9605 83.9914C32.9092 84.2186 32.9526 84.4692 33.0907 84.7434L33.7192 85.9912L33.3215 86.2544Z" fill="white"/>
<path d="M35.9639 84.5435C35.7291 84.6988 35.4942 84.7807 35.2592 84.7893C35.0269 84.7959 34.8126 84.7361 34.6164 84.6096C34.4229 84.4814 34.2635 84.2928 34.1381 84.0439C34.0128 83.7949 33.9486 83.5433 33.9457 83.2889C33.9455 83.0328 34.0013 82.7963 34.113 82.5795C34.226 82.3577 34.3873 82.1774 34.5972 82.0385C34.8099 81.8978 35.0246 81.8271 35.2415 81.8264C35.4584 81.8257 35.6616 81.8928 35.8512 82.0279C36.0419 82.158 36.2023 82.3522 36.3324 82.6106C36.342 82.6295 36.3517 82.6525 36.3616 82.6795C36.3743 82.7047 36.3849 82.7293 36.3932 82.7531L34.525 83.9895L34.3607 83.6634L36.0218 82.5641L35.9174 82.7844C35.8392 82.6219 35.738 82.4977 35.6138 82.4119C35.4895 82.326 35.3561 82.2841 35.2135 82.2861C35.072 82.283 34.9309 82.3281 34.7901 82.4213C34.652 82.5127 34.5473 82.6303 34.4761 82.774C34.4034 82.9146 34.3691 83.0696 34.3734 83.239C34.3762 83.4053 34.4188 83.5703 34.5013 83.7342L34.5394 83.8098C34.6235 83.9768 34.7321 84.1046 34.865 84.193C34.9991 84.2765 35.1452 84.3143 35.3032 84.3064C35.4612 84.2984 35.6189 84.2424 35.7763 84.1382C35.9061 84.0523 36.0108 83.9494 36.0903 83.8296C36.1726 83.7079 36.2284 83.5701 36.2577 83.4163L36.6249 83.564C36.5921 83.7622 36.5187 83.9452 36.4044 84.1133C36.293 84.2794 36.1461 84.4229 35.9639 84.5435Z" fill="white"/>
<path d="M38.4298 82.9115C38.2172 83.0522 37.9997 83.1248 37.7772 83.1291C37.5576 83.1316 37.351 83.0688 37.1576 82.9405C36.9641 82.8123 36.8031 82.6205 36.6745 82.3653C36.546 82.1101 36.4824 81.8559 36.4838 81.6029C36.4837 81.3467 36.5395 81.1102 36.6512 80.8935C36.7657 80.6748 36.9292 80.4952 37.1419 80.3544C37.3269 80.232 37.5178 80.1687 37.7145 80.1645C37.9113 80.1604 38.1014 80.2236 38.285 80.3542C38.4714 80.4829 38.636 80.6891 38.7788 80.9727C38.9217 81.2563 38.9965 81.5218 39.0034 81.7694C39.013 82.0151 38.9679 82.2361 38.8679 82.4325C38.7664 82.6257 38.6204 82.7854 38.4298 82.9115ZM38.263 82.4925C38.4011 82.4012 38.5071 82.2827 38.5811 82.1371C38.6578 81.9897 38.6946 81.8288 38.6914 81.6544C38.6895 81.4751 38.644 81.2972 38.5552 81.1207C38.4647 80.9411 38.3538 80.8086 38.2224 80.7233C38.0923 80.633 37.9523 80.5891 37.8026 80.5915C37.6556 80.5921 37.5131 80.6382 37.375 80.7295C37.2342 80.8227 37.1268 80.9421 37.0528 81.0877C36.9789 81.2333 36.9421 81.3942 36.9424 81.5704C36.9412 81.7434 36.9859 81.9198 37.0763 82.0994C37.1652 82.2758 37.2769 82.4099 37.4114 82.5015C37.5444 82.59 37.6843 82.6339 37.8313 82.6333C37.9783 82.6327 38.1222 82.5858 38.263 82.4925ZM39.1985 82.365L38.858 81.6891L38.5901 81.0913L38.2558 80.5374L37.4154 78.8689L37.8131 78.6057L39.5796 82.1128L39.1985 82.365Z" fill="white"/>
<path d="M40.332 81.6149L39.0702 79.1098L39.4679 78.8466L40.7296 81.3517L40.332 81.6149ZM39.0262 78.4961C38.9489 78.5473 38.8697 78.5618 38.7887 78.5399C38.7104 78.516 38.6506 78.4632 38.6094 78.3812C38.5665 78.2962 38.5557 78.2088 38.5768 78.1192C38.6007 78.0277 38.6513 77.9564 38.7286 77.9053C38.806 77.8541 38.8838 77.8404 38.962 77.8642C39.0415 77.8831 39.1019 77.9335 39.1431 78.0154C39.186 78.1005 39.1976 78.1894 39.1781 78.2822C39.1569 78.3718 39.1063 78.4431 39.0262 78.4961Z" fill="white"/>
<path d="M42.2571 80.3786C42.0362 80.5248 41.8309 80.5704 41.6411 80.5153C41.4513 80.4602 41.293 80.3067 41.166 80.0546L40.009 77.7575L40.4067 77.4943L41.5542 79.7725C41.6224 79.908 41.7038 79.9928 41.7983 80.0269C41.8955 80.0591 41.9994 80.0387 42.1099 79.9656C42.2341 79.8834 42.3178 79.7755 42.361 79.6419L42.6495 79.8858C42.6189 79.9858 42.568 80.0784 42.4967 80.1634C42.4281 80.2466 42.3483 80.3183 42.2571 80.3786ZM40.1004 78.9259L39.9123 78.5525L41.3125 77.6259L41.5005 77.9993L40.1004 78.9259Z" fill="white"/>
<path d="M45.6902 78.1193C45.4692 78.2655 45.2443 78.3597 45.0152 78.4021C44.7873 78.4395 44.5663 78.4282 44.352 78.3683C44.1389 78.3035 43.9421 78.1943 43.7616 78.0406C43.5812 77.887 43.429 77.6872 43.3052 77.4415C43.1814 77.1957 43.1066 76.9448 43.0808 76.6888C43.0549 76.4328 43.0729 76.1835 43.1348 75.9409C43.1952 75.6951 43.2972 75.47 43.4409 75.2656C43.5859 75.0563 43.7688 74.8785 43.9897 74.7323C44.2134 74.5843 44.4414 74.4922 44.6736 74.4562C44.907 74.4151 45.1328 74.4359 45.3511 74.5183L45.2318 74.9943C45.0547 74.935 44.8812 74.9196 44.7114 74.9479C44.54 74.9731 44.3756 75.0378 44.2182 75.142C44.0553 75.2498 43.9192 75.3818 43.8101 75.5381C43.7038 75.6925 43.6281 75.8602 43.5831 76.0413C43.538 76.2223 43.5262 76.4108 43.5476 76.6068C43.5701 76.7977 43.6274 76.9846 43.7194 77.1673C43.8115 77.3501 43.9248 77.502 44.0594 77.623C44.1952 77.739 44.3427 77.8199 44.502 77.8657C44.6613 77.9115 44.8259 77.9203 44.9957 77.8919C45.1683 77.8617 45.3361 77.7927 45.499 77.6849C45.6564 77.5807 45.7883 77.4514 45.8946 77.297C45.9994 77.1395 46.0728 76.9564 46.1151 76.7478L46.5343 76.8674C46.4875 77.1253 46.391 77.3614 46.2449 77.5757C46.1015 77.7882 45.9166 77.9694 45.6902 78.1193Z" fill="white"/>
<path d="M48.6446 76.1136L48.378 75.5843L48.3073 75.4987L47.8525 74.5959C47.7557 74.4037 47.6314 74.2885 47.4796 74.2503C47.329 74.2071 47.1557 74.2504 46.9596 74.3802C46.8298 74.4661 46.7155 74.5754 46.6166 74.708C46.5161 74.8375 46.4437 74.9716 46.3994 75.1102L46.0623 74.8795C46.1231 74.7006 46.2188 74.5323 46.3492 74.3745C46.4808 74.2118 46.6336 74.0729 46.8076 73.9577C47.1086 73.7585 47.3826 73.6885 47.6297 73.7477C47.8767 73.8069 48.0867 74.0082 48.2597 74.3517L49.0215 75.8642L48.6446 76.1136ZM47.9381 76.619C47.7752 76.7268 47.6157 76.7903 47.4597 76.8096C47.3064 76.827 47.1689 76.8024 47.0471 76.736C46.9237 76.6664 46.8262 76.5608 46.7548 76.419C46.6866 76.2835 46.6523 76.1423 46.652 75.9955C46.6544 75.8468 46.7025 75.6973 46.7962 75.5471C46.8927 75.395 47.05 75.2468 47.2681 75.1024L47.964 74.6419L48.1283 74.968L47.449 75.4176C47.2501 75.5492 47.1352 75.6756 47.1043 75.7969C47.0733 75.9183 47.0849 76.0325 47.1388 76.1396C47.2007 76.2625 47.2935 76.3334 47.4172 76.3524C47.5393 76.3682 47.6763 76.3259 47.8282 76.2254C47.9773 76.1267 48.0881 76.003 48.1605 75.8542C48.2356 75.7037 48.2615 75.5395 48.2382 75.3616L48.474 75.6215C48.4962 75.8043 48.4632 75.9837 48.375 76.1597C48.2853 76.3325 48.1397 76.4856 47.9381 76.619Z" fill="white"/>
<path d="M49.7575 75.3771L48.4957 72.872L48.8768 72.6198L49.2196 73.3005L49.0966 73.155C49.0701 72.9415 49.1056 72.7415 49.2032 72.5551C49.3008 72.3687 49.4545 72.206 49.6644 72.0671L49.8858 72.5067C49.8676 72.5145 49.8503 72.5239 49.8337 72.5349C49.8199 72.544 49.8061 72.5531 49.7923 72.5623C49.5796 72.703 49.4477 72.887 49.3964 73.1142C49.3451 73.3413 49.3885 73.592 49.5266 73.8661L50.1551 75.114L49.7575 75.3771Z" fill="white"/>
<path d="M52.3294 73.7129C52.1168 73.8536 51.8992 73.9261 51.6768 73.9305C51.4571 73.933 51.2506 73.8701 51.0571 73.7419C50.8636 73.6136 50.7026 73.4219 50.5741 73.1666C50.4455 72.9114 50.382 72.6573 50.3834 72.4043C50.3832 72.1481 50.439 71.9116 50.5507 71.6948C50.6652 71.4762 50.8288 71.2965 51.0414 71.1558C51.2265 71.0333 51.4174 70.97 51.6141 70.9659C51.8108 70.9617 52.001 71.0249 52.1846 71.1555C52.371 71.2843 52.5356 71.4904 52.6784 71.774C52.8212 72.0576 52.8961 72.3232 52.9029 72.5707C52.9126 72.8164 52.8674 73.0375 52.7675 73.2339C52.666 73.4271 52.5199 73.5868 52.3294 73.7129ZM52.1626 73.2939C52.3006 73.2025 52.4067 73.084 52.4806 72.9385C52.5573 72.7911 52.5941 72.6302 52.591 72.4558C52.589 72.2764 52.5436 72.0985 52.4547 71.9221C52.3642 71.7424 52.2533 71.61 52.122 71.5246C51.9918 71.4343 51.8519 71.3904 51.7021 71.3929C51.5552 71.3935 51.4126 71.4395 51.2746 71.5309C51.1337 71.6241 51.0263 71.7435 50.9524 71.8891C50.8784 72.0346 50.8416 72.1955 50.842 72.3717C50.8408 72.5448 50.8854 72.7211 50.9759 72.9007C51.0648 73.0772 51.1765 73.2112 51.311 73.3029C51.4439 73.3914 51.5839 73.4353 51.7308 73.4346C51.8778 73.434 52.0217 73.3871 52.1626 73.2939ZM53.098 73.1664L52.7576 72.4905L52.4896 71.8927L52.1554 71.3387L51.315 69.6702L51.7126 69.407L53.4791 72.9142L53.098 73.1664Z" fill="white"/>
<path d="M51.1552 127.326C50.9508 127.462 50.7374 127.531 50.515 127.536C50.2938 127.535 50.0842 127.47 49.8864 127.341C49.687 127.208 49.5183 127.004 49.3802 126.73C49.2437 126.459 49.1759 126.193 49.177 125.932C49.1764 125.668 49.232 125.427 49.3437 125.21C49.4582 124.992 49.6176 124.815 49.822 124.68C50.0153 124.552 50.202 124.491 50.3822 124.498C50.5651 124.503 50.7403 124.58 50.9078 124.73C51.0752 124.88 51.2343 125.104 51.3851 125.403C51.539 125.709 51.6321 125.981 51.6642 126.221C51.6963 126.46 51.6699 126.671 51.585 126.853C51.5 127.035 51.3568 127.193 51.1552 127.326ZM50.9614 126.503C51.0497 126.445 51.1166 126.369 51.1618 126.276C51.2098 126.181 51.2315 126.074 51.2269 125.956C51.2207 125.834 51.185 125.708 51.12 125.579C51.0549 125.45 50.9794 125.355 50.8936 125.294C50.8061 125.23 50.7146 125.198 50.619 125.198C50.5261 125.197 50.4355 125.225 50.3472 125.284C50.256 125.344 50.1865 125.421 50.1385 125.516C50.0932 125.609 50.0729 125.715 50.0775 125.834C50.0805 125.95 50.1146 126.072 50.1797 126.201C50.2447 126.33 50.3218 126.428 50.4108 126.496C50.4983 126.56 50.5884 126.592 50.6813 126.594C50.7769 126.594 50.8702 126.563 50.9614 126.503ZM51.7924 126.848L51.571 126.408L51.149 125.56L50.6814 124.741L49.9886 123.366L50.7757 122.845L52.5421 126.352L51.7924 126.848Z" fill="white"/>
<path d="M53.0485 126.017L51.7582 123.455L52.5452 122.934L53.8356 125.496L53.0485 126.017ZM52.0089 122.911C51.8653 123.006 51.7263 123.037 51.5919 123.004C51.4575 122.971 51.3561 122.887 51.2879 122.751C51.2196 122.616 51.2067 122.473 51.249 122.323C51.2914 122.174 51.3844 122.051 51.528 121.956C51.6716 121.861 51.8098 121.828 51.9426 121.858C52.0738 121.885 52.1735 121.966 52.2418 122.101C52.3132 122.243 52.3285 122.391 52.2878 122.544C52.2482 122.692 52.1552 122.814 52.0089 122.911Z" fill="white"/>
<path d="M55.2156 125.862C55.0968 125.94 54.9656 125.998 54.8218 126.034C54.6825 126.072 54.558 126.081 54.4486 126.061L54.4053 125.251C54.4761 125.267 54.5482 125.268 54.6216 125.253C54.6994 125.239 54.7687 125.212 54.8295 125.172C54.9151 125.115 54.9716 125.049 54.9991 124.972C55.0266 124.895 55.0345 124.797 55.0228 124.679L54.9763 124.312L54.9933 124.181L54.6722 121.526L55.422 121.03L55.7954 124.337C55.8292 124.609 55.8259 124.84 55.7856 125.031C55.7497 125.223 55.6823 125.385 55.5834 125.518C55.4873 125.648 55.3647 125.763 55.2156 125.862ZM55.0936 124.808L52.7585 122.793L53.5662 122.258L55.338 123.846L55.0936 124.808Z" fill="white"/>
<path d="M58.2101 122.601L57.9696 122.123L57.8562 122.041L57.4134 121.162C57.342 121.02 57.2486 120.937 57.1332 120.912C57.0189 120.883 56.879 120.923 56.7133 121.033C56.6056 121.104 56.5068 121.197 56.417 121.311C56.3256 121.422 56.2586 121.537 56.2162 121.658L55.644 121.224C55.7234 121.045 55.8388 120.872 55.9902 120.705C56.1427 120.532 56.3073 120.388 56.4841 120.271C56.8486 120.029 57.1787 119.939 57.4743 120C57.7711 120.055 58.0219 120.286 58.2267 120.693L58.9432 122.116L58.2101 122.601ZM57.5687 123.082C57.3892 123.201 57.2199 123.267 57.0607 123.28C56.9015 123.292 56.7586 123.261 56.632 123.185C56.5082 123.107 56.409 122.995 56.3344 122.846C56.255 122.689 56.2213 122.531 56.2332 122.371C56.2463 122.207 56.3109 122.047 56.4271 121.89C56.5417 121.73 56.715 121.574 56.947 121.42L57.4772 121.069L57.7129 121.537L57.2904 121.817C57.1634 121.901 57.0855 121.984 57.0568 122.066C57.0309 122.146 57.0378 122.225 57.0775 122.304C57.1172 122.383 57.1752 122.429 57.2515 122.441C57.3277 122.454 57.4114 122.43 57.5026 122.369C57.5882 122.313 57.6536 122.238 57.6988 122.145C57.7452 122.047 57.7596 121.937 57.742 121.814L58.0163 122.074C58.0638 122.277 58.0498 122.465 57.9743 122.637C57.9 122.804 57.7648 122.952 57.5687 123.082Z" fill="white"/>
<path d="M62.2583 116.449C62.4323 116.334 62.6075 116.273 62.7841 116.265C62.9619 116.253 63.1315 116.304 63.2929 116.42C63.4571 116.534 63.6059 116.723 63.7392 116.988L64.4772 118.453L63.6902 118.974L63.0259 117.655C62.9339 117.473 62.8369 117.36 62.7348 117.319C62.6312 117.274 62.527 117.286 62.422 117.356C62.3475 117.405 62.2901 117.47 62.25 117.551C62.2099 117.632 62.1947 117.727 62.2044 117.834C62.2125 117.937 62.2499 118.056 62.3166 118.188L62.957 119.459L62.1699 119.98L61.5057 118.661C61.4136 118.479 61.3166 118.366 61.2146 118.325C61.1137 118.278 61.0095 118.29 60.9018 118.362C60.8245 118.413 60.7657 118.479 60.7256 118.56C60.6882 118.639 60.673 118.734 60.68 118.842C60.6881 118.946 60.7255 119.064 60.7922 119.197L61.4326 120.468L60.6455 120.989L59.3552 118.427L60.105 117.931L60.4644 118.645L60.213 118.54C60.2037 118.303 60.2479 118.091 60.3455 117.904C60.4415 117.715 60.5779 117.561 60.7546 117.444C60.9562 117.311 61.1631 117.254 61.3753 117.273C61.5887 117.287 61.7843 117.402 61.9621 117.616L61.6744 117.724C61.6497 117.463 61.6881 117.222 61.7895 116.999C61.8922 116.771 62.0484 116.588 62.2583 116.449Z" fill="white"/>
<path d="M66.2001 117.37C65.935 117.545 65.6745 117.642 65.4185 117.66C65.1637 117.673 64.9311 117.617 64.7207 117.492C64.5114 117.361 64.3425 117.169 64.2139 116.913C64.0853 116.658 64.0235 116.396 64.0285 116.129C64.0346 115.856 64.1038 115.602 64.236 115.367C64.3667 115.13 64.5494 114.933 64.7841 114.778C65.005 114.631 65.2328 114.55 65.4675 114.533C65.7005 114.514 65.9209 114.567 66.1286 114.695C66.3363 114.822 66.5115 115.027 66.6544 115.311C66.6702 115.342 66.6871 115.38 66.705 115.422C66.7229 115.465 66.7391 115.505 66.7538 115.541L64.9768 116.717L64.7387 116.245L66.0974 115.345L65.8658 115.675C65.8098 115.557 65.7397 115.469 65.6554 115.411C65.5739 115.352 65.4854 115.322 65.3898 115.322C65.2969 115.321 65.2035 115.351 65.1096 115.413C65.0158 115.475 64.9448 115.554 64.8968 115.648C64.8516 115.741 64.8319 115.845 64.8376 115.959C64.8418 116.069 64.8733 116.183 64.932 116.299L65.001 116.437C65.0645 116.563 65.1414 116.657 65.2316 116.719C65.3246 116.779 65.4266 116.806 65.5376 116.8C65.647 116.791 65.761 116.747 65.8798 116.668C65.9903 116.595 66.0754 116.515 66.1353 116.43C66.1963 116.339 66.2465 116.23 66.2857 116.103L66.9475 116.321C66.9081 116.527 66.8279 116.719 66.707 116.896C66.5845 117.069 66.4155 117.227 66.2001 117.37Z" fill="white"/>
<path d="M67.8105 112.775C67.9845 112.66 68.1625 112.596 68.3447 112.585C68.5252 112.571 68.6975 112.621 68.8617 112.735C69.0287 112.847 69.1788 113.035 69.3122 113.3L70.0502 114.765L69.2631 115.286L68.5989 113.967C68.5069 113.784 68.4071 113.674 68.2995 113.636C68.1932 113.593 68.082 113.61 67.966 113.687C67.8831 113.741 67.8183 113.814 67.7715 113.904C67.7231 113.99 67.7018 114.09 67.7075 114.204C67.7133 114.318 67.7519 114.446 67.8233 114.588L68.4471 115.826L67.66 116.347L65.8936 112.84L66.6806 112.319L67.5234 113.992L67.234 113.9C67.2259 113.657 67.2735 113.441 67.3766 113.251C67.4781 113.058 67.6227 112.899 67.8105 112.775Z" fill="white"/>
<path d="M70.5443 114.438L69.254 111.876L70.0037 111.38L70.3799 112.127L70.1609 111.988C70.1304 111.752 70.1659 111.537 70.2674 111.344C70.3673 111.148 70.5236 110.979 70.7362 110.839L71.1433 111.647C71.1043 111.664 71.0709 111.682 71.0433 111.7C71.0168 111.714 70.9884 111.73 70.9581 111.751C70.7979 111.857 70.6935 111.993 70.6449 112.159C70.5946 112.323 70.6259 112.517 70.7386 112.74L71.3314 113.917L70.5443 114.438Z" fill="white"/>
<path d="M73.6104 112.409L73.3699 111.932L73.2566 111.849L72.8138 110.97C72.7424 110.828 72.6489 110.745 72.5335 110.721C72.4193 110.691 72.2793 110.731 72.1136 110.841C72.0059 110.912 71.9071 111.005 71.8173 111.119C71.7259 111.23 71.659 111.345 71.6166 111.466L71.0444 111.032C71.1238 110.853 71.2392 110.68 71.3905 110.513C71.543 110.34 71.7077 110.196 71.8844 110.079C72.2489 109.838 72.579 109.747 72.8747 109.808C73.1715 109.863 73.4223 110.095 73.627 110.501L74.3436 111.924L73.6104 112.409ZM72.969 112.89C72.7895 113.009 72.6202 113.075 72.461 113.088C72.3018 113.101 72.1589 113.069 72.0323 112.993C71.9085 112.916 71.8093 112.803 71.7347 112.655C71.6554 112.497 71.6216 112.339 71.6335 112.18C71.6466 112.015 71.7113 111.855 71.8275 111.698C71.9421 111.538 72.1154 111.382 72.3474 111.228L72.8776 110.877L73.1133 111.345L72.6907 111.625C72.5637 111.709 72.4859 111.792 72.4572 111.874C72.4313 111.954 72.4382 112.034 72.4779 112.112C72.5175 112.191 72.5755 112.237 72.6518 112.249C72.7281 112.262 72.8118 112.238 72.9029 112.178C72.9885 112.121 73.0539 112.046 73.0992 111.953C73.1456 111.855 73.16 111.745 73.1423 111.622L73.4167 111.882C73.4641 112.086 73.4501 112.273 73.3746 112.445C73.3003 112.612 73.1651 112.76 72.969 112.89Z" fill="white"/>
<path d="M75.1932 111.418C75.0606 111.506 74.9234 111.529 74.7815 111.489C74.6396 111.448 74.5297 111.351 74.452 111.197C74.371 111.036 74.3523 110.878 74.3958 110.723C74.4377 110.565 74.525 110.442 74.6575 110.355C74.7901 110.267 74.9265 110.242 75.0669 110.279C75.2056 110.313 75.3155 110.411 75.3964 110.572C75.4742 110.726 75.4929 110.884 75.4526 111.045C75.4122 111.206 75.3258 111.33 75.1932 111.418Z" fill="white"/>
<path d="M47.9563 121.613C47.83 121.696 47.7015 121.75 47.5706 121.775C47.4403 121.796 47.314 121.789 47.1916 121.755C47.0698 121.718 46.9574 121.656 46.8542 121.568C46.7511 121.48 46.6642 121.366 46.5934 121.226C46.5227 121.085 46.4799 120.942 46.4652 120.796C46.4504 120.649 46.4607 120.507 46.4961 120.368C46.5305 120.228 46.5888 120.099 46.671 119.982C46.7538 119.863 46.8583 119.761 46.9846 119.678C47.1124 119.593 47.2427 119.54 47.3754 119.52C47.5087 119.496 47.6378 119.508 47.7625 119.555L47.6944 119.827C47.5931 119.793 47.494 119.785 47.397 119.801C47.299 119.815 47.2051 119.852 47.1151 119.912C47.022 119.973 46.9443 120.049 46.882 120.138C46.8212 120.226 46.7779 120.322 46.7522 120.426C46.7265 120.529 46.7197 120.637 46.7319 120.749C46.7448 120.858 46.7775 120.965 46.8301 121.069C46.8827 121.173 46.9475 121.26 47.0244 121.329C47.102 121.396 47.1863 121.442 47.2773 121.468C47.3684 121.494 47.4624 121.499 47.5594 121.483C47.6581 121.466 47.7539 121.426 47.847 121.365C47.937 121.305 48.0123 121.231 48.0731 121.143C48.1329 121.053 48.1749 120.948 48.1991 120.829L48.4386 120.898C48.4118 121.045 48.3567 121.18 48.2732 121.302C48.1913 121.424 48.0857 121.527 47.9563 121.613Z" fill="white"/>
<path d="M48.6249 121.142L48.4229 118.754L48.6573 118.599L50.3623 119.992L50.1137 120.156L48.5678 118.86L48.6624 118.798L48.8687 120.98L48.6249 121.142ZM48.7063 120.458L48.6614 120.199L49.594 119.582L49.7715 119.753L48.7063 120.458Z" fill="white"/>
<path d="M50.6094 119.828L49.6572 117.938L50.3034 117.51C50.4486 117.414 50.5856 117.358 50.7145 117.342C50.8433 117.327 50.9603 117.35 51.0654 117.413C51.1706 117.475 51.2576 117.575 51.3265 117.712C51.3954 117.848 51.4272 117.985 51.4219 118.12C51.4156 118.254 51.3743 118.381 51.2981 118.501C51.2218 118.621 51.1111 118.729 50.9659 118.825L50.4499 119.167L50.4938 118.972L50.8462 119.672L50.6094 119.828ZM51.7172 119.095L50.9504 118.688L51.2036 118.52L51.9752 118.924L51.7172 119.095ZM50.5074 118.999L50.3342 118.937L50.8432 118.6C50.9946 118.5 51.0905 118.388 51.1306 118.263C51.1714 118.135 51.1578 118.003 51.0898 117.868C51.0218 117.733 50.9297 117.655 50.8136 117.633C50.6991 117.611 50.5661 117.649 50.4146 117.75L49.9057 118.086L49.9442 117.881L50.5074 118.999Z" fill="white"/>
<path d="M52.3293 118.69L51.377 116.799L52.0753 116.337C52.252 116.22 52.4274 116.157 52.6014 116.148C52.7771 116.137 52.9378 116.178 53.0836 116.271C53.231 116.364 53.3518 116.503 53.4462 116.691C53.5405 116.878 53.5856 117.068 53.5815 117.26C53.579 117.451 53.5298 117.631 53.434 117.801C53.3398 117.969 53.2043 118.111 53.0275 118.228L52.3293 118.69ZM52.4476 118.298L52.895 118.002C53.0323 117.912 53.1357 117.804 53.2052 117.678C53.2762 117.552 53.3126 117.418 53.3143 117.275C53.3152 117.13 53.2802 116.988 53.2095 116.847C53.1378 116.705 53.0476 116.599 52.9389 116.529C52.8301 116.46 52.7103 116.428 52.5794 116.436C52.45 116.442 52.3167 116.491 52.1794 116.582L51.7321 116.878L52.4476 118.298Z" fill="white"/>
<path d="M55.1565 114.298L55.3932 114.142L56.3455 116.032L56.1088 116.189L55.1565 114.298ZM55.1573 116.819L54.9206 116.975L53.9683 115.085L54.205 114.928L55.1573 116.819ZM55.7057 115.332L54.7091 115.992L54.5908 115.757L55.5873 115.097L55.7057 115.332Z" fill="white"/>
<path d="M57.6003 115.231C57.4741 115.314 57.3443 115.368 57.2109 115.391C57.0791 115.413 56.952 115.408 56.8296 115.373C56.7062 115.337 56.593 115.275 56.4899 115.188C56.3867 115.1 56.3003 114.987 56.2304 114.848C56.1606 114.709 56.1183 114.567 56.1035 114.421C56.0888 114.274 56.0991 114.132 56.1344 113.993C56.1689 113.853 56.2275 113.723 56.3103 113.603C56.3932 113.483 56.4985 113.381 56.6263 113.297C56.7526 113.213 56.8808 113.161 57.011 113.139C57.1419 113.115 57.269 113.121 57.3923 113.157C57.5164 113.19 57.6291 113.251 57.7307 113.34C57.8338 113.428 57.9208 113.542 57.9915 113.682C58.0622 113.823 58.105 113.966 58.1198 114.113C58.1361 114.258 58.1263 114.401 58.0902 114.543C58.0549 114.681 57.9958 114.81 57.9129 114.93C57.8308 115.047 57.7266 115.147 57.6003 115.231ZM57.4793 114.99C57.5708 114.93 57.6462 114.856 57.7053 114.769C57.7661 114.68 57.8086 114.585 57.8327 114.483C57.8576 114.377 57.8635 114.27 57.8507 114.161C57.8394 114.051 57.8074 113.944 57.7548 113.839C57.7022 113.735 57.6371 113.649 57.5595 113.583C57.4835 113.516 57.4 113.469 57.309 113.443C57.2186 113.414 57.1249 113.407 57.0279 113.423C56.9324 113.439 56.8389 113.476 56.7474 113.537C56.6543 113.599 56.5773 113.674 56.5166 113.762C56.4574 113.849 56.4154 113.945 56.3906 114.051C56.3648 114.154 56.3576 114.261 56.3689 114.371C56.3818 114.48 56.4145 114.587 56.4671 114.691C56.5197 114.796 56.584 114.882 56.66 114.949C56.7376 115.015 56.8224 115.062 56.9143 115.09C57.0053 115.117 57.0986 115.122 57.1941 115.107C57.2911 115.091 57.3862 115.052 57.4793 114.99Z" fill="white"/>
<path d="M58.8294 114.388L57.8772 112.498L58.1139 112.341L58.9478 113.997L59.8449 113.403L59.9633 113.638L58.8294 114.388Z" fill="white"/>
<path d="M60.2349 113.458L59.2826 111.568L59.9809 111.105C60.1576 110.988 60.333 110.925 60.5071 110.916C60.6827 110.905 60.8434 110.946 60.9892 111.04C61.1366 111.132 61.2575 111.271 61.3518 111.459C61.4461 111.646 61.4912 111.836 61.4871 112.028C61.4846 112.219 61.4354 112.4 61.3396 112.569C61.2454 112.737 61.1099 112.879 60.9332 112.996L60.2349 113.458ZM60.3532 113.067L60.8006 112.77C60.9379 112.68 61.0413 112.572 61.1108 112.446C61.1818 112.32 61.2182 112.186 61.22 112.043C61.2208 111.898 61.1858 111.756 61.1151 111.615C61.0434 111.473 60.9532 111.367 60.8445 111.297C60.7357 111.228 60.6159 111.197 60.485 111.204C60.3557 111.21 60.2223 111.259 60.085 111.35L59.6377 111.646L60.3532 113.067Z" fill="white"/>
<path d="M61.8645 110.946L62.7166 110.383L62.8322 110.612L61.9801 111.176L61.8645 110.946ZM62.3088 111.772L63.2746 111.133L63.393 111.368L62.1905 112.164L61.2382 110.273L62.4075 109.5L62.5259 109.734L61.5933 110.352L62.3088 111.772Z" fill="white"/>
<path d="M63.7762 111.115L62.824 109.224L63.4702 108.796C63.6153 108.7 63.7524 108.644 63.8812 108.629C64.0101 108.613 64.1271 108.636 64.2322 108.699C64.3373 108.761 64.4244 108.861 64.4933 108.998C64.5622 109.135 64.594 109.271 64.5886 109.407C64.5824 109.54 64.5411 109.667 64.4649 109.787C64.3886 109.907 64.2779 110.016 64.1327 110.112L63.6167 110.453L63.6606 110.258L64.0129 110.958L63.7762 111.115ZM64.884 110.381L64.1171 109.974L64.3704 109.807L65.142 110.211L64.884 110.381ZM63.6742 110.285L63.501 110.224L64.0099 109.887C64.1614 109.786 64.2572 109.674 64.2974 109.549C64.3382 109.421 64.3246 109.29 64.2566 109.155C64.1886 109.019 64.0965 108.941 63.9804 108.92C63.8659 108.897 63.7329 108.936 63.5814 109.036L63.0725 109.373L63.111 109.167L63.6742 110.285Z" fill="white"/>
<path d="M36.9798 102.44C36.6041 101.694 36.8294 100.738 37.4831 100.306L48.1349 93.2565C48.7885 92.824 49.6229 93.0779 49.9986 93.8237L53.6263 101.026C54.002 101.772 53.7766 102.727 53.123 103.16L42.4712 110.209C41.8175 110.642 40.9831 110.388 40.6075 109.642L36.9798 102.44Z" fill="white"/>
<path d="M100.207 68.8745C99.9554 69.0408 99.7144 69.1435 99.4838 69.1827C99.2531 69.2219 99.0451 69.2 98.8596 69.1168C98.6753 69.0287 98.53 68.8791 98.4237 68.668C98.3189 68.46 98.2825 68.2488 98.3144 68.0344C98.3475 67.8151 98.6548 67.5949 98.8045 67.395C98.9553 67.1902 98.9392 67.016 99.1877 66.8515C99.4363 66.687 99.6743 66.582 99.9018 66.5365C100.13 66.486 100.334 66.5001 100.514 66.5788C100.695 66.6524 100.837 66.7933 100.942 67.0012C101.049 67.2123 101.089 67.4314 101.063 67.6584C101.036 67.8823 100.949 68.0998 100.801 68.311C100.656 68.5203 100.458 68.7081 100.207 68.8745ZM99.8758 68.2175C100.008 68.1297 100.095 68.0241 100.136 67.9004C100.179 67.7749 100.169 67.6476 100.104 67.5184C100.04 67.3924 99.9501 67.3196 99.8335 67.3001C99.7181 67.2757 99.5941 67.3073 99.4615 67.395C99.329 67.4828 99.2417 67.5909 99.1997 67.7196C99.1589 67.8432 99.1702 67.9681 99.2337 68.0941C99.2988 68.2233 99.3882 68.2985 99.502 68.3198C99.6186 68.3393 99.7432 68.3052 99.8758 68.2175ZM99.421 67.3147C99.1946 67.4646 98.9761 67.5608 98.7657 67.6035C98.5579 67.6443 98.3702 67.6299 98.2026 67.5602C98.0333 67.4873 97.9003 67.3548 97.8035 67.1626C97.7035 66.9641 97.6661 66.7619 97.6913 66.5562C97.7193 66.3486 97.8005 66.1478 97.9348 65.9539C98.0675 65.7568 98.2471 65.5834 98.4735 65.4335C98.7027 65.2818 98.9236 65.1903 99.1361 65.1589C99.3497 65.1225 99.5406 65.1433 99.7087 65.2211C99.8795 65.2971 100.015 65.4344 100.115 65.6329C100.212 65.8251 100.245 66.0234 100.216 66.2279C100.187 66.4273 100.104 66.6209 99.9669 66.8085C99.8295 66.9961 99.6475 67.1648 99.421 67.3147ZM99.1544 66.7853C99.2593 66.7159 99.3285 66.6302 99.3619 66.5283C99.3936 66.4232 99.3825 66.3171 99.3286 66.21C99.2714 66.0966 99.1947 66.0318 99.0982 66.0158C99.0046 65.998 98.9066 66.0229 98.8045 66.0905C98.7023 66.1581 98.6345 66.2429 98.6011 66.3448C98.5678 66.4467 98.5797 66.5544 98.6368 66.6678C98.6908 66.7749 98.7654 66.839 98.8606 66.86C98.9543 66.8778 99.0522 66.8529 99.1544 66.7853Z" fill="white"/>
<path d="M105.613 65.2963C105.343 65.4754 105.076 65.5702 104.812 65.5807C104.552 65.5894 104.303 65.5099 104.068 65.3422C103.835 65.1727 103.629 64.9099 103.45 64.5538C103.256 64.1694 103.157 63.8003 103.152 63.4466C103.148 63.0878 103.225 62.7617 103.383 62.4682C103.543 62.1729 103.775 61.9248 104.079 61.7237C104.242 61.6159 104.409 61.5347 104.581 61.4801C104.753 61.4206 104.911 61.3939 105.054 61.4001L105.094 62.2686C104.978 62.2573 104.868 62.2707 104.766 62.309C104.665 62.3422 104.568 62.39 104.474 62.4521C104.25 62.6001 104.109 62.7961 104.052 63.0401C103.997 63.2822 104.044 63.5514 104.193 63.8476C104.22 63.9011 104.249 63.9578 104.279 64.0177C104.31 64.0726 104.345 64.1272 104.384 64.1816L104.279 64.0177C104.276 63.8646 104.093 63.8302 104.13 63.7003C104.171 63.5685 104.234 63.4465 104.321 63.3343C104.411 63.2202 104.524 63.1184 104.659 63.0288C104.841 62.9082 105.029 62.8427 105.223 62.8322C105.418 62.8168 105.6 62.8577 105.771 62.9549C105.94 63.049 106.077 63.2016 106.184 63.4127C106.3 63.6428 106.349 63.8767 106.333 64.1144C106.315 64.3491 106.244 64.5703 106.12 64.7781C105.995 64.9828 105.826 65.1555 105.613 65.2963ZM105.228 64.6627C105.305 64.6115 105.364 64.5494 105.405 64.4764C105.448 64.4015 105.471 64.3216 105.472 64.2367C105.473 64.1517 105.453 64.0667 105.41 63.9816C105.346 63.8556 105.258 63.7794 105.146 63.7531C105.036 63.725 104.921 63.7503 104.803 63.8288C104.722 63.8818 104.661 63.9458 104.618 64.0206C104.577 64.0937 104.555 64.1736 104.55 64.2604C104.549 64.3453 104.57 64.4303 104.613 64.5154C104.654 64.5973 104.707 64.6589 104.772 64.6999C104.835 64.7379 104.907 64.7557 104.987 64.7533C105.065 64.7477 105.145 64.7175 105.228 64.6627Z" fill="white"/>
<path d="M107.976 63.7325C107.778 63.8641 107.563 63.9683 107.333 64.0449C107.103 64.1216 106.888 64.1564 106.689 64.1493L106.629 63.2504C106.792 63.2601 106.955 63.2428 107.116 63.1987C107.281 63.1528 107.433 63.0841 107.571 62.9927C107.709 62.9013 107.805 62.7974 107.861 62.6809C107.915 62.5612 107.914 62.4462 107.858 62.3359C107.825 62.2698 107.779 62.2224 107.721 62.1939C107.66 62.1623 107.584 62.1604 107.491 62.1882C107.397 62.2128 107.275 62.2745 107.126 62.3732L106.339 62.894L105.51 60.8649L107.358 59.6423L107.722 60.3654L106.164 61.3962L106.46 61.2004L106.813 61.6098L106.312 61.9413L106.954 61.5164C107.241 61.3264 107.496 61.221 107.717 61.2004C107.937 61.1767 108.127 61.2171 108.286 61.3216C108.444 61.423 108.572 61.5714 108.671 61.7668C108.769 61.9621 108.816 62.1766 108.813 62.4102C108.81 62.6389 108.743 62.868 108.612 63.0976C108.481 63.3272 108.269 63.5388 107.976 63.7325Z" fill="white"/>
<path d="M101.184 63.7862C101.457 63.6053 101.724 63.5104 101.985 63.5018C102.248 63.4912 102.496 63.5707 102.729 63.7403C102.963 63.9048 103.17 64.1667 103.351 64.5259C103.545 64.9103 103.644 65.2819 103.648 65.6406C103.653 65.9944 103.575 66.3189 103.414 66.6142C103.257 66.9077 103.024 67.1559 102.718 67.3587C102.558 67.4647 102.392 67.545 102.221 67.5996C102.051 67.6573 101.893 67.684 101.747 67.6797L101.707 66.8111C101.824 66.8224 101.932 66.8115 102.033 66.7782C102.136 66.74 102.234 66.6898 102.328 66.6276C102.551 66.4796 102.69 66.2845 102.745 66.0424C102.8 65.8003 102.753 65.5311 102.604 65.2349C102.577 65.1813 102.549 65.1262 102.52 65.0695C102.49 65.0096 102.456 64.9525 102.417 64.8981L102.535 65.0981C102.544 65.2476 102.711 65.2477 102.671 65.3794C102.631 65.5112 102.567 65.6332 102.48 65.7455C102.393 65.8577 102.28 65.9595 102.142 66.0509C101.96 66.1715 101.771 66.2395 101.577 66.255C101.383 66.2654 101.202 66.2236 101.033 66.1295C100.862 66.0323 100.724 65.8781 100.618 65.667C100.502 65.437 100.453 65.2046 100.471 64.97C100.487 64.7322 100.558 64.511 100.683 64.3063C100.807 64.0985 100.974 63.9251 101.184 63.7862ZM101.573 64.417C101.496 64.4682 101.437 64.5303 101.396 64.6033C101.356 64.6764 101.333 64.7563 101.329 64.8431C101.326 64.9249 101.347 65.0099 101.391 65.0981C101.455 65.2241 101.542 65.3012 101.652 65.3293C101.764 65.3556 101.88 65.3295 101.999 65.2509C102.079 65.1979 102.14 65.1339 102.184 65.0591C102.227 64.9842 102.249 64.9043 102.251 64.8193C102.252 64.7344 102.231 64.6494 102.189 64.5643C102.147 64.4824 102.095 64.4224 102.032 64.3845C101.967 64.3434 101.895 64.3256 101.817 64.3312C101.737 64.3336 101.656 64.3622 101.573 64.417Z" fill="white"/>
</g>
<defs>
<filter id="filter0_d_17_1266" x="18.9486" y="28.2892" width="110.321" height="110.422" filterUnits="userSpaceOnUse" color-interpolation-filters="sRGB">
<feFlood flood-opacity="0" result="BackgroundImageFix"/>
<feColorMatrix in="SourceAlpha" type="matrix" values="0 0 0 0 0 0 0 0 0 0 0 0 0 0 0 0 0 0 127 0" result="hardAlpha"/>
<feOffset dx="1" dy="1"/>
<feComposite in2="hardAlpha" operator="out"/>
<feColorMatrix type="matrix" values="0 0 0 0 0 0 0 0 0 0 0 0 0 0 0 0 0 0 1 0"/>
<feBlend mode="normal" in2="BackgroundImageFix" result="effect1_dropShadow_17_1266"/>
<feBlend mode="normal" in="SourceGraphic" in2="effect1_dropShadow_17_1266" result="shape"/>
</filter>
<filter id="filter1_d_17_1266" x="18.9486" y="28.2892" width="110.321" height="110.422" filterUnits="userSpaceOnUse" color-interpolation-filters="sRGB">
<feFlood flood-opacity="0" result="BackgroundImageFix"/>
<feColorMatrix in="SourceAlpha" type="matrix" values="0 0 0 0 0 0 0 0 0 0 0 0 0 0 0 0 0 0 127 0" result="hardAlpha"/>
<feOffset dx="1" dy="1"/>
<feComposite in2="hardAlpha" operator="out"/>
<feColorMatrix type="matrix" values="0 0 0 0 0 0 0 0 0 0 0 0 0 0 0 0 0 0 1 0"/>
<feBlend mode="normal" in2="BackgroundImageFix" result="effect1_dropShadow_17_1266"/>
<feBlend mode="normal" in="SourceGraphic" in2="effect1_dropShadow_17_1266" result="shape"/>
</filter>
</defs>
</svg>
