<svg width="146" height="155" viewBox="0 0 146 155" fill="none" xmlns="http://www.w3.org/2000/svg">
<g clip-path="url(#clip0_20_771)">
<rect x="1" y="1" width="144" height="153" rx="15" fill="#FFBD12" stroke="#18191F" stroke-width="2"/>
<path d="M112.257 113.617C112.257 115.053 102.524 116.218 90.5186 116.218C78.5124 116.218 68.7804 115.053 68.7804 113.617C68.7804 112.18 78.5135 111.016 90.5186 111.016C102.524 111.017 112.257 112.181 112.257 113.617Z" fill="url(#paint0_radial_20_771)"/>
<path d="M97.7994 94H90.9969V113.545H97.7994V94Z" fill="#8C6239"/>
<path d="M99.5932 94H96.1001V113.545H99.5932V94Z" fill="#754C24"/>
<path d="M96.8067 13.4438V100.264H49.9157L64.6218 79.5897H58.1577L70.5011 62.2278H62.1224L96.8067 13.4438Z" fill="#39B54A"/>
<path d="M143.758 100.82H96.8679V14L131.551 62.7839H123.18L135.524 80.1459H129.052L143.758 100.82Z" fill="#009245"/>
<path d="M47.4976 126.72L44.0291 125.825L20.0632 91.9377H22.8916L47.4976 126.72Z" fill="#825012"/>
<path d="M45.0001 75H42.0737V161.967H45.0001V75Z" fill="#825012"/>
<path d="M50.9563 75H44.0303V161.967H50.9563V75Z" fill="#825012"/>
<path d="M65.344 82.1077C76.1203 67.7284 76.1203 44.4151 65.344 30.0359C54.5676 15.6567 37.0958 15.6567 26.3195 30.0359C15.5432 44.4151 15.5432 67.7284 26.3195 82.1077C37.0958 96.4869 54.5676 96.4869 65.344 82.1077Z" fill="#39B54A"/>
<path d="M65.2667 30C72.5495 40.2823 73.2617 54.7689 65.9558 66.7098C58.3244 79.1835 44.245 85.1212 31.3108 82.4978C35.4288 84.4739 40.0412 85.5818 44.9136 85.5818C62.313 85.5818 76.4169 71.4673 76.4169 54.0548C76.4169 44.4116 72.0851 35.7837 65.2667 30Z" fill="#009245"/>
<path d="M48.262 127.108L46.79 126.72L22.184 91.9377H23.3837L48.262 127.108Z" fill="#80682B"/>
<path d="M67.8998 105.733C82.6739 105.733 94.6506 93.7476 94.6506 78.9625C94.6506 64.1774 82.6739 52.1917 67.8998 52.1917C53.1258 52.1917 41.1491 64.1774 41.1491 78.9625C41.1491 93.7476 53.1258 105.733 67.8998 105.733Z" fill="#39B54A"/>
<path d="M85.5836 59C91.7674 67.7315 92.372 80.0321 86.1691 90.1727C79.6884 100.764 67.7334 105.808 56.7507 103.58C60.2477 105.258 64.1642 106.198 68.3013 106.198C83.0752 106.198 95.052 94.212 95.052 79.427C95.052 71.2366 91.3738 63.9102 85.5836 59Z" fill="#009245"/>
<path d="M57.7497 83.1724V87.0659L42.2337 108.075L41.9967 104.503L57.7497 83.1724Z" fill="#825012"/>
<path d="M57.691 87.0657V88.7119L42.2688 109.594L42.1749 108.075L57.691 87.0657Z" fill="#80682B"/>
<path d="M26.7507 121.248C41.5248 121.248 53.5015 109.262 53.5015 94.4768C53.5015 79.6917 41.5248 67.7059 26.7507 67.7059C11.9767 67.7059 0 79.6917 0 94.4768C0 109.262 11.9767 121.248 26.7507 121.248Z" fill="#39B54A"/>
<path d="M44.4881 73.9999C50.672 82.7313 51.2766 95.032 45.0737 105.173C38.593 115.764 26.638 120.808 15.6552 118.58C19.1523 120.257 23.0688 121.198 27.2058 121.198C41.9797 121.198 53.9566 109.212 53.9566 94.4269C53.9566 86.2365 50.277 78.91 44.4881 73.9999Z" fill="#009245"/>
<path d="M107.91 148.277C118.172 148.277 126.49 147.234 126.49 145.949C126.49 144.663 118.172 143.621 107.91 143.621C97.6482 143.621 89.3295 144.663 89.3295 145.949C89.3295 147.234 97.6482 148.277 107.91 148.277Z" fill="url(#paint1_radial_20_771)"/>
<path d="M147 92.7161C147 86.1247 143.771 80.438 139.105 77.7928C137.837 70.2458 132.27 64.5611 125.592 64.5611C124.603 64.5611 123.639 64.6878 122.709 64.9248C120.107 59.5883 115.276 56 109.741 56C103.301 56 97.8092 60.8577 95.6796 67.6784C94.3074 67.1296 92.8395 66.8283 91.3131 66.8283C85.3198 66.8283 80.2218 71.4096 78.323 77.8053C73.6692 80.4553 70.4528 86.1352 70.4528 92.7151C70.4528 101.007 75.5614 107.869 82.2154 109.04C84.4005 114.701 89.1816 118.631 94.7326 118.631C97.4712 118.631 100.02 117.671 102.166 116.023C104.341 117.739 106.943 118.742 109.743 118.742C112.693 118.742 115.425 117.628 117.668 115.738C119.91 117.628 122.642 118.742 125.593 118.742C131.529 118.742 136.589 114.248 138.53 107.946C143.504 105.456 147 99.5751 147 92.7161Z" fill="#65CC2D"/>
<path d="M76.5169 105.911C76.2746 105.869 76.0352 105.816 75.7978 105.759C76.1262 106.064 76.4652 106.351 76.8166 106.619C76.7141 106.385 76.6098 106.152 76.5169 105.911Z" fill="#009245"/>
<path d="M117.012 61.795C117.942 61.558 118.905 61.4314 119.894 61.4314C120.096 61.4314 120.296 61.4371 120.495 61.4477C118.493 58.9819 115.907 57.205 113.002 56.4336C114.619 57.8785 115.989 59.6995 117.012 61.795Z" fill="#009245"/>
<path d="M139.105 77.7928C138.015 71.3089 133.751 66.2027 128.337 64.8921C130.9 67.2734 132.743 70.7121 133.407 74.6621C138.073 77.3064 141.302 82.994 141.302 89.5854C141.302 96.4444 137.806 102.325 132.831 104.817C130.891 111.118 125.831 115.612 119.894 115.612C116.942 115.612 114.212 114.498 111.969 112.608C109.726 114.498 106.994 115.612 104.044 115.612C101.244 115.612 98.6417 114.611 96.4671 112.893C94.3222 114.541 91.7722 115.501 89.0336 115.501C88.0933 115.501 87.1778 115.379 86.2902 115.164C88.6228 117.333 91.5491 118.631 94.732 118.631C97.4706 118.631 100.02 117.671 102.165 116.023C104.34 117.739 106.943 118.742 109.743 118.742C112.693 118.742 115.425 117.628 117.667 115.738C119.91 117.628 122.642 118.742 125.592 118.742C131.529 118.742 136.589 114.248 138.53 107.946C143.504 105.456 147 99.5751 147 92.7151C147 86.1246 143.771 80.438 139.105 77.7928Z" fill="#498E21"/>
<path d="M107.545 103.718L96.7972 89.9393C97.2099 89.614 97.8132 89.6879 98.1359 90.1024L107.707 102.373C108.03 102.787 107.958 103.393 107.545 103.718Z" fill="#BF7B0D"/>
<path d="M106.205 103.555L96.6347 91.2846C96.311 90.8701 96.3847 90.2647 96.7975 89.9395L107.545 103.718C107.338 103.88 107.085 103.944 106.842 103.914C106.599 103.884 106.367 103.762 106.205 103.555Z" fill="#805209"/>
<path d="M107.491 87.3728V145.949H105.299V89.568C105.299 88.3601 106.284 87.3728 107.491 87.3728Z" fill="#BF7B0D"/>
<path d="M109.677 89.568V145.949H107.491V87.3728C108.091 87.3728 108.636 87.6213 109.033 88.0185C109.429 88.4157 109.677 88.9674 109.677 89.568Z" fill="#805209"/>
<path d="M120.647 98.2069L107.498 113.327C107.045 112.93 106.998 112.231 107.394 111.776L119.103 98.3124C119.499 97.8557 120.195 97.8087 120.647 98.2069Z" fill="#BF7B0D"/>
<path d="M120.75 99.7575L109.041 113.221C108.646 113.676 107.951 113.723 107.498 113.326L120.647 98.2061C120.874 98.4047 120.998 98.6781 121.016 98.9602C121.036 99.2413 120.948 99.5301 120.75 99.7575Z" fill="#805209"/>
</g>
<defs>
<radialGradient id="paint0_radial_20_771" cx="0" cy="0" r="1" gradientUnits="userSpaceOnUse" gradientTransform="translate(90.5182 113.915) scale(20.2011 2.32748)">
<stop/>
<stop offset="1" stop-color="#FFBD12"/>
</radialGradient>
<radialGradient id="paint1_radial_20_771" cx="0" cy="0" r="1" gradientUnits="userSpaceOnUse" gradientTransform="translate(107.91 146.27) scale(17.2666 2.083)">
<stop/>
<stop offset="1" stop-color="#FFBD12"/>
</radialGradient>
<clipPath id="clip0_20_771">
<rect width="146" height="155" fill="white"/>
</clipPath>
</defs>
</svg>
