<svg width="199" height="206" viewBox="0 0 199 206" fill="none" xmlns="http://www.w3.org/2000/svg">
<ellipse cx="99.5" cy="92.7901" rx="99.5" ry="92.7901" fill="#FFBD12"/>
<g clip-path="url(#clip0_370_3752)">
<path fill-rule="evenodd" clip-rule="evenodd" d="M184.336 139.667C182.134 139.868 179.932 140.069 177.73 140.27C167.184 141.02 156.643 142.586 146.178 143.526C145.918 143.132 145.408 143.197 145.098 143.471C144.054 143.386 142.884 142.643 141.938 143.416C141.907 143.412 141.876 143.407 141.845 143.404C140.161 140.395 138.997 137.186 137.867 133.973C137.146 131.997 136.176 130.084 134.383 128.758C131.323 126.781 124.312 122.771 120.718 122.94C120.659 122.341 120.359 121.724 119.867 121.325C120.952 119.603 116.612 118.479 116.306 118.679C116.503 112.925 113.595 107.928 107.183 106.782C101.439 105.668 93.2691 105.481 90.1799 111.068C89.8403 111.033 86.3691 111.016 86.0332 111.051C85.511 110.435 79.7764 116.269 82.1267 118.3C61.1135 126.952 49.1653 125.92 43.3492 150.244C42.5629 152.529 42.5056 155.03 41.6753 157.264C38.7214 163.684 36.3255 170.521 35.7292 177.507C34.2891 177.85 34.1235 180.214 35.7916 180.555C36.4288 180.686 36.9616 180.865 37.4262 181.203C37.063 186.928 38.5505 200.006 39.4878 199.966C41.3989 205.627 49.9233 207.225 55.9583 205.235C54.918 207.057 55.9583 208.203 55.9583 209.176C77.6739 209.941 101.418 209.5 123.127 210.549C125.904 210.513 128.825 211.184 131.564 210.798C133.235 210.425 133.237 207.98 131.543 207.678L138.947 206.181C138.781 206.123 141.998 204.131 144.43 200.409C146.693 196.245 145.153 191.219 146.178 186.689C154.188 186.08 162.331 185.819 170.253 184.556C171.333 187.565 176.009 183.967 177.495 182.52C177.493 182.517 177.491 182.515 177.49 182.513C178.209 182.33 178.786 181.702 178.805 180.959C179.309 180.288 179.415 179.343 178.932 178.694C181.149 166.786 184.529 154.627 185.75 142.606C186.182 142.517 186.589 142.341 186.934 142.07L186.906 142.044C187.49 141.437 187.604 140.391 186.63 139.876C185.844 139.46 185.188 139.589 184.336 139.667Z" fill="white"/>
<path fill-rule="evenodd" clip-rule="evenodd" d="M90.5802 109.771C91.2344 108.24 93.4461 108.835 93.1996 110.443C93.052 111.406 92.4853 112.423 91.9763 113.267C91.5618 113.954 91.089 114.625 90.448 115.14C91.5891 116.131 92.7735 117.086 93.988 117.992C95.3132 118.981 96.7067 119.893 98.1471 120.731C99.4101 121.466 100.73 122.117 101.921 122.956C103.028 123.735 104.036 124.673 104.549 125.897C105.096 127.2 104.859 128.546 104.456 129.848L104.41 129.996C103.999 131.286 103.287 132.841 104.274 134.057C104.776 134.676 105.507 135.114 106.138 135.609C106.698 136.049 107.225 136.527 107.707 137.041C108.76 138.161 109.616 139.421 110.156 140.825L110.204 140.952C110.667 142.195 111.006 143.718 110.38 144.938C110.2 145.288 109.622 145.174 109.521 144.834C109.294 144.062 109.306 143.254 109.115 142.471C108.917 141.658 108.587 140.885 108.156 140.154C107.322 138.74 106.193 137.533 104.858 136.511L104.459 136.209C103.418 135.414 102.462 134.57 102.25 133.255C102.024 131.847 102.63 130.505 103.02 129.173C103.292 128.244 103.38 127.354 103.087 126.515C102.728 127.06 102.239 127.577 101.852 128.038C101.082 128.956 100.304 129.87 99.5281 130.785C98.7327 131.723 97.957 132.676 97.2182 133.653C96.8877 134.091 96.5608 134.53 96.235 134.971C95.99 135.302 95.6483 135.632 95.3812 135.97C95.4461 136.151 95.4412 136.359 95.3235 136.507C93.9072 138.288 91.8923 134.571 91.3667 133.632C90.2966 131.72 89.5001 129.688 88.4264 127.777C87.3139 125.795 86.047 123.866 84.635 122.056C83.7809 120.962 82.8236 119.934 82.0422 118.805C80.2016 120.358 77.7794 121.4 75.5546 122.344C73.1101 123.382 70.5706 124.229 68.0643 125.129L67.324 125.397C63.0057 126.966 58.5818 128.689 54.9924 131.475C50.7746 134.75 48.2793 139.314 46.4217 144.04C44.2832 149.48 42.5141 155.068 40.8649 160.651C40.021 163.508 39.2202 166.378 38.4674 169.258C37.804 171.794 37.2542 174.356 36.4862 176.866C38.0437 176.815 39.8199 177.376 41.1496 177.538C47.2095 178.277 53.1878 179.453 58.9091 181.491C59.6158 181.743 59.8203 182.4 59.6664 182.932C60.074 182.825 60.4812 182.717 60.8887 182.61C60.4422 181.974 60.6554 180.835 60.6905 180.129L60.6926 180.081C60.7287 179.14 60.8383 178.198 60.9094 177.26C61.0448 175.47 61.221 173.693 61.4553 171.914L61.5151 171.469C61.7806 169.533 61.9769 167.586 62.2667 165.653L62.3009 165.432C62.162 164.937 62.0002 164.449 61.8305 163.963C61.378 162.667 60.7395 161.448 60.1799 160.193C60.1139 160.046 60.3399 159.961 60.4456 160.049C61.3933 160.843 62.1461 161.85 62.7509 162.903C62.7614 162.853 62.7706 162.803 62.7816 162.753L62.8506 162.437C63.0207 161.666 63.2277 160.855 63.7359 160.23C63.79 160.163 63.897 160.149 63.9482 160.23C64.4346 160.996 64.489 161.966 64.5638 162.837C64.6485 163.824 64.6591 164.822 64.6441 165.811C64.615 167.743 64.4687 169.681 64.3521 171.61C64.2377 173.506 64.0131 175.378 63.7237 177.255L63.6687 177.607C63.5272 178.501 63.4113 179.405 63.2247 180.293L63.172 180.534C63.0722 180.974 63.0109 181.595 62.8122 182.11C67.9221 180.783 73.0399 179.487 78.1674 178.214C81.8732 177.293 85.583 176.386 89.2912 175.473C89.4869 175.145 89.7305 174.839 90.0346 174.565C91.0364 173.662 92.3641 173.259 93.5818 173.954C93.6808 174.01 93.6892 174.155 93.5818 174.21C93.3485 174.328 93.1148 174.45 92.8852 174.577L95.1118 174.015C96.7761 173.596 98.4603 173.071 100.164 172.778C103.301 171.337 106.676 170.294 109.981 169.263L110.37 169.14C112.063 168.603 113.813 168.002 115.562 167.704C116.842 167.486 118.344 167.749 118.859 168.97C119.51 169.37 120.124 169.84 120.715 170.302C121.143 170.635 121.553 170.99 121.97 171.336L122.047 171.399C122.388 171.674 122.658 171.858 122.741 172.297C122.785 172.523 122.63 172.829 122.33 172.799C121.413 172.708 120.666 171.718 120.044 171.126C119.563 170.669 119.079 170.197 118.64 169.695C118.384 169.824 118.033 169.801 117.87 169.514C117.026 168.026 114.713 169.057 113.433 169.41L111.6 169.915C110.683 170.168 109.767 170.422 108.852 170.681C106.338 171.391 103.836 172.187 101.299 172.839C101.526 173.071 101.495 173.485 101.064 173.642C99.0778 174.367 96.8993 174.742 94.8362 175.24C93.5337 175.554 92.232 175.87 90.9307 176.189C90.7075 176.525 90.547 176.906 90.4795 177.349C90.2311 178.978 90.7101 180.858 91.1766 182.433L91.2469 182.669C91.6304 183.935 92.1946 185.488 93.3689 186.288C93.6555 186.483 94.0205 186.619 94.3885 186.65C96.6871 185.549 98.9856 184.447 101.286 183.348C101.712 183.145 102.105 183.42 102.201 183.748C103.012 183.624 103.821 183.429 104.558 183.196C105.796 182.805 106.763 182.058 107.924 181.542C110.17 180.543 112.463 181.77 114.475 182.703L114.938 182.915C115.84 183.322 117.716 184.104 118.149 182.991C118.567 181.913 117.244 180.761 116.389 180.276C115.371 179.698 114.185 179.388 113.033 179.131C112.376 178.983 111.711 178.863 111.041 178.776C110.282 178.676 109.498 178.691 108.767 178.462C108.403 178.348 108.348 177.811 108.767 177.722C109.892 177.484 111.235 177.744 112.41 178.01L113.023 178.151C114.207 178.421 115.401 178.76 116.479 179.299C117.263 179.691 118.09 180.287 118.63 181.016C119.099 180.61 119.683 180.624 120.292 180.774L120.622 180.86C121.167 181.001 121.609 181.097 122.139 181C122.21 180.641 122.282 180.281 122.359 179.922C123.115 176.389 123.944 172.87 124.859 169.369C126.437 163.331 128.263 157.359 130.322 151.448L130.529 150.858C131.003 149.506 131.385 148.033 132.151 146.791C132.875 145.616 134.035 144.94 135.413 144.582C136.977 144.175 138.62 143.962 140.215 143.688C140.571 143.627 140.928 143.569 141.284 143.508C140.983 143.002 140.759 142.428 140.556 141.988L140.521 141.911C140.086 140.988 139.695 140.049 139.318 139.105L139.036 138.395C138.355 136.685 137.652 135.004 136.695 133.405C135.687 131.722 134.35 130.346 132.683 129.208C129.285 126.886 125.189 125.701 121.893 123.22C121.757 123.119 121.931 122.945 122.068 123.009C124.293 124.05 126.696 124.758 129.011 125.605L129.467 125.773C131.297 126.448 133.155 127.183 134.739 128.276C136.504 129.495 137.895 131.009 138.94 132.809C139.97 134.583 140.629 136.569 141.356 138.464L141.55 138.969C141.843 139.726 142.146 140.481 142.493 141.218C142.768 141.803 143.282 142.471 143.516 143.14C144.155 143.036 144.794 142.933 145.434 142.833C159.292 140.68 173.304 139.414 187.347 139.044C187.897 139.03 188.181 139.518 188.1 139.964C186.752 147.382 185.555 154.825 184.24 162.249C183.667 165.489 183.082 168.726 182.483 171.962C182.18 173.601 181.829 175.234 181.542 176.876C181.31 178.202 181.142 179.539 180.743 180.834C180.386 181.995 179.838 183.115 178.938 184.001C177.968 184.956 176.614 185.418 175.251 185.637C171.79 186.191 168.241 186.418 164.752 186.787L146.179 188.754C146.451 191.05 146.471 193.311 146.347 195.634L146.276 196.902C146.218 197.922 146.148 198.943 145.991 199.953C145.793 201.219 145.171 202.292 144.254 203.238C143.413 204.106 142.39 204.847 141.395 205.558C140.363 206.295 139.296 207.007 138.082 207.463L137.924 207.521C136.859 207.908 134.861 208.507 133.405 208.288C133.596 209.176 133.964 210.13 133.638 211.008C133.486 211.416 132.913 211.619 132.562 211.272C131.867 210.585 131.813 209.677 131.648 208.779C131.477 207.846 131.329 206.909 131.198 205.97C130.944 204.154 130.746 202.322 130.686 200.49C130.624 198.61 130.648 196.727 130.757 194.848C130.813 193.884 130.882 192.919 131.014 191.961C131.07 191.552 131.127 191.143 131.193 190.735C131.217 190.587 131.243 190.439 131.272 190.291L129.605 190.466C127.049 190.732 124.491 190.971 121.917 191.009C121.612 191.013 121.378 190.884 121.224 190.696C121.061 190.943 120.777 191.12 120.37 191.119C116.775 191.106 113.427 190.012 110.157 188.723C108.509 188.073 106.887 187.369 105.236 186.724C103.696 186.122 102.049 185.693 100.545 185.015L96.5944 186.944C96.5654 187.039 96.5283 187.129 96.4888 187.204C96.2316 187.693 95.7244 187.958 95.2065 188.157C94.7093 188.349 94.1945 188.409 93.6929 188.361C90.6967 189.822 87.6999 191.282 84.701 192.739L81.7015 194.194C75.7253 197.09 69.7727 200.034 63.7589 202.863L63.3161 203.07C61.2389 204.04 59.0085 205.022 56.7033 205.756C56.6623 206.299 56.6882 206.827 56.7371 207.402L56.7488 207.527C56.8176 208.206 56.9649 209.058 56.3795 209.541C56.0749 209.793 55.5309 209.794 55.3238 209.414C54.948 208.727 55.2854 207.643 55.4045 206.896C55.4467 206.63 55.4982 206.357 55.5744 206.092C52.9317 206.824 50.209 207.179 47.5197 206.768C44.9014 206.368 42.8735 204.833 41.2387 202.955C39.5134 200.973 38.2873 198.663 37.6295 196.188C36.8808 193.37 36.832 190.461 36.8495 187.575C36.8682 184.502 36.9903 181.414 37.3919 178.362C36.9519 178.266 36.464 178.182 36.0195 178.211C35.7993 178.539 35.3721 178.677 34.9862 178.634C34.1469 179.496 36.2758 180.377 36.9561 180.597C37.1923 180.674 37.167 181.031 36.8946 181.02L36.7229 181.013C35.6717 180.96 34.5856 180.793 33.9675 179.884C33.4722 179.155 33.621 178.292 34.2115 177.697C34.6015 174.265 35.5337 170.923 36.4014 167.575C37.2529 164.289 38.1999 161.024 39.2036 157.775L39.6535 156.321C41.2338 151.227 42.8856 146.093 45.0655 141.201C46.154 138.759 47.4079 136.361 49.1077 134.232C50.6921 132.247 52.5627 130.548 54.7129 129.097C58.7213 126.392 63.4248 124.758 68.0462 123.201L68.253 123.131C70.6479 122.325 73.037 121.509 75.4045 120.635C77.4984 119.862 79.5044 118.883 81.5884 118.098C81.5207 117.984 81.4554 117.868 81.3925 117.751L81.3539 117.782C81.3473 117.786 81.3406 117.791 81.3335 117.796C81.124 117.931 80.8154 117.864 80.6427 117.713C80.1551 117.284 80.3202 116.809 80.6457 116.365L80.6881 116.308C81.0862 115.789 81.4413 115.24 81.8088 114.702L82.0389 114.366C82.6557 113.467 83.3039 112.562 84.1263 111.819C84.5071 111.475 84.9241 111.218 85.3659 111.026C85.3281 110.952 85.6593 110.8 85.7532 110.876C87.1529 110.399 88.7632 110.499 90.2892 110.631M145.281 188.849L143.335 189.055C141.194 189.281 139.052 189.501 136.91 189.718L132.257 190.188C132.246 190.435 132.213 190.677 132.207 190.863C132.177 191.824 132.154 192.786 132.133 193.748C132.09 195.675 132.137 197.604 132.273 199.528C132.406 201.392 132.58 203.256 132.85 205.107L132.905 205.477L132.937 205.672C133.158 205.692 133.375 205.789 133.555 205.99C133.949 206.427 135.374 206.002 135.93 205.818C136.845 205.515 137.707 205.003 138.502 204.489C139.279 203.988 139.978 203.403 140.65 202.787L141.2 202.281C141.747 201.775 142.294 201.236 142.63 200.6C143.084 199.737 143.143 198.677 143.276 197.738C143.44 196.582 143.635 195.426 143.842 194.275M88.7886 176.714L88.5867 176.764C81.2543 178.577 73.9329 180.444 66.578 182.178C62.9383 183.036 59.2813 183.831 55.6371 184.673L55.047 184.81C52.1721 185.486 49.2627 186.3 47.0612 188.241C46.9799 188.313 46.862 188.203 46.9385 188.127C49.3111 185.776 52.6857 184.781 55.9257 183.918C56.5246 183.759 57.1243 183.603 57.7234 183.444C53.317 181.982 48.841 180.71 44.2617 179.803C43.0825 179.569 41.8896 179.398 40.7114 179.163C39.8897 178.999 39.0872 178.763 38.2742 178.567L37.6346 178.417L37.6261 180.298C37.6155 182.963 37.6206 185.625 37.7666 188.29L37.7943 188.783C37.9647 191.748 38.2307 194.775 39.3611 197.57C40.2796 199.842 41.7438 201.983 43.6585 203.637C44.6273 204.475 45.6689 205.126 46.9565 205.448C48.152 205.747 49.4046 205.782 50.6336 205.702C56.5285 205.319 61.7759 202.339 66.8966 199.871C75.2723 195.834 83.6489 191.8 92.0331 187.779C91.8064 187.634 91.593 187.468 91.3989 187.281C90.2746 186.201 89.6815 184.721 89.292 183.288C88.8774 181.763 88.6294 180.128 88.6006 178.554M99.4568 189.337C99.5308 189.3 99.6165 189.346 99.6199 189.424C99.6458 190.02 99.292 190.608 99.0276 191.145L98.9996 191.202C98.6784 191.867 98.3267 192.523 97.9629 193.169C97.2358 194.46 96.4803 195.737 95.6917 196.995C94.1059 199.527 92.3437 201.953 90.2608 204.157C89.7903 204.655 89.0165 204.017 89.3184 203.481C90.7741 200.896 92.4711 198.455 94.2178 196.035C95.0923 194.824 95.9662 193.611 96.8493 192.405C97.2177 191.902 97.5908 191.401 97.974 190.907L98.2051 190.612M186.419 140.525C179.061 140.732 171.711 141.178 164.388 141.878C157.578 142.529 150.792 143.396 144.045 144.476C142.636 144.701 141.228 144.936 139.823 145.18L138.98 145.328C137.574 145.576 135.856 145.678 134.604 146.378C133.284 147.115 132.928 148.655 132.488 149.925C131.972 151.419 131.469 152.917 130.979 154.419C129.035 160.382 127.259 166.396 125.675 172.451C124.889 175.456 124.191 178.478 123.456 181.494C122.803 184.173 122.082 186.823 121.329 189.476C121.422 189.409 121.535 189.358 121.673 189.33C125.412 188.59 129.229 188.268 133.024 187.859L133.391 187.819C137.316 187.389 141.242 186.963 145.17 186.552L171.178 183.829C172.711 183.669 174.355 183.647 175.847 183.264C178.385 182.612 178.98 179.971 179.406 177.868L179.419 177.804C180.702 171.45 181.724 165.04 182.921 158.669M121.934 182.089C120.924 182.027 119.542 181.166 118.776 181.228C119.178 181.856 119.36 182.572 119.128 183.337C118.483 185.466 115.566 184.365 114.161 183.714C113.009 183.181 111.897 182.528 110.621 182.278C109.176 181.995 108.198 182.53 106.977 183.147C105.974 183.653 104.882 184.016 103.76 184.205C103.162 184.305 102.595 184.315 102.029 184.276C101.995 184.302 101.957 184.326 101.913 184.347L101.614 184.494C102.968 184.551 104.347 184.94 105.607 185.296C106.913 185.665 108.195 186.11 109.47 186.565L110.724 187.014C113.818 188.116 117.021 189.164 120.369 189.155C120.61 189.154 120.807 189.216 120.963 189.317M116.285 175.418C117.282 175.305 118.203 175.426 119 176.031C119.961 176.76 120.607 177.968 121.989 178.048C122.392 178.071 122.486 178.598 122.085 178.709C121.057 178.992 120.224 178.474 119.523 177.801L119.052 177.343C118.359 176.676 117.72 176.16 116.545 176.199C115.287 176.242 114.026 176.513 112.775 176.651C111.359 176.806 109.943 176.939 108.522 177.054C108.456 177.059 108.445 176.963 108.506 176.948L110.098 176.58M115.322 171.622L115.487 171.607C116.935 171.476 118.26 171.471 119.554 172.196L119.802 172.336C120.968 172.996 122.238 173.773 122.967 174.842C123.086 175.017 122.889 175.222 122.689 175.178C121.288 174.865 120.263 173.907 119.084 173.191C117.761 172.387 116.394 172.519 114.886 172.644C113.425 172.765 111.965 172.931 110.519 173.158C109.16 173.371 107.797 173.707 106.424 173.814L106.424 173.811C106.267 173.811 106.178 173.592 106.338 173.517C107.731 172.87 109.344 172.563 110.86 172.268M65.7216 134.959C65.7197 134.853 65.8809 134.813 65.9371 134.905C66.8796 136.449 67.3723 138.34 67.8744 140.041C68.4002 141.822 68.8247 143.621 69.2061 145.434C69.9784 149.104 70.39 152.753 70.4179 156.494C70.4218 157.028 69.487 157.17 69.3956 156.623C68.7885 152.984 68.2068 149.342 67.5951 145.704C67.2873 143.875 66.9291 142.052 66.5863 140.228M75.0521 137.648C74.9827 137.435 75.3155 137.364 75.4006 137.558C77.292 141.88 77.9325 146.778 76.7182 151.337C76.5324 152.034 75.435 151.732 75.5751 151.043M99.4492 133.808C99.4396 133.648 99.6618 133.623 99.7456 133.733C100.642 134.908 101.014 136.482 102.586 137.09C103.371 137.393 104.254 137.34 104.948 137.853C105.412 138.195 105.767 138.736 105.419 139.255C105.307 139.423 104.993 139.506 104.84 139.324C104.618 139.059 104.5 138.741 104.198 138.542C103.772 138.262 103.198 138.244 102.709 138.112C102.077 137.942 101.52 137.643 101.064 137.2M114.422 114.203C114.514 114.16 114.603 114.188 114.662 114.262C114.746 114.368 114.736 114.471 114.632 114.544C114.771 114.806 114.933 115.464 114.957 115.56C115.051 115.948 115.152 116.333 115.257 116.719C115.468 117.497 115.654 118.28 115.866 119.058C116.091 119.882 116.359 120.698 116.657 121.502C116.676 121.554 116.697 121.607 116.719 121.661L116.753 121.743L116.762 121.73C116.822 121.641 116.948 121.703 116.933 121.797C116.92 121.883 116.901 121.969 116.885 122.055L116.916 122.131C117.111 122.62 117.245 123.134 116.887 123.565C116.753 123.727 116.606 123.822 116.423 123.85C116.128 124.753 115.759 125.639 115.364 126.49L115.248 126.739C114.667 127.98 114.047 129.205 113.121 130.262C112.111 131.416 110.72 132.204 109.84 133.469C109.431 134.057 109.146 134.676 108.914 135.34L108.827 135.592C108.663 136.062 108.474 136.517 108 136.793C107.849 136.881 107.623 136.853 107.501 136.733C106.53 135.777 107.546 133.992 108.132 133.066C108.946 131.779 110.124 130.955 111.303 129.984C112.575 128.937 113.385 127.537 114.17 126.158C114.65 125.312 115.114 124.449 115.603 123.6C115.092 123.18 114.929 122.347 114.756 121.767L114.74 121.715C114.455 120.787 114.228 119.835 114.084 118.879C113.946 117.959 113.889 117.053 113.925 116.128L113.936 115.892M116.319 118.58C116.206 118.436 116.393 118.273 116.547 118.303C117.488 118.484 118.407 119.014 119.251 119.443L119.341 119.488C120.015 119.826 120.693 120.24 121.046 120.897C121.431 121.611 121.399 122.434 121.347 123.21L121.342 123.282C121.278 124.213 121.267 125.18 121.056 126.093C120.948 126.561 120.493 126.693 120.103 126.582C119.641 127.943 118.34 128.945 117.39 130.019C116.179 131.388 116.407 133.236 116.534 134.884C116.585 135.551 115.693 135.741 115.234 135.385L114.175 134.567C113.999 134.43 113.823 134.293 113.647 134.156C113.497 134.038 113.348 133.919 113.2 133.799L112.979 133.618C112.881 133.536 112.449 133.087 112.323 133.068C112.017 133.023 111.29 133.773 111.042 134.009L111.01 134.038C110.542 134.465 110.119 134.925 109.725 135.413C109.653 135.502 109.511 135.428 109.563 135.324C109.916 134.621 110.326 133.948 110.814 133.318L110.912 133.192C111.236 132.786 111.672 132.067 112.244 131.947C112.943 131.801 113.641 132.453 114.149 132.815L114.182 132.838C114.424 133.007 114.663 133.179 114.901 133.352C114.876 132.124 115.043 130.884 115.724 129.827C116.204 129.081 116.923 128.528 117.538 127.887C118.223 127.173 118.581 126.296 119.201 125.553C119.281 125.457 119.391 125.406 119.511 125.389C119.534 124.792 119.629 124.188 119.702 123.597L119.723 123.42C119.797 122.778 119.972 121.993 119.634 121.392C119.315 120.823 118.582 120.422 118.04 120.037L117.597 119.717M85.8003 111.788C85.5172 111.941 85.2526 112.13 85.0125 112.367C84.2568 113.114 83.7165 114.042 83.1906 114.936C82.9075 115.417 82.6346 115.903 82.3492 116.383C82.225 116.592 82.0974 116.798 81.9683 117.005C81.9086 117.1 81.7313 117.289 81.6434 117.405C81.7411 117.532 81.842 117.658 81.945 117.782C81.9843 117.829 84.6953 120.578 85.6403 121.654C87.0873 123.302 88.3807 125.042 89.4865 126.905C90.5693 128.73 91.3936 130.661 92.3967 132.521C92.8988 133.452 93.4594 134.377 94.1742 135.183C94.2018 135.214 94.2309 135.244 94.2591 135.275C94.5319 134.589 95.2309 133.854 95.5741 133.433L95.6062 133.393C96.3848 132.416 97.207 131.469 98.0471 130.537C98.8144 129.687 99.6012 128.855 100.407 128.036L100.71 127.73C101.272 127.165 101.985 126.321 102.807 125.917C102.719 125.771 102.617 125.627 102.499 125.484C101.729 124.547 100.641 123.868 99.5667 123.254L98.8701 122.86C96.2444 121.371 93.6596 119.812 91.3801 117.877C90.1741 116.853 88.9847 115.78 87.971 114.586L87.6125 114.164M90.1814 111.051C88.9518 111.147 87.624 111.124 86.4877 111.497C87.4979 112.386 88.4581 113.346 89.4445 114.25C89.5322 113.638 89.7117 113.034 89.8638 112.438" fill="black"/>
<path fill-rule="evenodd" clip-rule="evenodd" d="M132.034 82.4808C131.449 73.5528 128.337 63.4308 119.177 59.0473C98.9828 51.5035 72.4319 70.5009 71.0262 89.9082C70.5362 96.5515 74.4988 103.811 81.7402 105.658C83.3502 107.643 85.7851 108.856 88.1883 109.908C116.812 123.731 135.302 112.494 132.034 82.4808Z" fill="white"/>
<path fill-rule="evenodd" clip-rule="evenodd" d="M138.554 76.9272C137.543 74.312 136.474 71.717 135.35 69.142C134.255 66.6359 133.266 64.0757 131.907 61.6884C123.787 47.4299 109.02 47.4299 101.388 49.2929C97.4293 47.7054 90.0152 48.1532 85.8935 49.5857C79.221 51.9048 71.0871 61.0274 68.3061 65.1261C62.166 74.1757 58.3341 86.2205 62.4127 96.6777C62.9458 98.0444 63.6256 99.3102 64.3911 100.53C63.9089 101.138 63.3539 101.715 62.7391 102.281C60.9122 103.963 59.0852 105.59 57.507 107.488C55.9386 109.374 54.6384 111.379 53.6705 113.59C51.8454 117.76 51.7575 122.482 54.1704 126.461C56.2697 129.923 59.9885 132.501 64.1783 132.747C64.3934 132.774 64.6088 132.8 64.8252 132.82C65.3803 133.671 66.0572 134.455 66.8298 135.138C69.1967 137.234 74.8389 138.309 78.0571 138.378C78.2221 138.501 78.3886 138.625 78.5551 138.747C80.5243 140.189 82.5906 141.645 84.8511 142.671C86.3824 143.367 88.39 143.948 89.9876 143.446C90.7123 143.897 91.9012 143.802 92.6198 143.433C93.8009 142.827 94.7616 141.736 95.346 140.62C96.7631 137.908 96.4223 134.942 96.0584 132.045C95.6575 128.846 95.272 125.645 94.8803 122.446C94.5735 119.944 94.2527 117.4 93.4355 114.991C93.013 113.742 92.4594 112.542 91.7439 111.414C91.7624 111.319 91.7593 111.224 91.73 111.135C91.4956 110.426 91.0114 110.054 90.4378 109.572C90.3638 109.51 90.2898 109.447 90.2173 109.383C89.9305 109.078 89.6236 108.796 89.2952 108.556C89.1688 108.437 89.0438 108.316 88.9189 108.196C87.8812 107.184 86.9005 106.12 86.0292 104.981C85.1842 103.875 84.4209 102.721 83.6946 101.546C82.956 100.35 82.4672 99.0312 81.7301 97.8442C81.6669 97.7423 81.5065 97.7222 81.4171 97.8069C81.1889 98.0265 81.0424 98.2705 81.0702 98.5274L80.956 98.5432C80.9129 98.1556 80.5289 97.8399 80.0077 97.9246C79.2275 98.0509 78.586 98.0982 77.9106 97.8571C78.0293 97.1236 78.1388 96.3888 78.2467 95.6524C78.4441 94.2975 78.6276 92.9382 78.7849 91.579C79.1658 91.6637 79.5436 91.7857 79.9137 91.9407C80.441 92.1603 80.9391 92.456 81.3647 92.8191C81.7841 93.1779 82.074 93.6616 82.5859 93.9114C83.175 94.197 83.8859 93.7248 83.7131 93.1047C83.3631 91.8517 81.3816 91.134 80.1557 90.8972C79.7348 90.8154 79.3046 90.7809 78.8743 90.7896C78.9715 89.9169 79.0578 89.0442 79.1288 88.1701C79.1627 87.7567 79.1935 87.3433 79.2228 86.9285C80.1758 86.6601 81.1966 86.5798 82.1881 86.7061C82.515 86.9486 82.8419 87.1883 83.158 87.4309C84.1619 88.2031 85.1611 88.9796 86.148 89.7705C86.2374 89.8408 86.3253 89.9111 86.4147 89.9829C87.0007 90.4523 87.7316 89.9872 87.6329 89.3227C86.828 83.877 90.4116 79.5452 94.6074 76.1894C99.2519 72.4734 107.696 72.0407 113.219 65.6039C115.763 66.0859 121.443 67.5172 123.787 70.9936C127.068 75.8651 126.639 80.2299 126.889 85.7559C127.139 91.2862 127.774 97.0548 126.425 102.508C125.181 107.535 121.811 111.831 116.584 113.806C116.454 113.855 116.323 113.903 116.192 113.949C113.489 114.897 110.539 115.166 107.696 114.666C104.549 114.112 101.921 112.772 99.3028 111.122C99.1517 111.029 98.9312 111.221 99.0453 111.362C102.496 115.619 109.275 117.042 114.652 115.918C114.903 115.865 115.153 115.807 115.401 115.744C114.199 118.964 114.441 122.497 116.007 125.632C116.949 127.518 118.387 129.15 120.137 130.438C122.066 131.856 124.459 133.001 125.797 134.992C127.023 136.816 126.659 138.866 124.561 139.919C124.032 140.186 123.828 141.049 124.353 141.428C124.553 141.571 124.754 141.718 124.959 141.861C126.134 142.687 129.361 144.237 129.884 144.294C134.525 144.807 137.646 141.634 139.646 137.893C141.995 133.5 141.384 128.148 138.797 123.966C136.721 120.61 132.633 117.303 134.258 113.056C134.838 111.539 136.024 110.245 137.176 109.077C138.49 107.746 139.902 106.501 141.162 105.123C142.414 103.755 143.524 102.266 144.144 100.55C145.049 98.0408 144.599 95.3281 143.919 92.8234C142.462 87.4467 140.57 82.1417 138.554 76.9272Z" fill="black"/>
<path fill-rule="evenodd" clip-rule="evenodd" d="M117.534 103.561C116.487 103.944 115.251 104.034 114.17 103.708C113.138 103.396 112.2 102.701 111.632 101.828C111.127 101.05 110.916 100.127 111.214 99.2064C111.229 99.1624 111.275 99.1342 111.32 99.1232C111.564 99.3303 111.715 99.536 111.866 99.7407C112.12 100.086 112.375 100.427 112.725 100.722C113.234 101.152 113.92 101.5 114.601 101.615C115.267 101.728 115.95 101.628 116.547 101.331C116.909 101.151 117.203 100.91 117.494 100.667C117.81 100.403 118.121 100.135 118.557 99.9862C118.906 99.8668 119.273 99.9676 119.555 100.167C119.858 100.382 120.076 100.718 120.064 101.07C120.045 101.614 119.789 102.069 119.417 102.444C118.915 102.95 118.205 103.315 117.534 103.561ZM116.291 89.9898C117.456 90.6486 119.23 92.1849 117.977 93.8182C116.503 95.2583 114.38 93.6071 113.334 92.8603C112.364 92.2816 111.274 93.7701 112.174 94.4459C119.733 99.6554 122.801 90.1621 116.88 89.2152C116.228 89.1109 115.986 89.786 116.291 89.9898ZM103.462 87.7732L103.462 87.7409C103.464 86.8256 104.037 84.7358 105.452 84.7358C106.337 84.7358 106.874 86.1581 106.967 87.6242L106.97 87.684C107.011 88.5955 106.742 90.5879 105.452 90.5879C104.149 90.5879 103.476 88.7008 103.462 87.7732ZM124.303 87.7732L124.303 87.7409C124.301 86.8256 123.729 84.7358 122.313 84.7358C121.451 84.7358 120.919 86.0879 120.807 87.5143L120.799 87.6242C120.743 88.5049 120.994 90.5879 122.313 90.5879C123.616 90.5879 124.29 88.7008 124.303 87.7732Z" fill="black"/>
</g>
<g clip-path="url(#clip1_370_3752)">
<path d="M163.101 162.565C162.658 165.81 159.685 168.061 156.461 167.592C153.236 167.123 150.982 164.112 151.425 160.866C151.869 157.621 154.841 155.37 158.066 155.839C161.29 156.308 163.544 159.32 163.101 162.565ZM151.946 160.942C151.542 163.898 153.596 166.641 156.532 167.068C159.469 167.495 162.177 165.445 162.58 162.489C162.984 159.533 160.931 156.791 157.994 156.363C155.057 155.936 152.35 157.986 151.946 160.942L151.946 160.942Z" fill="black"/>
<path d="M160.337 162.046L157.471 164.258L156.992 163.756L159.858 161.545L160.337 162.046ZM154.731 162.997L157.236 165.6L156.688 166.027L154.183 163.423L154.731 162.997Z" fill="black"/>
<path d="M156.986 160.977L157.654 161.02L156.947 172.135L156.279 172.093L156.986 160.977Z" fill="black"/>
<path d="M154.528 172.2L158.529 171.22L158.66 171.669L154.659 172.649L154.528 172.2Z" fill="black"/>
</g>
<defs>
<clipPath id="clip0_370_3752">
<rect width="164.223" height="176.571" fill="white" transform="translate(27.0486 29.4287)"/>
</clipPath>
<clipPath id="clip1_370_3752">
<rect width="14.7643" height="16.9198" fill="white" transform="matrix(0.982938 -0.183937 0.210357 0.977625 148.017 156.854)"/>
</clipPath>
</defs>
</svg>
